<svg width="54" height="54" viewBox="0 0 54 54" fill="none" xmlns="http://www.w3.org/2000/svg">
<rect width="54" height="54" rx="16" fill="url(#paint0_linear_11918_12821)"/>
<path opacity="0.4" d="M39.1066 22.4401V31.5601C39.1066 33.0534 38.3066 34.4401 37.0132 35.2001L29.0932 39.7735C27.7999 40.5201 26.1999 40.5201 24.8932 39.7735L16.9732 35.2001C15.6799 34.4535 14.8799 33.0667 14.8799 31.5601V22.4401C14.8799 20.9468 15.6799 19.5601 16.9732 18.8001L24.8932 14.2267C26.1866 13.4801 27.7865 13.4801 29.0932 14.2267L37.0132 18.8001C38.3066 19.5601 39.1066 20.9335 39.1066 22.4401Z" fill="#E11B22"/>
<path d="M27.0002 26.9999C28.716 26.9999 30.1069 25.609 30.1069 23.8932C30.1069 22.1775 28.716 20.7866 27.0002 20.7866C25.2845 20.7866 23.8936 22.1775 23.8936 23.8932C23.8936 25.609 25.2845 26.9999 27.0002 26.9999Z" fill="#E11B22"/>
<path d="M30.5732 33.2133C31.6532 33.2133 32.2799 32.0134 31.6799 31.12C30.7732 29.7734 29.0132 28.8667 26.9999 28.8667C24.9866 28.8667 23.2266 29.7734 22.3199 31.12C21.7199 32.0134 22.3466 33.2133 23.4266 33.2133H30.5732Z" fill="#E11B22"/>
<defs>
<linearGradient id="paint0_linear_11918_12821" x1="27" y1="0" x2="27" y2="54" gradientUnits="userSpaceOnUse">
<stop stop-color="#FFF4F4"/>
<stop offset="1" stop-color="#FDEDEE"/>
</linearGradient>
</defs>
</svg>
