<svg width="32" height="32" viewBox="0 0 32 32" fill="none" xmlns="http://www.w3.org/2000/svg">
<path d="M13.2794 18.7198V17.2398C13.2794 16.6664 12.8528 16.3864 12.3328 16.6131L5.65276 19.4931C4.59943 19.9464 3.74609 19.3864 3.74609 18.2531V16.4931C3.74609 15.5864 4.42609 14.5331 5.26609 14.1864L12.8661 10.9198C13.0794 10.8131 13.2661 10.5331 13.2661 10.2931V6.21309C13.2661 4.93309 14.2128 3.39975 15.3461 2.81309C15.7461 2.61309 16.2261 2.61309 16.6261 2.81309C17.7728 3.39975 18.7194 4.91975 18.7194 6.19975V10.2798C18.7194 10.5198 18.9061 10.7998 19.1194 10.9064L20.5061 11.4931L13.2794 18.7198Z" fill="url(#paint0_linear_13012_20282)"/>
<path opacity="0.4" d="M28.2542 16.4932V18.2532C28.2542 19.3865 27.4009 19.9465 26.3475 19.4932L19.6675 16.6132C19.1342 16.3998 18.7209 16.6665 18.7209 17.2398V21.1198C18.7209 21.4265 18.8942 21.8665 19.1209 22.0798L22.2142 25.1865C22.5342 25.5065 22.6809 26.1465 22.5342 26.5865L21.9342 28.3998C21.6675 29.1865 20.7742 29.5465 20.0409 29.1865L16.8675 26.5198C16.3875 26.1065 15.6009 26.1065 15.1209 26.5198L11.9475 29.1865C11.2142 29.5598 10.3209 29.1865 10.0809 28.3998L9.48086 26.5865C9.3342 26.1332 9.48086 25.5065 9.80086 25.1865L12.8942 22.0798C13.1075 21.8665 13.2809 21.4265 13.2809 21.1198V18.7198L20.5075 11.4932L26.7342 14.1732C27.5742 14.5332 28.2542 15.5865 28.2542 16.4932Z" fill="url(#paint1_linear_13012_20282)"/>
<defs>
<linearGradient id="paint0_linear_13012_20282" x1="4.53172" y1="4.49188" x2="19.895" y2="4.53875" gradientUnits="userSpaceOnUse">
<stop stop-color="#E11B22"/>
<stop offset="1" stop-color="#FF343C"/>
</linearGradient>
<linearGradient id="paint1_linear_13012_20282" x1="10.3065" y1="13.4136" x2="27.5676" y2="13.47" gradientUnits="userSpaceOnUse">
<stop stop-color="#E11B22"/>
<stop offset="1" stop-color="#FF343C"/>
</linearGradient>
</defs>
</svg>
