<svg width="48" height="48" viewBox="0 0 48 48" fill="none" xmlns="http://www.w3.org/2000/svg">
<rect width="48" height="48" rx="16" fill="#F26F24" fill-opacity="0.12"/>
<path d="M23.9998 10.6666C20.5065 10.6666 17.6665 13.5066 17.6665 17C17.6665 20.4266 20.3465 23.2 23.8398 23.32C23.9465 23.3066 24.0532 23.3066 24.1332 23.32C24.1598 23.32 24.1732 23.32 24.1998 23.32C24.2132 23.32 24.2132 23.32 24.2265 23.32C27.6398 23.2 30.3198 20.4266 30.3332 17C30.3332 13.5066 27.4932 10.6666 23.9998 10.6666Z" fill="#F26F24"/>
<path fill-rule="evenodd" clip-rule="evenodd" d="M17.2396 26.8661C20.9862 24.3863 27.0535 24.3863 30.7734 26.8661C32.4532 27.986 33.3732 29.5063 33.3867 31.1461C33.3867 32.7992 32.4531 34.3188 30.7734 35.452C28.9068 36.7054 26.4533 37.3322 24 37.3323C21.5467 37.3323 19.0932 36.7054 17.2266 35.452C15.5469 34.3321 14.6133 32.8119 14.6133 31.1721C14.6136 29.5325 15.5468 27.9992 17.2396 26.8661ZM23.9974 32.7906C23.4835 32.7906 23.0666 33.208 23.0664 33.7216L23.0859 33.9091C23.1729 34.333 23.5479 34.6526 23.9974 34.6526H24.0039C24.4531 34.652 24.8273 34.3325 24.9141 33.9091L24.9336 33.7216C24.9334 33.2087 24.5175 32.7912 24.0039 32.7906H23.9974ZM24.0013 27.7333C23.579 27.7333 23.2374 28.076 23.237 28.4976V31.7033C23.2371 32.1254 23.5792 32.4677 24.0013 32.4677C24.423 32.4674 24.7655 32.1255 24.7656 31.7033V28.4976C24.7653 28.076 24.4231 27.7336 24.0013 27.7333Z" fill="#F26F24"/>
</svg>
