<svg width="48" height="48" viewBox="0 0 48 48" fill="none" xmlns="http://www.w3.org/2000/svg">
<rect width="48" height="48" rx="16" fill="#E1251B" fill-opacity="0.12"/>
<path d="M23.9998 10.6666C20.5065 10.6666 17.6665 13.5066 17.6665 17C17.6665 20.4266 20.3465 23.2 23.8398 23.32C23.9465 23.3066 24.0532 23.3066 24.1332 23.32C24.1598 23.32 24.1732 23.32 24.1998 23.32C24.2132 23.32 24.2132 23.32 24.2265 23.32C27.6398 23.2 30.3198 20.4266 30.3332 17C30.3332 13.5066 27.4932 10.6666 23.9998 10.6666Z" fill="#E1251B"/>
<path d="M30.7733 26.8667C27.0533 24.3867 20.9866 24.3867 17.2399 26.8667C15.5466 28 14.6133 29.5334 14.6133 31.1734C14.6133 32.8134 15.5466 34.3334 17.2266 35.4534C19.0933 36.7067 21.5466 37.3334 23.9999 37.3334C26.4533 37.3334 28.9066 36.7067 30.7733 35.4534C32.4533 34.32 33.3866 32.8 33.3866 31.1467C33.3733 29.5067 32.4533 27.9867 30.7733 26.8667ZM26.5866 32.3467C26.9733 32.7334 26.9733 33.3734 26.5866 33.76C26.3866 33.96 26.1333 34.0534 25.8799 34.0534C25.6266 34.0534 25.3733 33.96 25.1733 33.76L23.9999 32.5867L22.8266 33.76C22.6266 33.96 22.3733 34.0534 22.1199 34.0534C21.8666 34.0534 21.6133 33.96 21.4133 33.76C21.0266 33.3734 21.0266 32.7334 21.4133 32.3467L22.5866 31.1734L21.4133 30C21.0266 29.6134 21.0266 28.9734 21.4133 28.5867C21.7999 28.2 22.4399 28.2 22.8266 28.5867L23.9999 29.76L25.1733 28.5867C25.5599 28.2 26.1999 28.2 26.5866 28.5867C26.9733 28.9734 26.9733 29.6134 26.5866 30L25.4133 31.1734L26.5866 32.3467Z" fill="#E1251B"/>
</svg>
