<svg width="46" height="46" viewBox="0 0 46 46" fill="none" xmlns="http://www.w3.org/2000/svg">
<rect width="46" height="46" rx="23" fill="#E11B22" fill-opacity="0.1"/>
<path d="M22.4268 10.4558C23.2353 10.3921 24.3262 10.5409 25.3252 10.8757C26.3241 11.2106 27.2448 11.7355 27.6943 12.4324C28.1889 13.1991 28.1638 13.8931 28.165 14.7439C28.1656 15.1618 28.1781 15.4604 28.0859 15.7136C27.9938 15.9666 27.7991 16.1677 27.418 16.4128C27.4166 16.5081 27.4173 16.6035 27.418 16.7C28.2007 17.1134 28.559 17.8394 28.5 18.5388C28.4409 19.2383 27.9649 19.9008 27.1016 20.1921C27.0286 20.8511 26.7183 21.5873 26.3057 22.2566C25.8979 22.918 25.3869 23.5191 24.9014 23.9226C24.9287 24.1168 24.9833 24.2629 25.0586 24.3738C25.1375 24.4899 25.2401 24.5717 25.3613 24.6316C25.6085 24.7536 25.9255 24.783 26.2695 24.8308C29.179 25.2356 30.9873 28.0148 30.9941 30.823V32.1521C30.9957 33.1731 30.8727 33.9388 30.4619 34.447C30.0482 34.9586 29.3559 35.1941 28.2598 35.1912L22.7959 35.1902L17.0176 35.1912C16.407 35.1914 15.7795 35.1285 15.2705 34.8757C14.7572 34.6207 14.3686 34.1738 14.2354 33.4197C14.162 33.0043 14.2023 32.5372 14.2021 32.1287C14.2014 30.5645 14.106 29.2077 14.873 27.7585C15.674 26.2455 17.2525 25.0523 18.9697 24.825C19.1593 24.7999 19.328 24.782 19.4805 24.7546C19.6324 24.7274 19.7629 24.6919 19.873 24.6345C20.0818 24.5257 20.2307 24.3311 20.3027 23.9216C19.051 22.8227 18.5366 21.763 18.0664 20.196C17.1401 19.9117 16.684 19.1632 16.6514 18.4216C16.619 17.6869 17.0031 16.9534 17.7607 16.6931V16.4187C17.5335 16.3069 17.3486 16.1745 17.2188 15.9988C17.0818 15.8133 17.009 15.5856 17.0059 15.2976C16.9928 14.1031 16.9171 12.9037 17.8525 11.9529C18.3703 11.4266 19.1621 11.0567 19.9961 10.8162C20.8313 10.5753 21.7161 10.4616 22.4268 10.4548V10.4558ZM25.9033 25.6335C25.7604 26.5109 25.4682 27.1897 24.9941 27.698C24.5188 28.2077 23.8673 28.5399 23.0195 28.7332V32.741C23.0195 32.7969 23.023 32.857 23.0254 32.9226C23.0277 32.987 23.0292 33.0555 23.0244 33.1228C23.0149 33.2569 22.9804 33.3964 22.874 33.5007C22.7419 33.6302 22.5754 33.6659 22.4346 33.6169C22.2935 33.5678 22.1885 33.4374 22.1738 33.2566C22.1592 33.075 22.1678 32.885 22.168 32.7097V28.7332C21.3322 28.5671 20.6686 28.2035 20.1826 27.6716C19.6987 27.1417 19.3947 26.4499 19.2676 25.6355C17.9411 25.8233 16.8671 26.4365 16.0352 27.5193C14.9898 28.8797 15.0445 30.0526 15.0459 31.6843C15.0464 32.2609 15.048 32.7166 15.0869 33.0779C15.1258 33.4392 15.2015 33.697 15.3438 33.8826C15.4848 34.0664 15.6978 34.1879 16.0293 34.2625C16.3512 34.3348 16.7794 34.3611 17.3506 34.3611V31.9558L17.3486 31.074C17.3484 31.0295 17.3465 30.9829 17.3447 30.9343C17.343 30.8859 17.3414 30.8352 17.3408 30.7849C17.3396 30.6848 17.3437 30.5812 17.3652 30.4851C17.4387 30.159 17.8525 30.0727 18.0605 30.3171C18.1231 30.3907 18.1566 30.5099 18.1758 30.6384C18.1954 30.7699 18.2023 30.9239 18.2021 31.0779C18.202 31.2323 18.1949 31.3891 18.1885 31.5261C18.182 31.6642 18.1758 31.7807 18.1758 31.8582V34.3621H26.9863V30.8718C26.9864 30.8246 26.9835 30.7721 26.9814 30.7136C26.9794 30.6563 26.9785 30.5948 26.9824 30.5339C26.9902 30.4138 27.0186 30.2845 27.1123 30.1931C27.2493 30.06 27.4153 30.0346 27.5537 30.0935C27.6899 30.1516 27.7918 30.288 27.8125 30.4587C27.855 30.8103 27.8246 31.2008 27.8242 31.5437L27.8223 33.4666C27.8221 33.7669 27.8114 34.066 27.8223 34.3611C28.4335 34.3634 29.0037 34.3591 29.4277 34.1697C29.6437 34.0732 29.8207 33.9295 29.9443 33.7136C30.0684 33.4969 30.1418 33.2031 30.1436 32.8035L30.1406 31.3064L30.1416 30.5642C30.1378 30.3184 30.1252 30.0743 30.0908 29.8318C29.7978 27.7659 28.0399 25.8008 25.9033 25.6335ZM24.6641 25.2009C24.1246 25.6893 23.5824 26.1889 23.0195 26.6541V27.8787C23.1305 27.8514 23.2393 27.8274 23.3457 27.7947C24.3396 27.3858 25.024 26.5142 25.0771 25.4373C25.005 25.4 24.9303 25.3545 24.8613 25.3113C24.7905 25.2669 24.7243 25.228 24.6641 25.2009ZM20.5234 25.2068C20.3848 25.3228 20.246 25.4116 20.082 25.489C20.2024 26.5785 20.8702 27.4221 21.8857 27.7937H21.8848C21.9802 27.8219 22.0745 27.8498 22.1689 27.8767V26.6501C21.9948 26.4504 21.6909 26.1752 21.3721 25.9041C21.0631 25.6413 20.7436 25.3847 20.5234 25.2068ZM24.1172 24.4031C23.5696 24.6396 23.0782 24.7772 22.5879 24.7859C22.0971 24.7945 21.6128 24.6729 21.0791 24.405L21.0352 24.5388C21.5664 24.9758 22.1189 25.4244 22.6191 25.9031L23.6074 25.0193C23.7862 24.8514 23.9709 24.6945 24.1582 24.5388C24.1447 24.4924 24.1308 24.4477 24.1172 24.4031ZM18.5752 17.3816C18.5226 19.2038 19.0793 21.419 20.2959 22.7458C21.2166 23.7499 22.1868 24.0705 23.0898 23.8806C23.9968 23.6897 24.8525 22.9803 25.5332 21.8914C26.3164 20.5314 26.5821 18.9949 26.5771 17.4353C23.9699 18.6499 21.1731 18.8952 18.5752 17.3816ZM17.7441 17.6951C17.5894 17.917 17.5086 18.1139 17.498 18.3093C17.4858 18.5374 17.5669 18.773 17.7549 19.0505L17.8555 19.1355C17.8426 18.9509 17.822 18.6446 17.7998 18.3494C17.7849 18.1515 17.77 17.9589 17.7568 17.8113C17.753 17.7683 17.7476 17.7292 17.7441 17.6951ZM27.3623 18.4529C27.3448 18.6797 27.3297 18.9058 27.3203 19.1306C27.3494 19.1043 27.3793 19.0795 27.4062 19.0515C27.5462 18.8709 27.6422 18.5901 27.6426 18.3201C27.6429 18.0867 27.5717 17.8727 27.4102 17.7351C27.3977 17.9747 27.3807 18.2146 27.3623 18.4529ZM18.7041 16.4431C18.7645 16.504 18.8404 16.5594 18.9238 16.6101C19.0359 16.6782 19.1568 16.7348 19.2637 16.7869C21.3505 17.8042 23.6968 17.7944 25.8271 16.8708C25.8966 16.8287 25.9667 16.7897 26.0352 16.7517C26.1051 16.7128 26.1733 16.6749 26.2393 16.6345C26.3324 16.5774 26.42 16.5159 26.499 16.4421H18.7178L18.7041 16.4431ZM22.252 11.2947H22.2334L22.2344 11.2957C21.627 11.3464 20.8582 11.4485 20.1396 11.6599C19.4197 11.8717 18.7581 12.1907 18.3555 12.6687C18.0882 12.986 17.9406 13.4293 17.8701 13.9031C17.7998 14.376 17.8075 14.8737 17.8467 15.2947C17.8584 15.4209 17.8856 15.4878 17.9268 15.5271C17.9682 15.5666 18.0355 15.5892 18.1562 15.5974C18.6727 15.6328 19.243 15.6026 19.7725 15.6023L22.959 15.6013L25.6992 15.6023C25.8898 15.6023 26.0927 15.6211 26.2842 15.6355C26.4778 15.65 26.6607 15.6596 26.8174 15.6423C26.9741 15.625 27.0964 15.582 27.1787 15.4988C27.2598 15.4167 27.3117 15.2859 27.3057 15.072C27.2921 14.5886 27.3246 14.1333 27.2646 13.699C27.2055 13.2706 27.0567 12.8742 26.6836 12.5232C26.2034 12.0715 25.4249 11.75 24.5967 11.5486C23.8731 11.3726 23.118 11.2899 22.5049 11.2898L22.252 11.2947Z" fill="#E11B22" stroke="#E11B22" stroke-width="0.12"/>
</svg>
