<svg width="252" height="44" viewBox="0 0 252 44" fill="none" xmlns="http://www.w3.org/2000/svg">
<g clip-path="url(#clip0_11881_80117)">
<rect width="252" height="44" fill="url(#paint0_linear_11881_80117)"/>
<circle cx="251" cy="40" r="66" fill="url(#paint1_linear_11881_80117)"/>
<circle opacity="0.3" cx="202.615" cy="64.615" r="38.1597" transform="rotate(-6.11847 202.615 64.615)" stroke="url(#paint2_linear_11881_80117)" stroke-width="12"/>
<path opacity="0.5" d="M5.91087 32.6639C9.42844 32.5305 11.5586 34.8227 10.6377 37.7495C9.71661 40.6761 6.13187 43.1479 2.61444 43.2812C0.867481 43.3104 -0.53375 42.8068 -1.39929 41.8757C-2.2646 40.9446 -2.52771 39.6572 -2.11239 38.1956C-1.19134 35.269 2.39344 32.7973 5.91087 32.6639ZM10.6039 18.0273C24.2423 17.7327 31.4664 25.5046 28.181 36.9369C27.5294 39.149 24.8875 41.0286 22.2151 41.167C20.9292 41.2898 19.8084 40.8875 19.1426 40.1716C18.5101 39.4911 18.3098 38.5715 18.6071 37.4851C20.67 30.3626 16.4749 25.85 7.92044 25.989C5.27152 26.0524 3.76313 24.3297 4.50483 22.1142C5.2466 19.8987 7.95504 18.0906 10.6039 18.0273ZM29.9322 3.76019C40.9083 6.82903 47.5661 13.9919 48.6077 23.8514C49.0366 27.7278 48.6164 31.8962 47.2803 36.2845C46.6288 38.4965 43.9543 40.3405 41.2819 40.479C40.0192 40.5269 38.9312 40.1606 38.2654 39.4444C37.633 38.7639 37.3986 37.809 37.7291 36.7584C38.7821 33.2705 39.1228 29.9209 38.7949 26.8561C37.9468 19.2138 32.8535 13.7342 24.4136 11.3848C21.0131 10.4386 17.1767 10.0274 12.9614 10.1131C10.3459 10.2123 8.74821 8.49413 9.48953 6.2788C10.2312 4.06339 12.9387 2.25479 15.5542 2.15541C20.8186 1.99287 25.6339 2.55143 29.9322 3.76019Z" fill="url(#paint3_linear_11881_80117)" fill-opacity="0.7"/>
</g>
<defs>
<linearGradient id="paint0_linear_11881_80117" x1="11.8125" y1="4.73684" x2="242.742" y2="8.82691" gradientUnits="userSpaceOnUse">
<stop stop-color="#E11B22"/>
<stop offset="1" stop-color="#FF343C"/>
</linearGradient>
<linearGradient id="paint1_linear_11881_80117" x1="251" y1="-26" x2="251" y2="40" gradientUnits="userSpaceOnUse">
<stop stop-color="#FD989C"/>
<stop offset="1" stop-color="#FA3138" stop-opacity="0"/>
</linearGradient>
<linearGradient id="paint2_linear_11881_80117" x1="202.615" y1="20.4553" x2="202.615" y2="80.8844" gradientUnits="userSpaceOnUse">
<stop stop-color="#FD989C"/>
<stop offset="1" stop-color="#FA3138" stop-opacity="0"/>
</linearGradient>
<linearGradient id="paint3_linear_11881_80117" x1="41.9273" y1="-2.91632" x2="1.39293" y2="55.334" gradientUnits="userSpaceOnUse">
<stop stop-color="#FD989C"/>
<stop offset="1" stop-color="#FA3138" stop-opacity="0"/>
</linearGradient>
<clipPath id="clip0_11881_80117">
<rect width="252" height="44" fill="white"/>
</clipPath>
</defs>
</svg>
