<svg width="46" height="46" viewBox="0 0 46 46" fill="none" xmlns="http://www.w3.org/2000/svg">
<rect width="46" height="46" rx="23" fill="#E11B22" fill-opacity="0.1"/>
<mask id="path-2-outside-1_9218_34051" maskUnits="userSpaceOnUse" x="9.50098" y="13.2507" width="27" height="19" fill="black">
<rect fill="white" x="9.50098" y="13.2507" width="27" height="19"/>
<path d="M13.0719 29.2943H21.7246C22.0063 29.2943 22.2348 29.0665 22.2348 28.7855C22.2348 26.8084 21.0639 26.2988 19.7081 25.7087C19.4213 25.5839 19.1253 25.4551 18.8109 25.303V24.9178C19.1526 24.6368 19.3837 24.306 19.4853 23.9492C19.5382 23.7623 19.6236 23.6006 19.7458 23.4564C20.2034 23.1116 20.2034 22.646 20.2034 22.3337C20.2034 21.8264 20.0393 21.6104 19.882 21.4512C19.8827 20.8387 19.6624 20.2944 19.2447 19.8767C18.7824 19.4144 18.0922 19.1384 17.3983 19.1384C16.7044 19.1384 16.014 19.4144 15.5517 19.8768C15.1341 20.2944 14.9138 20.8387 14.9145 21.4512C14.7572 21.6104 14.5932 21.8264 14.5932 22.3337C14.5932 22.646 14.5932 23.1116 15.0507 23.4564C15.1729 23.6006 15.2583 23.7623 15.3114 23.9498C15.4128 24.3061 15.6439 24.6367 15.9856 24.9177L15.9855 25.3031C15.6712 25.455 15.3752 25.5839 15.0884 25.7087C13.7327 26.2988 12.5617 26.8083 12.5617 28.7855C12.5617 29.0665 12.7902 29.2943 13.0719 29.2943ZM15.4965 26.6413C15.7949 26.5115 16.1331 26.3643 16.4873 26.1912C16.8072 26.0349 17.006 25.7056 17.006 25.3319V24.663C17.006 24.4937 16.9216 24.3354 16.7807 24.2409C16.5969 24.1176 16.3632 23.9188 16.2932 23.6728C16.1931 23.3194 16.0182 23.0039 15.7732 22.7351C15.7459 22.705 15.715 22.6784 15.6812 22.6556C15.6238 22.617 15.6135 22.61 15.6135 22.3337C15.6135 22.2419 15.6225 22.1966 15.6268 22.18C15.6326 22.174 15.6405 22.1662 15.6468 22.1598C15.797 22.0096 15.9359 21.82 15.9349 21.4529C15.9339 21.1101 16.0481 20.8215 16.2743 20.5952C16.5453 20.3243 16.976 20.1559 17.3983 20.1559C17.8206 20.1559 18.2512 20.3243 18.5222 20.5952C18.7484 20.8214 18.8627 21.11 18.8616 21.4529C18.8606 21.82 18.9994 22.0096 19.1497 22.1597C19.156 22.1661 19.1639 22.174 19.1697 22.18C19.174 22.1965 19.183 22.2419 19.183 22.3337C19.183 22.6099 19.1727 22.6169 19.1153 22.6556C19.0816 22.6783 19.0507 22.705 19.0233 22.735C18.7782 23.004 18.6033 23.3195 18.5035 23.672C18.4333 23.9188 18.1995 24.1176 18.0158 24.2408C17.875 24.3354 17.7905 24.4936 17.7905 24.6629V25.3318C17.7905 25.7056 17.9893 26.0349 18.3092 26.1911C18.6635 26.3643 19.0016 26.5114 19.3 26.6413C20.4237 27.1303 21.0252 27.392 21.1762 28.2768H13.6204C13.7713 27.392 14.3728 27.1304 15.4965 26.6413ZM35.501 22.7853V22.8234C35.501 23.1044 35.2725 23.3322 34.9908 23.3322C34.709 23.3322 34.4806 23.1044 34.4806 22.8234V22.7853C34.4806 22.5043 34.709 22.2765 34.9908 22.2765C35.2725 22.2765 35.501 22.5043 35.501 22.7853ZM33.5162 14.2507H14.9239C13.8294 14.2507 12.9391 15.1386 12.9391 16.23V16.6819H12.4858C11.3914 16.6819 10.501 17.5698 10.501 18.6612V29.7715C10.501 30.8628 11.3914 31.7507 12.4858 31.7507H31.0781C32.1725 31.7507 33.0629 30.8628 33.0629 29.7715V29.3195H33.5162C34.6106 29.3195 35.501 28.4316 35.501 27.3402V25.2892C35.501 25.0082 35.2725 24.7804 34.9908 24.7804C34.709 24.7804 34.4806 25.0082 34.4806 25.2892V27.3402C34.4806 27.8705 34.048 28.302 33.5162 28.302H33.0629V18.6612C33.0629 17.5699 32.1725 16.682 31.0781 16.682H13.9595V16.23C13.9595 15.6997 14.3921 15.2683 14.9239 15.2683H33.5162C34.048 15.2683 34.4806 15.6997 34.4806 16.23V20.3196C34.4806 20.6006 34.709 20.8284 34.9908 20.8284C35.2725 20.8284 35.501 20.6006 35.501 20.3196V16.23C35.501 15.1387 34.6106 14.2507 33.5162 14.2507ZM32.0425 18.6612V29.7715C32.0425 30.3018 31.6099 30.7332 31.0781 30.7332H12.4858C11.954 30.7332 11.5214 30.3018 11.5214 29.7715V18.6612C11.5214 18.1309 11.954 17.6995 12.4858 17.6995H31.0781C31.6099 17.6995 32.0425 18.1309 32.0425 18.6612ZM23.5527 22.6933C23.5527 22.4123 23.7811 22.1845 24.0629 22.1845H29.7003C29.982 22.1845 30.2105 22.4123 30.2105 22.6933C30.2105 22.9743 29.982 23.2021 29.7003 23.2021H24.0629C23.7811 23.2021 23.5527 22.9743 23.5527 22.6933ZM30.2105 28.7854C30.2105 29.0664 29.982 29.2942 29.7003 29.2942H28.322C28.0403 29.2942 27.8118 29.0664 27.8118 28.7854C27.8118 28.5045 28.0403 28.2767 28.322 28.2767H29.7003C29.982 28.2767 30.2105 28.5045 30.2105 28.7854ZM23.5527 25.7393C23.5527 25.4583 23.7811 25.2305 24.0629 25.2305H29.7003C29.982 25.2305 30.2105 25.4583 30.2105 25.7393C30.2105 26.0203 29.982 26.2481 29.7003 26.2481H24.0629C23.7811 26.2481 23.5527 26.0203 23.5527 25.7393ZM23.5527 19.6472C23.5527 19.3662 23.7811 19.1384 24.0629 19.1384H27.1566C27.4383 19.1384 27.6668 19.3662 27.6668 19.6472C27.6668 19.9281 27.4383 20.1559 27.1566 20.1559H24.0629C23.7811 20.1559 23.5527 19.9281 23.5527 19.6472Z"/>
</mask>
<path d="M13.0719 29.2943H21.7246C22.0063 29.2943 22.2348 29.0665 22.2348 28.7855C22.2348 26.8084 21.0639 26.2988 19.7081 25.7087C19.4213 25.5839 19.1253 25.4551 18.8109 25.303V24.9178C19.1526 24.6368 19.3837 24.306 19.4853 23.9492C19.5382 23.7623 19.6236 23.6006 19.7458 23.4564C20.2034 23.1116 20.2034 22.646 20.2034 22.3337C20.2034 21.8264 20.0393 21.6104 19.882 21.4512C19.8827 20.8387 19.6624 20.2944 19.2447 19.8767C18.7824 19.4144 18.0922 19.1384 17.3983 19.1384C16.7044 19.1384 16.014 19.4144 15.5517 19.8768C15.1341 20.2944 14.9138 20.8387 14.9145 21.4512C14.7572 21.6104 14.5932 21.8264 14.5932 22.3337C14.5932 22.646 14.5932 23.1116 15.0507 23.4564C15.1729 23.6006 15.2583 23.7623 15.3114 23.9498C15.4128 24.3061 15.6439 24.6367 15.9856 24.9177L15.9855 25.3031C15.6712 25.455 15.3752 25.5839 15.0884 25.7087C13.7327 26.2988 12.5617 26.8083 12.5617 28.7855C12.5617 29.0665 12.7902 29.2943 13.0719 29.2943ZM15.4965 26.6413C15.7949 26.5115 16.1331 26.3643 16.4873 26.1912C16.8072 26.0349 17.006 25.7056 17.006 25.3319V24.663C17.006 24.4937 16.9216 24.3354 16.7807 24.2409C16.5969 24.1176 16.3632 23.9188 16.2932 23.6728C16.1931 23.3194 16.0182 23.0039 15.7732 22.7351C15.7459 22.705 15.715 22.6784 15.6812 22.6556C15.6238 22.617 15.6135 22.61 15.6135 22.3337C15.6135 22.2419 15.6225 22.1966 15.6268 22.18C15.6326 22.174 15.6405 22.1662 15.6468 22.1598C15.797 22.0096 15.9359 21.82 15.9349 21.4529C15.9339 21.1101 16.0481 20.8215 16.2743 20.5952C16.5453 20.3243 16.976 20.1559 17.3983 20.1559C17.8206 20.1559 18.2512 20.3243 18.5222 20.5952C18.7484 20.8214 18.8627 21.11 18.8616 21.4529C18.8606 21.82 18.9994 22.0096 19.1497 22.1597C19.156 22.1661 19.1639 22.174 19.1697 22.18C19.174 22.1965 19.183 22.2419 19.183 22.3337C19.183 22.6099 19.1727 22.6169 19.1153 22.6556C19.0816 22.6783 19.0507 22.705 19.0233 22.735C18.7782 23.004 18.6033 23.3195 18.5035 23.672C18.4333 23.9188 18.1995 24.1176 18.0158 24.2408C17.875 24.3354 17.7905 24.4936 17.7905 24.6629V25.3318C17.7905 25.7056 17.9893 26.0349 18.3092 26.1911C18.6635 26.3643 19.0016 26.5114 19.3 26.6413C20.4237 27.1303 21.0252 27.392 21.1762 28.2768H13.6204C13.7713 27.392 14.3728 27.1304 15.4965 26.6413ZM35.501 22.7853V22.8234C35.501 23.1044 35.2725 23.3322 34.9908 23.3322C34.709 23.3322 34.4806 23.1044 34.4806 22.8234V22.7853C34.4806 22.5043 34.709 22.2765 34.9908 22.2765C35.2725 22.2765 35.501 22.5043 35.501 22.7853ZM33.5162 14.2507H14.9239C13.8294 14.2507 12.9391 15.1386 12.9391 16.23V16.6819H12.4858C11.3914 16.6819 10.501 17.5698 10.501 18.6612V29.7715C10.501 30.8628 11.3914 31.7507 12.4858 31.7507H31.0781C32.1725 31.7507 33.0629 30.8628 33.0629 29.7715V29.3195H33.5162C34.6106 29.3195 35.501 28.4316 35.501 27.3402V25.2892C35.501 25.0082 35.2725 24.7804 34.9908 24.7804C34.709 24.7804 34.4806 25.0082 34.4806 25.2892V27.3402C34.4806 27.8705 34.048 28.302 33.5162 28.302H33.0629V18.6612C33.0629 17.5699 32.1725 16.682 31.0781 16.682H13.9595V16.23C13.9595 15.6997 14.3921 15.2683 14.9239 15.2683H33.5162C34.048 15.2683 34.4806 15.6997 34.4806 16.23V20.3196C34.4806 20.6006 34.709 20.8284 34.9908 20.8284C35.2725 20.8284 35.501 20.6006 35.501 20.3196V16.23C35.501 15.1387 34.6106 14.2507 33.5162 14.2507ZM32.0425 18.6612V29.7715C32.0425 30.3018 31.6099 30.7332 31.0781 30.7332H12.4858C11.954 30.7332 11.5214 30.3018 11.5214 29.7715V18.6612C11.5214 18.1309 11.954 17.6995 12.4858 17.6995H31.0781C31.6099 17.6995 32.0425 18.1309 32.0425 18.6612ZM23.5527 22.6933C23.5527 22.4123 23.7811 22.1845 24.0629 22.1845H29.7003C29.982 22.1845 30.2105 22.4123 30.2105 22.6933C30.2105 22.9743 29.982 23.2021 29.7003 23.2021H24.0629C23.7811 23.2021 23.5527 22.9743 23.5527 22.6933ZM30.2105 28.7854C30.2105 29.0664 29.982 29.2942 29.7003 29.2942H28.322C28.0403 29.2942 27.8118 29.0664 27.8118 28.7854C27.8118 28.5045 28.0403 28.2767 28.322 28.2767H29.7003C29.982 28.2767 30.2105 28.5045 30.2105 28.7854ZM23.5527 25.7393C23.5527 25.4583 23.7811 25.2305 24.0629 25.2305H29.7003C29.982 25.2305 30.2105 25.4583 30.2105 25.7393C30.2105 26.0203 29.982 26.2481 29.7003 26.2481H24.0629C23.7811 26.2481 23.5527 26.0203 23.5527 25.7393ZM23.5527 19.6472C23.5527 19.3662 23.7811 19.1384 24.0629 19.1384H27.1566C27.4383 19.1384 27.6668 19.3662 27.6668 19.6472C27.6668 19.9281 27.4383 20.1559 27.1566 20.1559H24.0629C23.7811 20.1559 23.5527 19.9281 23.5527 19.6472Z" fill="#E11B22"/>
<path d="M13.0719 29.2943H21.7246C22.0063 29.2943 22.2348 29.0665 22.2348 28.7855C22.2348 26.8084 21.0639 26.2988 19.7081 25.7087C19.4213 25.5839 19.1253 25.4551 18.8109 25.303V24.9178C19.1526 24.6368 19.3837 24.306 19.4853 23.9492C19.5382 23.7623 19.6236 23.6006 19.7458 23.4564C20.2034 23.1116 20.2034 22.646 20.2034 22.3337C20.2034 21.8264 20.0393 21.6104 19.882 21.4512C19.8827 20.8387 19.6624 20.2944 19.2447 19.8767C18.7824 19.4144 18.0922 19.1384 17.3983 19.1384C16.7044 19.1384 16.014 19.4144 15.5517 19.8768C15.1341 20.2944 14.9138 20.8387 14.9145 21.4512C14.7572 21.6104 14.5932 21.8264 14.5932 22.3337C14.5932 22.646 14.5932 23.1116 15.0507 23.4564C15.1729 23.6006 15.2583 23.7623 15.3114 23.9498C15.4128 24.3061 15.6439 24.6367 15.9856 24.9177L15.9855 25.3031C15.6712 25.455 15.3752 25.5839 15.0884 25.7087C13.7327 26.2988 12.5617 26.8083 12.5617 28.7855C12.5617 29.0665 12.7902 29.2943 13.0719 29.2943ZM15.4965 26.6413C15.7949 26.5115 16.1331 26.3643 16.4873 26.1912C16.8072 26.0349 17.006 25.7056 17.006 25.3319V24.663C17.006 24.4937 16.9216 24.3354 16.7807 24.2409C16.5969 24.1176 16.3632 23.9188 16.2932 23.6728C16.1931 23.3194 16.0182 23.0039 15.7732 22.7351C15.7459 22.705 15.715 22.6784 15.6812 22.6556C15.6238 22.617 15.6135 22.61 15.6135 22.3337C15.6135 22.2419 15.6225 22.1966 15.6268 22.18C15.6326 22.174 15.6405 22.1662 15.6468 22.1598C15.797 22.0096 15.9359 21.82 15.9349 21.4529C15.9339 21.1101 16.0481 20.8215 16.2743 20.5952C16.5453 20.3243 16.976 20.1559 17.3983 20.1559C17.8206 20.1559 18.2512 20.3243 18.5222 20.5952C18.7484 20.8214 18.8627 21.11 18.8616 21.4529C18.8606 21.82 18.9994 22.0096 19.1497 22.1597C19.156 22.1661 19.1639 22.174 19.1697 22.18C19.174 22.1965 19.183 22.2419 19.183 22.3337C19.183 22.6099 19.1727 22.6169 19.1153 22.6556C19.0816 22.6783 19.0507 22.705 19.0233 22.735C18.7782 23.004 18.6033 23.3195 18.5035 23.672C18.4333 23.9188 18.1995 24.1176 18.0158 24.2408C17.875 24.3354 17.7905 24.4936 17.7905 24.6629V25.3318C17.7905 25.7056 17.9893 26.0349 18.3092 26.1911C18.6635 26.3643 19.0016 26.5114 19.3 26.6413C20.4237 27.1303 21.0252 27.392 21.1762 28.2768H13.6204C13.7713 27.392 14.3728 27.1304 15.4965 26.6413ZM35.501 22.7853V22.8234C35.501 23.1044 35.2725 23.3322 34.9908 23.3322C34.709 23.3322 34.4806 23.1044 34.4806 22.8234V22.7853C34.4806 22.5043 34.709 22.2765 34.9908 22.2765C35.2725 22.2765 35.501 22.5043 35.501 22.7853ZM33.5162 14.2507H14.9239C13.8294 14.2507 12.9391 15.1386 12.9391 16.23V16.6819H12.4858C11.3914 16.6819 10.501 17.5698 10.501 18.6612V29.7715C10.501 30.8628 11.3914 31.7507 12.4858 31.7507H31.0781C32.1725 31.7507 33.0629 30.8628 33.0629 29.7715V29.3195H33.5162C34.6106 29.3195 35.501 28.4316 35.501 27.3402V25.2892C35.501 25.0082 35.2725 24.7804 34.9908 24.7804C34.709 24.7804 34.4806 25.0082 34.4806 25.2892V27.3402C34.4806 27.8705 34.048 28.302 33.5162 28.302H33.0629V18.6612C33.0629 17.5699 32.1725 16.682 31.0781 16.682H13.9595V16.23C13.9595 15.6997 14.3921 15.2683 14.9239 15.2683H33.5162C34.048 15.2683 34.4806 15.6997 34.4806 16.23V20.3196C34.4806 20.6006 34.709 20.8284 34.9908 20.8284C35.2725 20.8284 35.501 20.6006 35.501 20.3196V16.23C35.501 15.1387 34.6106 14.2507 33.5162 14.2507ZM32.0425 18.6612V29.7715C32.0425 30.3018 31.6099 30.7332 31.0781 30.7332H12.4858C11.954 30.7332 11.5214 30.3018 11.5214 29.7715V18.6612C11.5214 18.1309 11.954 17.6995 12.4858 17.6995H31.0781C31.6099 17.6995 32.0425 18.1309 32.0425 18.6612ZM23.5527 22.6933C23.5527 22.4123 23.7811 22.1845 24.0629 22.1845H29.7003C29.982 22.1845 30.2105 22.4123 30.2105 22.6933C30.2105 22.9743 29.982 23.2021 29.7003 23.2021H24.0629C23.7811 23.2021 23.5527 22.9743 23.5527 22.6933ZM30.2105 28.7854C30.2105 29.0664 29.982 29.2942 29.7003 29.2942H28.322C28.0403 29.2942 27.8118 29.0664 27.8118 28.7854C27.8118 28.5045 28.0403 28.2767 28.322 28.2767H29.7003C29.982 28.2767 30.2105 28.5045 30.2105 28.7854ZM23.5527 25.7393C23.5527 25.4583 23.7811 25.2305 24.0629 25.2305H29.7003C29.982 25.2305 30.2105 25.4583 30.2105 25.7393C30.2105 26.0203 29.982 26.2481 29.7003 26.2481H24.0629C23.7811 26.2481 23.5527 26.0203 23.5527 25.7393ZM23.5527 19.6472C23.5527 19.3662 23.7811 19.1384 24.0629 19.1384H27.1566C27.4383 19.1384 27.6668 19.3662 27.6668 19.6472C27.6668 19.9281 27.4383 20.1559 27.1566 20.1559H24.0629C23.7811 20.1559 23.5527 19.9281 23.5527 19.6472Z" stroke="#E11B22" stroke-width="0.24" mask="url(#path-2-outside-1_9218_34051)"/>
</svg>
