<svg width="54" height="54" viewBox="0 0 54 54" fill="none" xmlns="http://www.w3.org/2000/svg">
<rect width="54" height="54" rx="16" fill="url(#paint0_linear_11838_24420)"/>
<path opacity="0.4" d="M36.8002 18.5467L28.4135 14.0267C27.5335 13.5467 26.4669 13.5467 25.5735 14.0267L17.1869 18.5467C16.5736 18.88 16.2002 19.5334 16.2002 20.2534C16.2002 20.9734 16.5736 21.6267 17.1869 21.96L25.5735 26.48C26.0135 26.72 26.5069 26.8401 26.9869 26.8401C27.4802 26.8401 27.9602 26.72 28.4002 26.48L36.7869 21.96C37.4002 21.6267 37.7735 20.9734 37.7735 20.2534C37.7869 19.5334 37.4135 18.88 36.8002 18.5467Z" fill="url(#paint1_linear_11838_24420)"/>
<path opacity="0.4" d="M24.2003 28.0534L16.4003 24.1468C15.8003 23.8401 15.1069 23.8801 14.5336 24.2268C13.9603 24.5734 13.627 25.1868 13.627 25.8535V33.2268C13.627 34.5068 14.3336 35.6534 15.4803 36.2268L23.2803 40.1201C23.5469 40.2535 23.8403 40.3201 24.1336 40.3201C24.4803 40.3201 24.827 40.2268 25.1336 40.0268C25.707 39.6801 26.0403 39.0668 26.0403 38.4001V31.0268C26.0536 29.7735 25.3469 28.6268 24.2003 28.0534Z" fill="url(#paint2_linear_11838_24420)"/>
<path opacity="0.4" d="M40.373 25.8668V31.9867C40.3596 31.9734 40.3463 31.9468 40.333 31.9334C40.333 31.9201 40.3196 31.9067 40.3063 31.8934C40.253 31.8134 40.1863 31.7334 40.1196 31.6668C40.1063 31.6534 40.093 31.6268 40.0796 31.6135C38.9996 30.4135 37.413 29.6668 35.6663 29.6668C33.9863 29.6668 32.453 30.3601 31.3596 31.4801C30.3063 32.5601 29.6663 34.0401 29.6663 35.6668C29.6663 36.7868 29.9863 37.8534 30.533 38.7601C30.7596 39.1468 31.0396 39.4934 31.3463 39.8134L30.7196 40.1334C30.453 40.2667 30.1596 40.3334 29.8663 40.3334C29.5196 40.3334 29.173 40.2401 28.853 40.0401C28.293 39.6935 27.9463 39.0801 27.9463 38.4134V31.0534C27.9463 29.7734 28.653 28.6267 29.7996 28.0534L37.5997 24.1601C38.1997 23.8534 38.893 23.8801 39.4663 24.2401C40.0263 24.5868 40.373 25.2001 40.373 25.8668Z" fill="url(#paint3_linear_11838_24420)"/>
<path d="M40.307 31.8668C39.2137 30.5201 37.547 29.6667 35.667 29.6667C34.2537 29.6667 32.947 30.1601 31.9203 30.9867C30.5337 32.0801 29.667 33.7734 29.667 35.6667C29.667 37.5467 30.5203 39.2134 31.867 40.3067C32.8937 41.1601 34.227 41.6667 35.667 41.6667C37.187 41.6667 38.5603 41.0934 39.627 40.1734C40.867 39.0668 41.667 37.4667 41.667 35.6667C41.667 34.2267 41.1603 32.8934 40.307 31.8668ZM37.0403 36.0401C37.0403 36.3868 36.8537 36.7201 36.5603 36.8934L34.6803 38.0134C34.5203 38.1068 34.347 38.1601 34.1603 38.1601C33.827 38.1601 33.4937 37.9868 33.307 37.6801C33.027 37.2001 33.1736 36.5867 33.6536 36.3067L35.0403 35.4801V33.8C35.0403 33.2534 35.4937 32.8 36.0403 32.8C36.587 32.8 37.0403 33.2534 37.0403 33.8V36.0401Z" fill="url(#paint4_linear_11838_24420)"/>
<defs>
<linearGradient id="paint0_linear_11838_24420" x1="27" y1="0" x2="27" y2="54" gradientUnits="userSpaceOnUse">
<stop stop-color="#FFF4F4"/>
<stop offset="1" stop-color="#FDEDEE"/>
</linearGradient>
<linearGradient id="paint1_linear_11838_24420" x1="17.2115" y1="15.0849" x2="36.987" y2="15.1851" gradientUnits="userSpaceOnUse">
<stop stop-color="#E11B22"/>
<stop offset="1" stop-color="#FF343C"/>
</linearGradient>
<linearGradient id="paint2_linear_11838_24420" x1="14.2088" y1="25.7031" x2="25.5879" y2="25.7298" gradientUnits="userSpaceOnUse">
<stop stop-color="#E11B22"/>
<stop offset="1" stop-color="#FF343C"/>
</linearGradient>
<linearGradient id="paint3_linear_11838_24420" x1="28.5288" y1="25.7124" x2="39.9199" y2="25.7391" gradientUnits="userSpaceOnUse">
<stop stop-color="#E11B22"/>
<stop offset="1" stop-color="#FF343C"/>
</linearGradient>
<linearGradient id="paint4_linear_11838_24420" x1="30.2295" y1="30.9586" x2="41.2295" y2="30.9926" gradientUnits="userSpaceOnUse">
<stop stop-color="#E11B22"/>
<stop offset="1" stop-color="#FF343C"/>
</linearGradient>
</defs>
</svg>
