<svg width="24" height="24" viewBox="0 0 24 24" fill="none" xmlns="http://www.w3.org/2000/svg">
<path d="M20.0903 11.999C20.0903 16.4675 16.4679 20.0898 11.9995 20.0898C11.3306 20.0898 10.6807 20.0085 10.0589 19.8556C7.40942 18.6934 5.55859 16.047 5.55859 12.9682C5.55859 8.81669 8.92439 5.45117 13.0759 5.45117C15.8758 5.45117 18.3185 6.98223 19.6119 9.25272C19.9215 10.1101 20.0903 11.035 20.0903 11.999Z" fill="#FEBC1F"/>
<path d="M19.6133 9.25365C18.3199 6.98316 15.8773 5.4521 13.0773 5.4521C8.92583 5.4521 5.56003 8.81761 5.56003 12.9691C5.56003 16.0479 7.41086 18.6943 10.0604 19.8565C6.52919 18.9872 3.91016 15.7995 3.91016 12C3.91016 7.53152 7.53249 3.90918 12.0009 3.90918C15.5053 3.90918 18.4893 6.13705 19.6133 9.25365Z" fill="#FFD06C"/>
<path d="M11.9999 17.3201C14.9381 17.3201 17.3201 14.9381 17.3201 11.9999C17.3201 9.06162 14.9381 6.67969 11.9999 6.67969C9.06162 6.67969 6.67969 9.06162 6.67969 11.9999C6.67969 14.9381 9.06162 17.3201 11.9999 17.3201Z" fill="#FFD06C"/>
<path d="M12 6.15332C8.77164 6.15332 6.1543 8.77038 6.1543 11.999C6.1543 15.2277 8.77135 17.8447 12 17.8447C15.2286 17.8447 17.8457 15.2277 17.8457 11.999C17.8457 8.77038 15.2286 6.15332 12 6.15332ZM12 17.3192C9.06176 17.3192 6.6798 14.9372 6.6798 11.999C6.6798 9.06079 9.06176 6.67882 12 6.67882C14.9382 6.67882 17.3202 9.06079 17.3202 11.999C17.3202 14.9372 14.9382 17.3192 12 17.3192Z" fill="#F9A83D"/>
<path d="M14.1726 12.609C14.128 12.6651 14.1048 12.7357 14.1082 12.8074L14.1875 14.6023C14.1971 14.8154 13.9857 14.9689 13.7862 14.8941L12.1036 14.2639C12.0364 14.2385 11.9622 14.2385 11.895 14.2639L10.2124 14.8941C10.1523 14.9167 10.091 14.9184 10.0352 14.9043L13.342 10.2256C13.3623 10.2372 13.3843 10.2462 13.4069 10.2524L15.1386 10.7316C15.3441 10.7883 15.4248 11.0367 15.2918 11.2035L14.1726 12.609Z" fill="#F9A83D"/>
<path d="M13.3449 10.226L10.038 14.9047C9.90822 14.8714 9.80719 14.7517 9.81368 14.6027L9.89327 12.8077C9.89637 12.7361 9.87351 12.6655 9.82864 12.6093L8.70934 11.2039C8.57669 11.0371 8.65741 10.7887 8.86287 10.732L10.5943 10.2528C10.6637 10.2339 10.7236 10.1901 10.7634 10.1303L11.754 8.6314C11.8717 8.4536 12.1327 8.4536 12.2504 8.6314L13.241 10.1303C13.2675 10.1704 13.3031 10.2034 13.3449 10.226Z" fill="#FEBC1F"/>
<path d="M13.9319 7.67268V7.63881C13.9474 7.59197 13.9788 7.56487 14.0253 7.54625C14.5353 7.34361 14.892 6.98631 15.0955 6.4769C15.1125 6.43457 15.1345 6.40155 15.1782 6.38574H15.2324C15.2739 6.40211 15.2968 6.43316 15.3131 6.47464C15.5138 6.98095 15.8674 7.33684 16.3717 7.54173C16.4242 7.5629 16.4646 7.58886 16.4787 7.64587V7.65942C16.468 7.72122 16.4256 7.74775 16.3703 7.77005C15.8688 7.9741 15.5166 8.32829 15.3151 8.83093C15.2979 8.87411 15.2753 8.90769 15.2321 8.92604H15.1779C15.1359 8.90854 15.1125 8.87721 15.0955 8.8346C14.8937 8.32885 14.5398 7.97297 14.0352 7.76864C13.9864 7.74888 13.948 7.72461 13.9316 7.67296L13.9319 7.67268Z" fill="white"/>
</svg>
