<svg width="136" height="33" viewBox="0 0 136 33" fill="none" xmlns="http://www.w3.org/2000/svg">
<rect x="-207" width="343" height="176" rx="12" fill="url(#paint0_linear_12061_28060)"/>
<rect x="-207" width="343" height="176" rx="12" fill="url(#paint1_linear_12061_28060)"/>
<path d="M-3.35176 0C1.91097 0 6.5596 3.42905 8.11334 8.45719L13.0839 24.5428C14.6377 29.571 19.2863 33 24.549 33H124C130.627 33 136 38.3726 136 45V164C136 170.627 130.627 176 124 176H-195C-201.627 176 -207 170.627 -207 164V12C-207 5.37258 -201.627 0 -195 0H-3.35176Z" fill="white"/>
<defs>
<linearGradient id="paint0_linear_12061_28060" x1="-26.5" y1="36.9383" x2="136.034" y2="31.4144" gradientUnits="userSpaceOnUse">
<stop stop-color="#FBDFE0"/>
<stop offset="1" stop-color="#FEEDED"/>
</linearGradient>
<linearGradient id="paint1_linear_12061_28060" x1="-35.5" y1="0" x2="-35.5" y2="162" gradientUnits="userSpaceOnUse">
<stop stop-color="#FEF6F6"/>
<stop offset="1" stop-color="white"/>
</linearGradient>
</defs>
</svg>
