<svg width="36" height="36" viewBox="0 0 36 36" fill="none" xmlns="http://www.w3.org/2000/svg">
<g clip-path="url(#clip0_12434_28677)">
<path d="M18 36C27.9411 36 36 27.9411 36 18C36 8.05887 27.9411 0 18 0C8.05887 0 0 8.05887 0 18C0 27.9411 8.05887 36 18 36Z" fill="#D80027"/>
<path d="M9.85078 10.9551L11.4047 15.7363H16.432L12.368 18.6965L13.9219 23.4777L9.85078 20.5246L5.77969 23.4777L7.34063 18.6965L3.26953 15.7363H8.29688L9.85078 10.9551Z" fill="#FFDA44"/>
<path d="M21.3399 27.8791L20.1517 26.4166L18.3938 27.0986L19.4134 25.5166L18.2251 24.0471L20.0462 24.5322L21.0728 22.9502L21.1712 24.8346L22.9993 25.3197L21.2345 25.9947L21.3399 27.8791Z" fill="#FFDA44"/>
<path d="M23.7024 23.59L24.2649 21.79L22.7251 20.7002L24.6095 20.6721L25.1649 18.8721L25.7767 20.658L27.661 20.6369L26.1493 21.7619L26.754 23.5479L25.2142 22.458L23.7024 23.59Z" fill="#FFDA44"/>
<path d="M26.8874 13.2118L26.0577 14.9063L27.4077 16.2212L25.5444 15.954L24.7147 17.6415L24.3913 15.7853L22.521 15.5181L24.1944 14.6392L23.871 12.7759L25.221 14.0907L26.8874 13.2118Z" fill="#FFDA44"/>
<path d="M21.3893 8.0791L21.2486 9.95645L22.9994 10.6666L21.1643 11.1166L21.0307 13.001L20.0393 11.3979L18.2041 11.8479L19.4205 10.4064L18.4221 8.81035L20.1729 9.52051L21.3893 8.0791Z" fill="#FFDA44"/>
</g>
<defs>
<clipPath id="clip0_12434_28677">
<rect width="36" height="36" fill="white"/>
</clipPath>
</defs>
</svg>
