<svg width="16" height="16" viewBox="0 0 16 16" fill="none" xmlns="http://www.w3.org/2000/svg">
<path d="M7.99992 14.6666C11.6818 14.6666 14.6666 11.6818 14.6666 7.99992C14.6666 4.31802 11.6818 1.33325 7.99992 1.33325C4.31802 1.33325 1.33325 4.31802 1.33325 7.99992C1.33325 11.6818 4.31802 14.6666 7.99992 14.6666Z" stroke="#85888A" stroke-miterlimit="10" stroke-linecap="round" stroke-linejoin="round"/>
<path d="M6.59326 3.88672V5.22005" stroke="#85888A" stroke-miterlimit="10" stroke-linecap="round" stroke-linejoin="round"/>
<path d="M9.40649 3.88672V5.22005" stroke="#85888A" stroke-miterlimit="10" stroke-linecap="round" stroke-linejoin="round"/>
<path d="M5.02002 6.76001H10.98" stroke="#85888A" stroke-miterlimit="10" stroke-linecap="round" stroke-linejoin="round"/>
<path d="M8.99992 11.7801H6.99992C5.33325 11.7801 4.33325 10.5801 4.33325 9.11344V7.11344C4.33325 5.64678 5.33325 4.44678 6.99992 4.44678H8.99992C10.6666 4.44678 11.6666 5.64678 11.6666 7.11344V9.11344C11.6666 10.5801 10.6666 11.7801 8.99992 11.7801Z" stroke="#85888A" stroke-miterlimit="10" stroke-linecap="round" stroke-linejoin="round"/>
</svg>
