<svg width="32" height="32" viewBox="0 0 32 32" fill="none" xmlns="http://www.w3.org/2000/svg">
<path opacity="0.4" d="M23.9563 8.13269H8.04464C5.97066 8.13269 4.29004 9.81367 4.29004 11.8873V22.5412C4.29004 24.6148 5.97066 26.2958 8.04464 26.2958H10.9099V30.2026C10.9099 30.2272 10.9377 30.2416 10.9577 30.2272L16.8235 26.3387L18.2947 26.3113H22.4222L23.9563 26.2958C26.0299 26.2958 27.7109 24.6148 27.7109 22.5412V11.8873C27.7109 9.81367 26.0299 8.13269 23.9563 8.13269ZM10.3647 13.7767C10.3647 12.739 11.2059 11.8975 12.2439 11.8975C13.2816 11.8975 14.1228 12.739 14.1228 13.7767C14.1228 14.8148 13.2816 15.6559 12.2439 15.6559C11.2059 15.6559 10.3647 14.8148 10.3647 13.7767ZM15.9138 23.1673C13.5315 23.1673 11.5637 21.4979 11.2628 19.3357H20.5651C20.2639 21.4979 18.2964 23.1673 15.9138 23.1673ZM19.7805 15.6559C18.7428 15.6559 17.9013 14.8148 17.9013 13.7767C17.9013 12.739 18.7428 11.8975 19.7805 11.8975C20.8186 11.8975 21.6598 12.739 21.6598 13.7767C21.6598 14.8148 20.8186 15.6559 19.7805 15.6559Z" fill="url(#paint0_linear_13012_11000)"/>
<path d="M28.4863 20.6756V13.9503H29.4172C30.0988 13.9503 30.6513 14.5029 30.6513 15.1845V19.4418C30.6513 20.1234 30.0988 20.676 29.4172 20.676H28.4863V20.6756Z" fill="url(#paint1_linear_13012_11000)"/>
<path d="M1.34863 19.4418V15.1845C1.34863 14.5029 1.90122 13.9503 2.58282 13.9503H3.51365V20.676H2.58282C1.90122 20.6756 1.34863 20.123 1.34863 19.4418Z" fill="url(#paint2_linear_13012_11000)"/>
<path d="M17.7395 3.28004C17.7395 4.10365 17.1915 4.80142 16.441 5.02816V6.60614H15.3864V5.02816C14.6359 4.80142 14.0879 4.10365 14.0879 3.28004C14.0879 2.27363 14.9069 1.45459 15.9137 1.45459C16.9204 1.45459 17.7395 2.27363 17.7395 3.28004Z" fill="url(#paint3_linear_13012_11000)"/>
<defs>
<linearGradient id="paint0_linear_13012_11000" x1="5.38789" y1="10.5119" x2="26.8569" y2="10.5823" gradientUnits="userSpaceOnUse">
<stop stop-color="#E11B22"/>
<stop offset="1" stop-color="#FF343C"/>
</linearGradient>
<linearGradient id="paint1_linear_13012_11000" x1="28.5878" y1="14.6744" x2="30.5724" y2="14.6763" gradientUnits="userSpaceOnUse">
<stop stop-color="#E11B22"/>
<stop offset="1" stop-color="#FF343C"/>
</linearGradient>
<linearGradient id="paint2_linear_13012_11000" x1="1.45012" y1="14.6744" x2="3.43473" y2="14.6763" gradientUnits="userSpaceOnUse">
<stop stop-color="#E11B22"/>
<stop offset="1" stop-color="#FF343C"/>
</linearGradient>
<linearGradient id="paint3_linear_13012_11000" x1="14.2591" y1="2.00918" x2="17.6064" y2="2.01652" gradientUnits="userSpaceOnUse">
<stop stop-color="#E11B22"/>
<stop offset="1" stop-color="#FF343C"/>
</linearGradient>
</defs>
</svg>
