<svg width="36" height="36" viewBox="0 0 36 36" fill="none" xmlns="http://www.w3.org/2000/svg">
<rect width="36" height="36" rx="18" fill="#E1251B" fill-opacity="0.1"/>
<path opacity="0.4" d="M18 27.8999C23.5228 27.8999 28 23.4228 28 17.8999C28 12.3771 23.5228 7.8999 18 7.8999C12.4772 7.8999 8 12.3771 8 17.8999C8 23.4228 12.4772 27.8999 18 27.8999Z" fill="#E11B22"/>
<path d="M20.26 18L18.75 17.47V14.08H19.11C19.92 14.08 20.58 14.79 20.58 15.66C20.58 16.07 20.92 16.41 21.33 16.41C21.74 16.41 22.08 16.07 22.08 15.66C22.08 13.96 20.75 12.58 19.11 12.58H18.75V12C18.75 11.59 18.41 11.25 18 11.25C17.59 11.25 17.25 11.59 17.25 12V12.58H16.6C15.12 12.58 13.91 13.83 13.91 15.36C13.91 17.15 14.95 17.72 15.74 18L17.25 18.53V21.91H16.89C16.08 21.91 15.42 21.2 15.42 20.33C15.42 19.92 15.08 19.58 14.67 19.58C14.26 19.58 13.92 19.92 13.92 20.33C13.92 22.03 15.25 23.41 16.89 23.41H17.25V24C17.25 24.41 17.59 24.75 18 24.75C18.41 24.75 18.75 24.41 18.75 24V23.42H19.4C20.88 23.42 22.09 22.17 22.09 20.64C22.08 18.84 21.04 18.27 20.26 18ZM16.24 16.59C15.73 16.41 15.42 16.24 15.42 15.37C15.42 14.66 15.95 14.09 16.61 14.09H17.26V16.95L16.24 16.59ZM19.4 21.92H18.75V19.06L19.76 19.41C20.27 19.59 20.58 19.76 20.58 20.63C20.58 21.34 20.05 21.92 19.4 21.92Z" fill="#E11B22"/>
</svg>
