<svg width="54" height="54" viewBox="0 0 54 54" fill="none" xmlns="http://www.w3.org/2000/svg">
<rect width="54" height="54" rx="12" fill="url(#paint0_linear_11757_3614)"/>
<path d="M40.1261 17.9495V20.6646H13.8755V17.9495C13.8755 17.4467 14.2922 17.0445 14.813 17.0445H17.6256V16.1394L18.4173 13.0422C18.5006 12.7204 18.7923 12.5193 19.1256 12.5193H19.8548C20.1881 12.5193 20.4798 12.7405 20.5631 13.0422L21.3757 16.1394V17.0445H25.1257V14.3294L25.9174 11.2321C26.0008 10.9305 26.2924 10.7092 26.6258 10.7092H27.355C27.6883 10.7092 27.98 10.9305 28.0633 11.2321L28.8758 14.3294V17.0445H32.6259V16.1394L33.4176 13.0422C33.5009 12.7204 33.7926 12.5193 34.1259 12.5193H34.8551C35.1885 12.5193 35.4801 12.7405 35.5635 13.0422L36.376 16.1394V17.0445H39.1886C39.7094 17.0445 40.1261 17.4467 40.1261 17.9495Z" fill="white"/>
<path d="M28.8758 38.7654V42.3855C28.8758 42.8883 28.4591 43.2905 27.9383 43.2905H26.0633C25.5424 43.2905 25.1257 42.8883 25.1257 42.3855V38.7654H28.8758Z" fill="white"/>
<path d="M19.5002 22.4734V26.0935H12.9375C12.4167 26.0935 12 25.6913 12 25.1885V23.3784C12 22.8756 12.4167 22.4734 12.9375 22.4734H19.5002Z" fill="white"/>
<path d="M42 23.3784V25.1885C42 25.6913 41.5833 26.0935 41.0625 26.0935H21.3745V22.4734H41.0625C41.5833 22.4734 42 22.8756 42 23.3784Z" fill="white"/>
<path d="M34.5009 27.907V31.5271H17.6256V41.4825H14.813C14.2922 41.4825 13.8755 41.0802 13.8755 40.5774V28.812C13.8755 28.3092 14.2922 27.907 14.813 27.907H34.5009Z" fill="white"/>
<path d="M40.1261 28.812V40.5774C40.1261 41.0802 39.7094 41.4825 39.1885 41.4825H36.376V27.907H39.1885C39.7094 27.907 40.1261 28.3092 40.1261 28.812Z" fill="white"/>
<path d="M34.5011 33.3352V41.4805C34.5011 41.9833 34.0844 42.3855 33.5635 42.3855H30.751V36.9553H23.2508V42.3855H20.4383C19.9174 42.3855 19.5007 41.9833 19.5007 41.4805V33.3352H34.5011Z" fill="white"/>
<defs>
<linearGradient id="paint0_linear_11757_3614" x1="0" y1="0" x2="54" y2="54" gradientUnits="userSpaceOnUse">
<stop stop-color="#FB2C36"/>
<stop offset="1" stop-color="#E7000B"/>
</linearGradient>
</defs>
</svg>
