<svg width="44" height="44" viewBox="0 0 44 44" fill="none" xmlns="http://www.w3.org/2000/svg">
<rect width="44" height="44" rx="22" fill="white" fill-opacity="0.06"/>
<path d="M22 32C27.5228 32 32 27.5228 32 22C32 16.4772 27.5228 12 22 12C16.4772 12 12 16.4772 12 22C12 27.5228 16.4772 32 22 32Z" stroke="url(#paint0_linear_11001_49618)" stroke-width="1.63636" stroke-linecap="round" stroke-linejoin="round"/>
<path d="M17.9996 13H18.9996C17.0496 18.84 17.0496 25.16 18.9996 31H17.9996" stroke="url(#paint1_linear_11001_49618)" stroke-width="1.63636" stroke-linecap="round" stroke-linejoin="round"/>
<path d="M25 13C26.95 18.84 26.95 25.16 25 31" stroke="url(#paint2_linear_11001_49618)" stroke-width="1.63636" stroke-linecap="round" stroke-linejoin="round"/>
<path d="M13 26V25C18.84 26.95 25.16 26.95 31 25V26" stroke="url(#paint3_linear_11001_49618)" stroke-width="1.63636" stroke-linecap="round" stroke-linejoin="round"/>
<path d="M13 19.0001C18.84 17.0501 25.16 17.0501 31 19.0001" stroke="url(#paint4_linear_11001_49618)" stroke-width="1.63636" stroke-linecap="round" stroke-linejoin="round"/>
<defs>
<linearGradient id="paint0_linear_11001_49618" x1="12.9375" y1="14.1531" x2="31.2708" y2="14.2098" gradientUnits="userSpaceOnUse">
<stop stop-color="#E11B22"/>
<stop offset="1" stop-color="#FF343C"/>
</linearGradient>
<linearGradient id="paint1_linear_11001_49618" x1="17.6057" y1="14.9378" x2="18.9463" y2="14.9381" gradientUnits="userSpaceOnUse">
<stop stop-color="#E11B22"/>
<stop offset="1" stop-color="#FF343C"/>
</linearGradient>
<linearGradient id="paint2_linear_11001_49618" x1="25.0686" y1="14.9378" x2="26.4092" y2="14.9381" gradientUnits="userSpaceOnUse">
<stop stop-color="#E11B22"/>
<stop offset="1" stop-color="#FF343C"/>
</linearGradient>
<linearGradient id="paint3_linear_11001_49618" x1="13.8437" y1="25.1574" x2="30.32" y2="25.7845" gradientUnits="userSpaceOnUse">
<stop stop-color="#E11B22"/>
<stop offset="1" stop-color="#FF343C"/>
</linearGradient>
<linearGradient id="paint4_linear_11001_49618" x1="13.8437" y1="17.695" x2="30.32" y2="18.3221" gradientUnits="userSpaceOnUse">
<stop stop-color="#E11B22"/>
<stop offset="1" stop-color="#FF343C"/>
</linearGradient>
</defs>
</svg>
