<svg width="12" height="12" viewBox="0 0 12 12" fill="none" xmlns="http://www.w3.org/2000/svg">
<path d="M5.08887 8.86399C4.9983 8.77344 4.99081 8.62909 5.07152 8.52965L5.46739 8.04191C5.56084 7.92677 5.73341 7.91783 5.83827 8.02269L5.90811 8.09253C6.01299 8.1974 6.18559 8.18844 6.27903 8.07326L10.9285 2.3425C11.0155 2.23528 11.1729 2.21888 11.2802 2.30587L11.7655 2.69961C11.8727 2.78661 11.8891 2.94408 11.8021 3.0513L6.3651 9.74994C6.27165 9.86508 6.09909 9.87403 5.99423 9.76919L5.08887 8.86399Z" fill="#E11B22"/>
<path d="M0.42822 7.45228L2.74554 9.76919C2.8504 9.87403 3.02296 9.86508 3.11641 9.74994L8.55339 3.0513C8.64042 2.94408 8.62403 2.78661 8.5168 2.69961L8.03148 2.30587C7.92426 2.21888 7.76682 2.23528 7.67983 2.3425L3.03034 8.07326C2.9369 8.18844 2.7643 8.1974 2.65943 8.09253L1.22368 6.65678C1.12605 6.55915 0.967761 6.55915 0.87013 6.65679L0.428204 7.09871C0.330567 7.19635 0.330574 7.35465 0.42822 7.45228Z" fill="#E11B22"/>
</svg>
