<svg width="32" height="32" viewBox="0 0 32 32" fill="none" xmlns="http://www.w3.org/2000/svg">
<path d="M15.9997 2.66663C10.1086 2.66663 5.33301 5.98304 5.33301 10.074C5.33301 11.1275 5.6497 12.1296 6.22057 13.037C6.96275 14.2166 8.13455 15.2361 9.59863 16C11.3816 16.9302 13.5979 17.4814 15.9997 17.4814C18.4014 17.4814 20.6178 16.9302 22.4007 16C23.8648 15.2361 25.0366 14.2166 25.7788 13.037C26.3497 12.1296 26.6663 11.1275 26.6663 10.074C26.6663 5.98304 21.8907 2.66663 15.9997 2.66663Z" fill="url(#paint0_linear_11799_2104)"/>
<g opacity="0.4">
<path d="M5.33301 20.5558V21.9275C5.33301 22.981 5.6497 23.9831 6.22057 24.8904C6.96275 26.0701 8.13455 27.0895 9.59863 27.8534C11.3816 28.7836 13.5979 29.3349 15.9997 29.3349C18.4014 29.3349 20.6178 28.7836 22.4007 27.8534C23.8648 27.0895 25.0366 26.0701 25.7788 24.8904C26.3497 23.9831 26.6663 22.981 26.6663 21.9275V20.556C25.7648 21.7207 24.5432 22.6869 23.1409 23.4185C21.1127 24.4768 18.6396 25.0815 15.9997 25.0815C13.3599 25.0815 10.8868 24.4768 8.85858 23.4185C7.45621 22.6869 6.23454 21.7206 5.33301 20.5558Z" fill="url(#paint1_linear_11799_2104)"/>
<path d="M5.33301 14.5558V16.0741C5.33301 17.1276 5.6497 18.1297 6.22057 19.0371C6.96275 20.2167 8.13455 21.2362 9.59863 22C11.3816 22.9303 13.5979 23.4815 15.9997 23.4815C18.4014 23.4815 20.6178 22.9303 22.4007 22C23.8648 21.2362 25.0366 20.2167 25.7788 19.0371C26.3497 18.1297 26.6663 17.1276 26.6663 16.0741V14.556C25.7648 15.7207 24.5432 16.6869 23.1409 17.4185C21.1127 18.4768 18.6396 19.0815 15.9997 19.0815C13.3599 19.0815 10.8868 18.4768 8.85858 17.4185C7.45621 16.6869 6.23454 15.7206 5.33301 14.5558Z" fill="url(#paint2_linear_11799_2104)"/>
</g>
<defs>
<linearGradient id="paint0_linear_11799_2104" x1="6.33301" y1="4.26152" x2="25.8883" y2="4.3486" gradientUnits="userSpaceOnUse">
<stop stop-color="#E11B22"/>
<stop offset="1" stop-color="#FF343C"/>
</linearGradient>
<linearGradient id="paint1_linear_11799_2104" x1="6.33301" y1="16.1468" x2="25.8883" y2="16.2341" gradientUnits="userSpaceOnUse">
<stop stop-color="#E11B22"/>
<stop offset="1" stop-color="#FF343C"/>
</linearGradient>
<linearGradient id="paint2_linear_11799_2104" x1="6.33301" y1="16.1468" x2="25.8883" y2="16.2341" gradientUnits="userSpaceOnUse">
<stop stop-color="#E11B22"/>
<stop offset="1" stop-color="#FF343C"/>
</linearGradient>
</defs>
</svg>
