<svg width="20" height="20" viewBox="0 0 20 20" fill="none" xmlns="http://www.w3.org/2000/svg">
<path opacity="0.4" d="M9.99935 18.2502C14.6017 18.2502 18.3327 14.5192 18.3327 9.91683C18.3327 5.31446 14.6017 1.5835 9.99935 1.5835C5.39698 1.5835 1.66602 5.31446 1.66602 9.91683C1.66602 14.5192 5.39698 18.2502 9.99935 18.2502Z" fill="#E11B22"/>
<path d="M11.8835 10L10.6251 9.55833V6.73333H10.9251C11.6001 6.73333 12.1501 7.325 12.1501 8.05C12.1501 8.39167 12.4335 8.675 12.7751 8.675C13.1168 8.675 13.4001 8.39167 13.4001 8.05C13.4001 6.63333 12.2918 5.48333 10.9251 5.48333H10.6251V5C10.6251 4.65833 10.3418 4.375 10.0001 4.375C9.65846 4.375 9.37513 4.65833 9.37513 5V5.48333H8.83346C7.60013 5.48333 6.5918 6.525 6.5918 7.8C6.5918 9.29167 7.45846 9.76667 8.1168 10L9.37513 10.4417V13.2583H9.07513C8.40013 13.2583 7.85013 12.6667 7.85013 11.9417C7.85013 11.6 7.5668 11.3167 7.22513 11.3167C6.88346 11.3167 6.60013 11.6 6.60013 11.9417C6.60013 13.3583 7.70846 14.5083 9.07513 14.5083H9.37513V15C9.37513 15.3417 9.65846 15.625 10.0001 15.625C10.3418 15.625 10.6251 15.3417 10.6251 15V14.5167H11.1668C12.4001 14.5167 13.4085 13.475 13.4085 12.2C13.4001 10.7 12.5335 10.225 11.8835 10ZM8.53346 8.825C8.10846 8.675 7.85013 8.53333 7.85013 7.80833C7.85013 7.21667 8.2918 6.74167 8.8418 6.74167H9.38346V9.125L8.53346 8.825ZM11.1668 13.2667H10.6251V10.8833L11.4668 11.175C11.8918 11.325 12.1501 11.4667 12.1501 12.1917C12.1501 12.7833 11.7085 13.2667 11.1668 13.2667Z" fill="#E11B22"/>
</svg>
