<svg width="241" height="152" viewBox="0 0 241 152" fill="none" xmlns="http://www.w3.org/2000/svg">
<g filter="url(#filter0_i_11517_22313)">
<path d="M19.5853 85.6883C22.0698 64.6725 39.5209 45.5974 55.7889 31.8456C74.2456 16.2085 97.1389 4.78562 121.807 0.959527C142.689 -2.25662 162.921 2.73395 179.248 14.1013C184.099 17.4839 188.654 21.4209 192.736 25.8569C197.468 31.0139 201.786 36.8916 205.336 43.213C212.435 55.6895 216.635 69.8848 215.688 83.6367C215.274 90.1798 213.973 96.7233 211.844 102.989C206.638 117.849 196.286 130.659 182.975 140.03C178.479 143.191 173.391 145.964 167.949 148.071C156.532 152.506 143.636 153.837 132.396 148.625C119.56 142.636 114.058 125.835 99.3875 123.561C92.2883 122.452 85.3671 125.335 78.4457 127.11C65.0173 130.548 46.6196 132.323 35.4392 123.672C23.1937 114.245 17.8697 100.216 19.5853 85.6883Z" fill="url(#paint0_radial_11517_22313)"/>
</g>
<path d="M176.111 58.7628C178.277 58.7628 180.033 57.0114 180.033 54.8509C180.033 52.6904 178.277 50.939 176.111 50.939C173.946 50.939 172.189 52.6904 172.189 54.8509C172.189 57.0114 173.946 58.7628 176.111 58.7628Z" fill="white" fill-opacity="0.5"/>
<path d="M181.851 43.4969C183.33 43.4969 184.529 42.3008 184.529 40.8254C184.529 39.35 183.33 38.1538 181.851 38.1538C180.371 38.1538 179.172 39.35 179.172 40.8254C179.172 42.3008 180.371 43.4969 181.851 43.4969Z" fill="white" fill-opacity="0.5"/>
<path d="M75.1627 42.3465C76.6418 42.3465 77.8408 41.1505 77.8408 39.6749C77.8408 38.1995 76.6418 37.0034 75.1627 37.0034C73.6834 37.0034 72.4844 38.1995 72.4844 39.6749C72.4844 41.1505 73.6834 42.3465 75.1627 42.3465Z" fill="white"/>
<path d="M58.8079 93.8697C61.5549 93.8697 63.7818 91.6484 63.7818 88.9082C63.7818 86.1682 61.5549 83.9468 58.8079 83.9468C56.0608 83.9468 53.834 86.1682 53.834 88.9082C53.834 91.6484 56.0608 93.8697 58.8079 93.8697Z" fill="white" fill-opacity="0.5"/>
<g filter="url(#filter1_i_11517_22313)">
<path fill-rule="evenodd" clip-rule="evenodd" d="M123.339 83.0115C124.004 80.646 127.247 71.1307 127.247 71.1307L122.025 66.9589L135.881 54.9889L131.338 66.5652L136.861 70.5654L123.339 83.0115ZM104.959 90.4466L98.3193 96.1152L98.3223 106.562C94.1651 104.233 91.3535 99.7867 91.3565 94.6852C91.3565 89.0016 94.8409 84.1354 99.7885 82.0962V55.9012C94.8409 53.868 91.3535 48.9988 91.3535 43.3152C91.3565 38.2137 94.1651 33.7701 98.3223 31.441V41.8852L104.959 47.5508L111.596 41.8852L111.599 31.438C115.756 33.7669 118.562 38.2137 118.565 43.3152C118.565 48.9988 115.078 53.868 110.13 55.9012V82.0962C115.081 84.1324 118.562 89.0016 118.565 94.6822C118.565 99.7867 115.753 104.233 111.599 106.559V96.1152L104.959 90.4466ZM124.738 31.5094C124.928 31.4628 125.126 31.438 125.33 31.438H132.841C134.203 31.438 135.308 32.5428 135.308 33.9047C135.308 41.305 144.27 45.0138 149.5 39.7832C150.463 38.8204 152.029 38.8204 152.992 39.7832L158.302 45.0982C159.265 46.0609 159.265 47.6226 158.302 48.5853C153.072 53.816 156.785 62.7779 164.181 62.7779C165.547 62.7779 166.648 63.8825 166.648 65.2446V72.7558C166.648 74.1178 165.547 75.2225 164.181 75.2225C156.785 75.2225 153.072 84.1843 158.302 89.4151C159.265 90.3778 159.265 91.9439 158.302 92.9067L152.992 98.2171C152.029 99.1799 150.463 99.1799 149.5 98.2171C144.27 92.9865 135.308 96.7 135.308 104.096C135.308 105.462 134.203 106.562 132.841 106.562H125.33C125.126 106.562 124.928 106.538 124.738 106.491V89.4589C126.142 89.7578 127.597 89.9152 129.088 89.9152C140.603 89.9152 150 80.518 150 69.0029C150 57.4825 140.603 48.0905 129.088 48.0905C127.597 48.0905 126.142 48.2479 124.738 48.5467V31.5094Z" fill="url(#paint1_linear_11517_22313)"/>
</g>
<g filter="url(#filter2_ii_11517_22313)">
<path d="M232.979 121.998L227.702 120.7C227.385 119.7 226.977 118.73 226.485 117.802C227.277 116.483 228.942 113.708 228.942 113.708C229.261 113.178 229.176 112.498 228.739 112.062L224.928 108.25C224.491 107.812 223.813 107.728 223.282 108.048L219.181 110.505C218.258 110.016 217.293 109.612 216.3 109.298L215.002 104.021C214.852 103.421 214.314 103 213.695 103H208.305C207.686 103 207.147 103.421 206.998 104.021C206.998 104.021 206.099 107.704 205.701 109.296C204.642 109.632 203.618 110.068 202.643 110.599L198.391 108.048C197.859 107.732 197.183 107.813 196.744 108.25L192.933 112.062C192.496 112.498 192.412 113.178 192.73 113.708L195.36 118.1C194.936 118.935 194.581 119.805 194.298 120.696L189.021 121.998C188.421 122.148 188 122.686 188 123.305V128.695C188 129.314 188.421 129.853 189.021 130.002L194.299 131.3C194.619 132.314 195.035 133.3 195.539 134.246L193.186 138.168C192.867 138.699 192.951 139.378 193.388 139.815L197.2 143.626C197.635 144.062 198.314 144.145 198.846 143.829C198.846 143.829 201.485 142.247 202.777 141.473C203.713 141.972 204.692 142.384 205.702 142.703L206.998 147.979C207.147 148.579 207.686 149 208.305 149H213.695C214.314 149 214.852 148.579 215.002 147.979L216.299 142.704C217.337 142.375 218.337 141.949 219.289 141.434C220.617 142.23 223.282 143.829 223.282 143.829C223.812 144.146 224.491 144.064 224.928 143.626L228.739 139.815C229.176 139.378 229.26 138.699 228.942 138.168L226.519 134.132C226.997 133.225 227.393 132.276 227.702 131.3L232.979 130.002C233.579 129.852 234 129.314 234 128.695V123.305C234 122.686 233.579 122.148 232.979 121.998ZM211 135.434C205.799 135.434 201.566 131.201 201.566 126C201.566 120.799 205.799 116.566 211 116.566C216.201 116.566 220.434 120.799 220.434 126C220.434 131.201 216.201 135.434 211 135.434Z" fill="url(#paint2_linear_11517_22313)"/>
</g>
<g filter="url(#filter3_ii_11517_22313)">
<path d="M44.9787 18.9978L39.7023 17.7002C39.3852 16.7 38.9772 15.73 38.4849 14.8022C39.2772 13.4835 40.9421 10.7079 40.9421 10.7079C41.2606 10.1776 41.1763 9.49846 40.7394 9.06155L36.928 5.2502C36.4911 4.81194 35.8133 4.72776 35.2816 5.04751L31.1807 7.50465C30.2581 7.01635 29.2935 6.61232 28.2999 6.29778L27.0023 1.02134C26.8521 0.421188 26.3139 0 25.6953 0H20.3047C19.6861 0 19.1465 0.421187 18.9978 1.02125C18.9978 1.02125 18.0989 4.70395 17.7015 6.29643C16.642 6.632 15.6182 7.06765 14.6429 7.59934L10.3907 5.04751C9.859 4.73162 9.18257 4.81329 8.74431 5.2502L4.93296 9.06155C4.49605 9.49846 4.41178 10.1776 4.73027 10.7079L7.35982 15.0997C6.93603 15.9354 6.5807 16.8053 6.29778 17.6963L1.02134 18.9978C0.421188 19.1479 0 19.6861 0 20.3047V25.6953C0 26.3139 0.421187 26.8535 1.02125 27.0022L6.29904 28.2998C6.61888 29.3145 7.03468 30.3003 7.53879 31.2465L5.18569 35.1683C4.8672 35.6987 4.95147 36.3778 5.38838 36.8147L9.19973 40.6261C9.63538 41.0617 10.3144 41.1446 10.8461 40.8288C10.8461 40.8288 13.4848 39.2469 14.7772 38.473C15.713 38.9718 16.6921 39.3837 17.7016 39.7035L18.9979 44.9787C19.1465 45.5789 19.6861 46 20.3047 46H25.6953C26.3139 46 26.8521 45.5788 27.0022 44.9787L28.2985 39.7036C29.337 39.3746 30.3371 38.9494 31.2886 38.4335C32.6165 39.2297 35.2816 40.8288 35.2816 40.8288C35.8119 41.1459 36.491 41.0643 36.9279 40.6261L40.7393 36.8147C41.1762 36.3778 41.2605 35.6987 40.942 35.1683L38.5191 31.1319C38.9968 30.2251 39.393 29.2763 39.7022 28.2998L44.9787 27.0022C45.5789 26.8521 46 26.3139 46 25.6953V20.3047C46 19.6861 45.5789 19.1479 44.9787 18.9978ZM23 32.4336C17.7989 32.4336 13.5664 28.2011 13.5664 23C13.5664 17.7989 17.7989 13.5664 23 13.5664C28.2011 13.5664 32.4336 17.7989 32.4336 23C32.4336 28.2011 28.2011 32.4336 23 32.4336Z" fill="url(#paint3_linear_11517_22313)"/>
</g>
<g filter="url(#filter4_ii_11517_22313)">
<path d="M65.556 11.2599L63.2619 10.6957C63.124 10.2609 62.9466 9.83914 62.7326 9.43574C63.077 8.86238 63.8009 7.65562 63.8009 7.65562C63.9394 7.42504 63.9027 7.12977 63.7128 6.9398L62.0557 5.2827C61.8657 5.09215 61.571 5.05555 61.3398 5.19457L59.5568 6.26289C59.1557 6.05059 58.7363 5.87492 58.3043 5.73816L57.7401 3.44406C57.6748 3.18313 57.4408 3 57.1719 3H54.8281C54.5592 3 54.3246 3.18312 54.2599 3.44402C54.2599 3.44402 53.8691 5.0452 53.6963 5.73758C53.2357 5.88348 52.7905 6.07289 52.3665 6.30406L50.5177 5.19457C50.2865 5.05723 49.9924 5.09273 49.8019 5.2827L48.1448 6.9398C47.9548 7.12977 47.9182 7.42504 48.0566 7.65562L49.1999 9.56508C49.0157 9.92844 48.8612 10.3066 48.7382 10.694L46.4441 11.2599C46.1831 11.3252 46 11.5592 46 11.8281V14.1719C46 14.4408 46.1831 14.6754 46.444 14.7401L48.7387 15.3043C48.8778 15.7454 49.0586 16.174 49.2777 16.5854L48.2546 18.2906C48.1162 18.5212 48.1528 18.8164 48.3428 19.0064L49.9999 20.6635C50.1893 20.8529 50.4845 20.8889 50.7157 20.7516C50.7157 20.7516 51.863 20.0639 52.4249 19.7274C52.8317 19.9443 53.2574 20.1234 53.6963 20.2624L54.26 22.5559C54.3246 22.8169 54.5592 23 54.8281 23H57.1719C57.4408 23 57.6748 22.8169 57.7401 22.556L58.3037 20.2624C58.7552 20.1194 59.19 19.9345 59.6038 19.7102C60.1811 20.0564 61.3398 20.7516 61.3398 20.7516C61.5704 20.8895 61.8657 20.8541 62.0556 20.6635L63.7127 19.0064C63.9027 18.8164 63.9393 18.5212 63.8009 18.2906L62.7474 16.5356C62.9551 16.1414 63.1274 15.7288 63.2618 15.3043L65.5559 14.7401C65.8169 14.6748 66 14.4408 66 14.1719V11.8281C66 11.5592 65.8169 11.3252 65.556 11.2599ZM56 17.1016C53.7386 17.1016 51.8984 15.2614 51.8984 13C51.8984 10.7386 53.7386 8.89844 56 8.89844C58.2614 8.89844 60.1016 10.7386 60.1016 13C60.1016 15.2614 58.2614 17.1016 56 17.1016Z" fill="url(#paint4_linear_11517_22313)"/>
</g>
<defs>
<filter id="filter0_i_11517_22313" x="19.2715" y="0" width="196.549" height="158" filterUnits="userSpaceOnUse" color-interpolation-filters="sRGB">
<feFlood flood-opacity="0" result="BackgroundImageFix"/>
<feBlend mode="normal" in="SourceGraphic" in2="BackgroundImageFix" result="shape"/>
<feColorMatrix in="SourceAlpha" type="matrix" values="0 0 0 0 0 0 0 0 0 0 0 0 0 0 0 0 0 0 127 0" result="hardAlpha"/>
<feOffset dy="6"/>
<feGaussianBlur stdDeviation="12"/>
<feComposite in2="hardAlpha" operator="arithmetic" k2="-1" k3="1"/>
<feColorMatrix type="matrix" values="0 0 0 0 1 0 0 0 0 1 0 0 0 0 1 0 0 0 0.8 0"/>
<feBlend mode="normal" in2="shape" result="effect1_innerShadow_11517_22313"/>
</filter>
<filter id="filter1_i_11517_22313" x="89" y="29" width="80" height="86" filterUnits="userSpaceOnUse" color-interpolation-filters="sRGB">
<feFlood flood-opacity="0" result="BackgroundImageFix"/>
<feBlend mode="normal" in="SourceGraphic" in2="BackgroundImageFix" result="shape"/>
<feColorMatrix in="SourceAlpha" type="matrix" values="0 0 0 0 0 0 0 0 0 0 0 0 0 0 0 0 0 0 127 0" result="hardAlpha"/>
<feOffset dy="6"/>
<feGaussianBlur stdDeviation="12"/>
<feComposite in2="hardAlpha" operator="arithmetic" k2="-1" k3="1"/>
<feColorMatrix type="matrix" values="0 0 0 0 1 0 0 0 0 1 0 0 0 0 1 0 0 0 0.8 0"/>
<feBlend mode="normal" in2="shape" result="effect1_innerShadow_11517_22313"/>
</filter>
<filter id="filter2_ii_11517_22313" x="188" y="103" width="46" height="52" filterUnits="userSpaceOnUse" color-interpolation-filters="sRGB">
<feFlood flood-opacity="0" result="BackgroundImageFix"/>
<feBlend mode="normal" in="SourceGraphic" in2="BackgroundImageFix" result="shape"/>
<feColorMatrix in="SourceAlpha" type="matrix" values="0 0 0 0 0 0 0 0 0 0 0 0 0 0 0 0 0 0 127 0" result="hardAlpha"/>
<feOffset dy="6"/>
<feGaussianBlur stdDeviation="12"/>
<feComposite in2="hardAlpha" operator="arithmetic" k2="-1" k3="1"/>
<feColorMatrix type="matrix" values="0 0 0 0 1 0 0 0 0 1 0 0 0 0 1 0 0 0 0.8 0"/>
<feBlend mode="normal" in2="shape" result="effect1_innerShadow_11517_22313"/>
<feColorMatrix in="SourceAlpha" type="matrix" values="0 0 0 0 0 0 0 0 0 0 0 0 0 0 0 0 0 0 127 0" result="hardAlpha"/>
<feOffset dy="4"/>
<feGaussianBlur stdDeviation="6"/>
<feComposite in2="hardAlpha" operator="arithmetic" k2="-1" k3="1"/>
<feColorMatrix type="matrix" values="0 0 0 0 0.759046 0 0 0 0 0.0870698 0 0 0 0 0.0870698 0 0 0 0.25 0"/>
<feBlend mode="normal" in2="effect1_innerShadow_11517_22313" result="effect2_innerShadow_11517_22313"/>
</filter>
<filter id="filter3_ii_11517_22313" x="0" y="0" width="46" height="52" filterUnits="userSpaceOnUse" color-interpolation-filters="sRGB">
<feFlood flood-opacity="0" result="BackgroundImageFix"/>
<feBlend mode="normal" in="SourceGraphic" in2="BackgroundImageFix" result="shape"/>
<feColorMatrix in="SourceAlpha" type="matrix" values="0 0 0 0 0 0 0 0 0 0 0 0 0 0 0 0 0 0 127 0" result="hardAlpha"/>
<feOffset dy="6"/>
<feGaussianBlur stdDeviation="12"/>
<feComposite in2="hardAlpha" operator="arithmetic" k2="-1" k3="1"/>
<feColorMatrix type="matrix" values="0 0 0 0 1 0 0 0 0 1 0 0 0 0 1 0 0 0 0.8 0"/>
<feBlend mode="normal" in2="shape" result="effect1_innerShadow_11517_22313"/>
<feColorMatrix in="SourceAlpha" type="matrix" values="0 0 0 0 0 0 0 0 0 0 0 0 0 0 0 0 0 0 127 0" result="hardAlpha"/>
<feOffset dy="4"/>
<feGaussianBlur stdDeviation="6"/>
<feComposite in2="hardAlpha" operator="arithmetic" k2="-1" k3="1"/>
<feColorMatrix type="matrix" values="0 0 0 0 0.759046 0 0 0 0 0.0870698 0 0 0 0 0.0870698 0 0 0 0.25 0"/>
<feBlend mode="normal" in2="effect1_innerShadow_11517_22313" result="effect2_innerShadow_11517_22313"/>
</filter>
<filter id="filter4_ii_11517_22313" x="46" y="3" width="20" height="26" filterUnits="userSpaceOnUse" color-interpolation-filters="sRGB">
<feFlood flood-opacity="0" result="BackgroundImageFix"/>
<feBlend mode="normal" in="SourceGraphic" in2="BackgroundImageFix" result="shape"/>
<feColorMatrix in="SourceAlpha" type="matrix" values="0 0 0 0 0 0 0 0 0 0 0 0 0 0 0 0 0 0 127 0" result="hardAlpha"/>
<feOffset dy="6"/>
<feGaussianBlur stdDeviation="12"/>
<feComposite in2="hardAlpha" operator="arithmetic" k2="-1" k3="1"/>
<feColorMatrix type="matrix" values="0 0 0 0 1 0 0 0 0 1 0 0 0 0 1 0 0 0 0.8 0"/>
<feBlend mode="normal" in2="shape" result="effect1_innerShadow_11517_22313"/>
<feColorMatrix in="SourceAlpha" type="matrix" values="0 0 0 0 0 0 0 0 0 0 0 0 0 0 0 0 0 0 127 0" result="hardAlpha"/>
<feOffset dy="4"/>
<feGaussianBlur stdDeviation="6"/>
<feComposite in2="hardAlpha" operator="arithmetic" k2="-1" k3="1"/>
<feColorMatrix type="matrix" values="0 0 0 0 0.759046 0 0 0 0 0.0870698 0 0 0 0 0.0870698 0 0 0 0.25 0"/>
<feBlend mode="normal" in2="effect1_innerShadow_11517_22313" result="effect2_innerShadow_11517_22313"/>
</filter>
<radialGradient id="paint0_radial_11517_22313" cx="0" cy="0" r="1" gradientUnits="userSpaceOnUse" gradientTransform="translate(117.546 76) rotate(90) scale(76 98.2747)">
<stop stop-color="#E7000B"/>
<stop offset="1" stop-color="#FA858A"/>
</radialGradient>
<linearGradient id="paint1_linear_11517_22313" x1="129.014" y1="31.438" x2="127.315" y2="115.831" gradientUnits="userSpaceOnUse">
<stop stop-color="white"/>
<stop offset="1" stop-color="white" stop-opacity="0"/>
</linearGradient>
<linearGradient id="paint2_linear_11517_22313" x1="207.5" y1="105" x2="210.964" y2="149.564" gradientUnits="userSpaceOnUse">
<stop stop-color="white"/>
<stop offset="0.9964" stop-color="#F9AEB1"/>
</linearGradient>
<linearGradient id="paint3_linear_11517_22313" x1="19.5" y1="2" x2="22.964" y2="46.5643" gradientUnits="userSpaceOnUse">
<stop stop-color="white"/>
<stop offset="0.9964" stop-color="#F9AEB1"/>
</linearGradient>
<linearGradient id="paint4_linear_11517_22313" x1="54.4783" y1="3.86957" x2="55.9844" y2="23.2453" gradientUnits="userSpaceOnUse">
<stop stop-color="white"/>
<stop offset="0.9964" stop-color="#F9AEB1"/>
</linearGradient>
</defs>
</svg>
