<svg width="128" height="131" viewBox="0 0 128 131" fill="none" xmlns="http://www.w3.org/2000/svg">
<path d="M70.3016 109.5C98.3016 109.5 121.002 86.8004 121.002 58.7004C121.002 30.6004 98.2016 7.90039 70.3016 7.90039C42.3016 7.90039 19.6016 30.6004 19.6016 58.7004C19.6016 86.8004 42.3016 109.5 70.3016 109.5Z" fill="#EAEEF9"/>
<path d="M117.702 25.4012C119.966 25.4012 121.802 23.5655 121.802 21.3012C121.802 19.0368 119.966 17.2012 117.702 17.2012C115.437 17.2012 113.602 19.0368 113.602 21.3012C113.602 23.5655 115.437 25.4012 117.702 25.4012Z" fill="#EAEEF9"/>
<path d="M123.698 9.40078C125.245 9.40078 126.498 8.14718 126.498 6.60078C126.498 5.05438 125.245 3.80078 123.698 3.80078C122.152 3.80078 120.898 5.05438 120.898 6.60078C120.898 8.14718 122.152 9.40078 123.698 9.40078Z" fill="#EAEEF9"/>
<path d="M22.3 25.3012C23.8464 25.3012 25.1 24.0476 25.1 22.5012C25.1 20.9548 23.8464 19.7012 22.3 19.7012C20.7536 19.7012 19.5 20.9548 19.5 22.5012C19.5 24.0476 20.7536 25.3012 22.3 25.3012Z" fill="#EAEEF9"/>
<path d="M5.2 79.3004C8.07188 79.3004 10.4 76.9723 10.4 74.1004C10.4 71.2285 8.07188 68.9004 5.2 68.9004C2.32812 68.9004 0 71.2285 0 74.1004C0 76.9723 2.32812 79.3004 5.2 79.3004Z" fill="#EAEEF9"/>
<g filter="url(#filter0_d_11517_21938)">
<path d="M104.801 33.3L105.601 97.7C105.601 99.9 103.801 101.6 101.601 101.6H38.8008C36.6008 101.6 34.8008 99.8 34.8008 97.7V14.9C34.8008 12.7 36.6008 11 38.8008 11H84.3008L104.801 33.3Z" fill="url(#paint0_linear_11517_21938)"/>
</g>
<path d="M65.3992 88.7H63.0992C62.5992 88.7 62.1992 88.2 62.1992 87.6C62.1992 87 62.5992 86.5 63.0992 86.5H65.3992C65.8992 86.5 66.2992 87 66.2992 87.6C66.2992 88.3 65.8992 88.7 65.3992 88.7Z" fill="#CED7E2"/>
<path d="M58.4016 88.7H45.0016C44.5016 88.7 44.1016 88.2 44.1016 87.6C44.1016 87 44.5016 86.5 45.0016 86.5H58.4016C58.9016 86.5 59.3016 87 59.3016 87.6C59.3016 88.3 58.9016 88.7 58.4016 88.7Z" fill="#D5DDEA"/>
<path d="M75.5016 24.5004H45.4016C44.7016 24.5004 44.1016 23.9004 44.1016 23.2004C44.1016 22.5004 44.7016 21.9004 45.4016 21.9004H75.5016C76.2016 21.9004 76.8016 22.5004 76.8016 23.2004C76.8016 23.9004 76.2016 24.5004 75.5016 24.5004Z" fill="#D5DDEA"/>
<path d="M57.0016 31.7016H45.4016C44.7016 31.7016 44.1016 31.1016 44.1016 30.4016C44.1016 29.7016 44.7016 29.1016 45.4016 29.1016H56.9016C57.6016 29.1016 58.2016 29.7016 58.2016 30.4016C58.2016 31.1016 57.6016 31.7016 57.0016 31.7016Z" fill="#D5DDEA"/>
<path d="M84.3008 11V28.8C84.3008 31.3 86.5008 33.3 89.0008 33.3H104.801" fill="#D5DDEA"/>
<path d="M109.6 103.1C108.6 103.1 107.6 102.7 106.8 101.8L90.1 85.1L89.5 85.5C84.1 89.5 77.8 91.6 71.4 91.6C63.7 91.6 56 88.5 50.3 83.1C44.3 77.4 41 69.7 41 61.3C41 44.6 54.6 31 71.3 31C82.7 31 92.7 37 98.1 47.2C103.4 57.3 102.7 69.1 96.2 78.6L95.8 79.2L112.6 96C114.3 97.7 113.9 99.4 113.6 100.3C112.8 101.9 111.2 103.1 109.6 103.1ZM71.3 39.3C59.1 39.3 49.3 49.2 49.3 61.3C49.3 75.1 60.6 83.4 71.6 83.4C78.3 83.4 84.4 80.4 88.7 75C94 68.4 94.9 59.5 91.2 51.8C87.4 44.1 79.8 39.3 71.3 39.3Z" fill="#989FB0"/>
<path d="M61.7984 64.9016C63.0984 64.9016 64.1984 63.8016 64.1984 62.5016C64.1984 61.2016 63.0984 60.1016 61.7984 60.1016C60.4984 60.1016 59.3984 61.2016 59.3984 62.5016C59.3984 63.8016 60.4984 64.9016 61.7984 64.9016Z" fill="#989FB0"/>
<path d="M80.2008 64.9016C81.5008 64.9016 82.6008 63.8016 82.6008 62.5016C82.6008 61.2016 81.5008 60.1016 80.2008 60.1016C78.9008 60.1016 77.8008 61.2016 77.8008 62.5016C77.8008 63.9016 78.9008 64.9016 80.2008 64.9016Z" fill="#989FB0"/>
<path d="M61.7052 54.5596L56.4258 57.4102L57.1384 58.73L62.4178 55.8794L61.7052 54.5596Z" fill="#989FB0"/>
<path d="M79.8727 54.5218L79.1602 55.8418L84.4402 58.6918L85.1527 57.3718L79.8727 54.5218Z" fill="#989FB0"/>
<path d="M70.9992 70.5008C72.5456 70.5008 73.7992 69.5606 73.7992 68.4008C73.7992 67.241 72.5456 66.3008 70.9992 66.3008C69.4528 66.3008 68.1992 67.241 68.1992 68.4008C68.1992 69.5606 69.4528 70.5008 70.9992 70.5008Z" fill="#989FB0"/>
<defs>
<filter id="filter0_d_11517_21938" x="12.8008" y="0" width="114.801" height="134.6" filterUnits="userSpaceOnUse" color-interpolation-filters="sRGB">
<feFlood flood-opacity="0" result="BackgroundImageFix"/>
<feColorMatrix in="SourceAlpha" type="matrix" values="0 0 0 0 0 0 0 0 0 0 0 0 0 0 0 0 0 0 127 0" result="hardAlpha"/>
<feOffset dy="11"/>
<feGaussianBlur stdDeviation="11"/>
<feColorMatrix type="matrix" values="0 0 0 0 0.397708 0 0 0 0 0.47749 0 0 0 0 0.575 0 0 0 0.27 0"/>
<feBlend mode="normal" in2="BackgroundImageFix" result="effect1_dropShadow_11517_21938"/>
<feBlend mode="normal" in="SourceGraphic" in2="effect1_dropShadow_11517_21938" result="shape"/>
</filter>
<linearGradient id="paint0_linear_11517_21938" x1="70.1777" y1="8.90434" x2="70.1777" y2="102.577" gradientUnits="userSpaceOnUse">
<stop stop-color="#FDFEFF"/>
<stop offset="0.9964" stop-color="#ECF0F5"/>
</linearGradient>
</defs>
</svg>
