<svg width="54" height="54" viewBox="0 0 54 54" fill="none" xmlns="http://www.w3.org/2000/svg">
<rect width="54" height="54" rx="10" fill="#EF052D"/>
<foreignObject x="-1.125" y="-1.07056" width="56.25" height="54.6428"><div xmlns="http://www.w3.org/1999/xhtml" style="backdrop-filter:blur(2.81px);clip-path:url(#bgblur_0_12152_28023_clip_path);height:100%;width:100%"></div></foreignObject><rect data-figma-bg-blur-radius="5.625" x="4.5" y="4.55444" width="45" height="43.3929" rx="21.6964" fill="#EF052D"/>
<path fill-rule="evenodd" clip-rule="evenodd" d="M32.1349 21.3469L34.4289 20.1701C34.4066 20.0904 34.383 20.0106 34.3621 19.9308C34.3503 19.8929 34.3385 19.855 34.3254 19.8158C34.3123 19.7765 34.3005 19.7386 34.2861 19.6981C34.2586 19.617 34.2298 19.5373 34.1997 19.4575C34.1997 19.4431 34.1893 19.4274 34.1827 19.4117C33.8144 18.4546 33.2546 17.5824 32.5375 16.8485C31.8204 16.1146 30.961 15.5343 30.0119 15.143C29.0628 14.7518 28.0437 14.5577 27.017 14.5728C25.9903 14.5879 24.9775 14.8118 24.0403 15.2308C23.1031 15.6498 22.2612 16.2551 21.5661 17.0098C20.8709 17.7644 20.3371 18.6527 19.9971 19.6203C19.6571 20.5878 19.5181 21.6144 19.5886 22.6374C19.6592 23.6604 19.9377 24.6583 20.4072 25.5702L21.8554 24.5778C21.3342 23.3884 21.2586 22.0516 21.6422 20.8111C22.0259 19.5707 22.8434 18.5093 23.9454 17.8206C25.0475 17.1319 26.3608 16.8618 27.6457 17.0596C28.9306 17.2573 30.1014 17.9098 30.9447 18.8979L13.3486 30.9678L32.1349 21.3469Z" fill="white"/>
<path fill-rule="evenodd" clip-rule="evenodd" d="M32.0783 23.6151C31.8869 24.5373 31.4546 25.3927 30.825 26.095C30.1954 26.7973 29.3909 27.3215 28.4927 27.6146C27.5946 27.9077 26.6347 27.9593 25.7102 27.7642C24.7856 27.5691 23.9291 27.1343 23.2273 26.5036L21.6353 27.3161C22.6528 28.4125 23.9774 29.179 25.4374 29.5164C26.8974 29.8538 28.4254 29.7464 29.8234 29.2082C31.2214 28.67 32.425 27.7258 33.278 26.498C34.1311 25.2701 34.5943 23.8153 34.6077 22.322L32.0783 23.6151Z" fill="white"/>
<path fill-rule="evenodd" clip-rule="evenodd" d="M29.2214 12.5913C28.4229 12.5902 27.6283 12.7043 26.8618 12.9301C27.0424 12.917 27.2256 12.9105 27.4088 12.9105C29.1293 12.9108 30.814 13.4066 32.2653 14.3397C33.7167 15.2729 34.8744 16.6046 35.6027 18.1787C36.331 19.7529 36.5997 21.5041 36.3773 23.2271C36.1548 24.95 35.4505 26.5731 34.3468 27.906C35.7523 26.8237 36.7863 25.3234 37.3031 23.6164C37.8199 21.9094 37.7934 20.0817 37.2275 18.3907C36.6615 16.6997 35.5846 15.2305 34.1483 14.1902C32.7121 13.1498 30.9889 12.5906 29.2214 12.5913Z" fill="white"/>
<path fill-rule="evenodd" clip-rule="evenodd" d="M10.9307 38.7774V32.5943H11.6103L11.7769 33.3711C12.3212 32.8532 12.9188 32.5943 13.5619 32.5943C14.3874 32.5943 14.9515 32.8769 15.2545 33.4423C15.8716 32.8761 16.4987 32.5934 17.1358 32.5943C18.4464 32.5943 19.1022 33.378 19.1031 34.9453V38.7774H18.0927V34.8819C18.0927 33.9593 17.7343 33.4984 17.0173 33.4992C16.4827 33.4992 15.981 33.7659 15.5123 34.2993V38.7761H14.5097V34.9026C14.5097 33.9679 14.1547 33.501 13.4447 33.5018C12.8797 33.5018 12.3758 33.7685 11.9293 34.3019V38.7774H10.9307ZM20.7279 35.6625C20.7279 37.1514 21.2982 37.8953 22.4387 37.8945C23.5792 37.8936 24.1495 37.1496 24.1495 35.6625C24.1495 34.2074 23.5792 33.4789 22.4387 33.4772C21.2982 33.4755 20.7279 34.2039 20.7279 35.6625ZM19.7254 35.6871C19.7254 33.6235 20.6298 32.5926 22.4387 32.5943C24.2475 32.596 25.1524 33.627 25.1533 35.6871C25.1533 37.7439 24.2484 38.7722 22.4387 38.7722C20.629 38.7722 19.7237 37.7439 19.7228 35.6871H19.7254ZM25.7795 38.7774V32.5943H26.4539L26.6323 33.3827C27.2173 32.8588 27.8592 32.596 28.5579 32.5943C29.9788 32.5943 30.6892 33.3629 30.6892 34.9V38.7839H29.6854V34.8858C29.6854 33.9666 29.2631 33.507 28.4186 33.507C27.8449 33.507 27.298 33.7685 26.7781 34.2915V38.7839L25.7795 38.7774ZM33.9376 32.5943C35.5616 32.5943 36.3727 33.4643 36.3709 35.2042C36.3707 35.47 36.3542 35.7354 36.3215 35.9991H32.3153C32.3153 37.2636 32.9958 37.8958 34.3568 37.8958C34.9405 37.9049 35.5221 37.8259 36.0819 37.6614V38.5444C35.4862 38.7161 34.8676 38.7965 34.2475 38.7826C32.2893 38.7826 31.3107 37.7288 31.3115 35.6211C31.3115 33.6084 32.1851 32.6016 33.9324 32.6008L33.9376 32.5943ZM32.3153 35.0916H35.4049C35.3815 34.008 34.8945 33.4656 33.9376 33.4656C32.9247 33.4656 32.3857 34.0076 32.3206 35.0916H32.3153ZM36.3072 32.5943L38.4931 38.815C38.2348 39.4632 37.7382 39.9895 37.104 40.2869L37.4867 41.0572C38.3269 40.7785 38.9571 40.0776 39.3772 38.9548L41.7402 32.5891H40.6804L39.0113 37.4193L37.3995 32.5891L36.3072 32.5943Z" fill="white"/>
<defs>
<clipPath id="bgblur_0_12152_28023_clip_path" transform="translate(1.125 1.07056)"><rect x="4.5" y="4.55444" width="45" height="43.3929" rx="21.6964"/>
</clipPath></defs>
</svg>
