<svg width="22" height="22" viewBox="0 0 22 22" fill="none" xmlns="http://www.w3.org/2000/svg">
<path d="M19.25 6.41659V15.5833C19.25 18.3333 17.875 20.1666 14.6667 20.1666H7.33333C4.125 20.1666 2.75 18.3333 2.75 15.5833V6.41659C2.75 3.66659 4.125 1.83325 7.33333 1.83325H14.6667C17.875 1.83325 19.25 3.66659 19.25 6.41659Z" stroke="#85888A" stroke-width="1.5" stroke-miterlimit="10" stroke-linecap="round" stroke-linejoin="round"/>
<path d="M14.8958 10.0833H7.10417C6.22417 10.0833 5.5 9.35909 5.5 8.47909V6.18742C5.5 5.30742 6.22417 4.58325 7.10417 4.58325H14.8958C15.7758 4.58325 16.5 5.30742 16.5 6.18742V8.47909C16.5 9.35909 15.7758 10.0833 14.8958 10.0833Z" stroke="#85888A" stroke-width="1.5" stroke-miterlimit="10" stroke-linecap="round" stroke-linejoin="round"/>
<path d="M9.44133 14.0066L7.33301 16.1149" stroke="#85888A" stroke-width="1.5" stroke-miterlimit="10" stroke-linecap="round" stroke-linejoin="round"/>
<path d="M7.36035 14.0342L9.46867 16.1425" stroke="#85888A" stroke-width="1.5" stroke-miterlimit="10" stroke-linecap="round" stroke-linejoin="round"/>
<path d="M15.1162 14.0525H15.1346" stroke="#85888A" stroke-width="2" stroke-miterlimit="10" stroke-linecap="round" stroke-linejoin="round"/>
<path d="M13.2822 16.0418V16.0234" stroke="#85888A" stroke-width="2" stroke-miterlimit="10" stroke-linecap="round" stroke-linejoin="round"/>
</svg>
