<svg width="160" height="127" viewBox="0 0 160 127" fill="none" xmlns="http://www.w3.org/2000/svg">
<path d="M82.1793 121.836C111.879 121.836 136.079 97.7359 136.079 68.1359C135.979 38.4359 111.879 14.3359 82.1793 14.3359C52.3793 14.3359 28.2793 38.4359 28.2793 68.0359C28.2793 97.7359 52.3793 121.836 82.1793 121.836Z" fill="#EAEEF9"/>
<path d="M137.379 49.3357C139.644 49.3357 141.479 47.5001 141.479 45.2357C141.479 42.9714 139.644 41.1357 137.379 41.1357C135.115 41.1357 133.279 42.9714 133.279 45.2357C133.279 47.5001 135.115 49.3357 137.379 49.3357Z" fill="#EAEEF9"/>
<path d="M143.378 33.3358C144.925 33.3358 146.178 32.0822 146.178 30.5358C146.178 28.9894 144.925 27.7358 143.378 27.7358C141.832 27.7358 140.578 28.9894 140.578 30.5358C140.578 32.0822 141.832 33.3358 143.378 33.3358Z" fill="#EAEEF9"/>
<path d="M23.6785 104.136C26.5504 104.136 28.8785 101.808 28.8785 98.9358C28.8785 96.064 26.5504 93.7358 23.6785 93.7358C20.8066 93.7358 18.4785 96.064 18.4785 98.9358C18.4785 101.808 20.8066 104.136 23.6785 104.136Z" fill="#EAEEF9"/>
<g filter="url(#filter0_d_11517_22130)">
<path d="M65.2575 81.8454C65.2575 86.495 61.4974 90.2551 56.8074 90.2551C56.7265 90.2551 56.0392 90.2551 50.9853 90.2551C47.4677 90.2551 41.8478 90.2551 32.872 90.2551H28.5863C22.9664 90.3764 18.4785 85.8886 18.4785 80.4708C18.4785 75.0126 23.0068 70.4843 28.7076 70.7673C33.5998 55.4843 55.9987 57.6271 57.899 73.4357C62.1038 73.9613 65.2575 77.5193 65.2575 81.8454Z" fill="url(#paint0_linear_11517_22130)"/>
</g>
<path d="M56.8076 90.255C61.4572 90.255 65.2577 86.4948 65.2577 81.8453C65.2577 77.1957 61.4572 73.4355 56.8076 73.4355C52.158 73.4355 48.3574 77.1957 48.3574 81.8453C48.3574 86.4948 52.158 90.255 56.8076 90.255Z" fill="url(#paint1_linear_11517_22130)"/>
<path d="M43.0209 90.3359C51.3093 90.3359 58.0613 83.6243 58.0613 75.3359C58.0613 67.0475 51.3093 60.3359 43.0209 60.3359C34.7325 60.3359 27.9805 67.0475 27.9805 75.3359C27.9805 83.6243 34.6921 90.3359 43.0209 90.3359Z" fill="url(#paint2_linear_11517_22130)"/>
<g filter="url(#filter1_d_11517_22130)">
<path d="M78.6233 40.6227C78.6233 47.037 73.4361 52.2242 66.966 52.2242C66.8544 52.2242 65.9062 52.2242 58.9342 52.2242C54.0816 52.2242 46.3287 52.2242 33.9463 52.2242H28.034C20.281 52.3915 14.0898 46.2003 14.0898 38.7263C14.0898 31.1965 20.3368 24.9495 28.2013 25.3399C34.9503 4.2564 65.8505 7.21255 68.472 29.0212C74.2727 29.7463 78.6233 34.6546 78.6233 40.6227Z" fill="url(#paint3_linear_11517_22130)"/>
</g>
<path d="M66.9659 52.2245C73.3802 52.2245 78.6232 47.0373 78.6232 40.623C78.6232 34.2087 73.3802 29.0215 66.9659 29.0215C60.5516 29.0215 55.3086 34.2087 55.3086 40.623C55.3086 47.0373 60.5516 52.2245 66.9659 52.2245Z" fill="url(#paint4_linear_11517_22130)"/>
<path d="M47.9461 52.3359C59.3803 52.3359 68.695 43.077 68.695 31.6428C68.695 20.2086 59.3803 10.9497 47.9461 10.9497C36.5119 10.9497 27.1973 20.2086 27.1973 31.6428C27.1973 43.077 36.4562 52.3359 47.9461 52.3359Z" fill="url(#paint5_linear_11517_22130)"/>
<path d="M63.5337 58.1449C63.5337 48.7774 71.1647 41.1615 80.5508 41.1615C89.9369 41.1615 97.5679 48.7774 97.5679 58.1449C97.5679 67.5125 89.9369 75.1284 80.5508 75.1284C71.1647 75.1284 63.5337 67.5886 63.5337 58.1449ZM80.5508 26.0059C62.0838 26.0059 47.0508 41.0092 47.0508 59.4396C47.0508 72.8436 64.7547 98.2045 74.446 107.648C76.5827 109.705 79.4824 110.542 82.2296 110.009C82.4585 110.009 82.6111 109.933 82.8401 109.857C82.9164 109.857 82.9927 109.857 83.069 109.781C84.3663 109.4 85.6635 108.638 86.7319 107.648C94.8207 99.7277 108.48 79.0125 112.754 66.5224C113.364 64.6946 113.822 62.8668 113.974 61.1151C114.051 60.5059 114.051 59.9727 114.051 59.3635C114.051 41.0092 99.0941 26.0059 80.5508 26.0059Z" fill="url(#paint6_linear_11517_22130)"/>
<path d="M80.5514 118.006C66.4341 118.006 52.0879 114.274 52.0879 107.191C52.0879 105.287 53.1562 102.546 58.269 100.185C59.261 99.7278 60.3293 100.185 60.7872 101.099C61.2451 102.089 60.7872 103.155 59.8715 103.612C56.8954 104.983 55.9034 106.354 55.9034 107.115C55.9034 110.009 65.5184 114.122 80.5514 114.122C95.5845 114.122 105.2 109.933 105.2 107.115C105.2 106.125 103.75 104.526 99.7815 103.003C98.7895 102.622 98.3316 101.556 98.7132 100.566C99.0947 99.5755 100.163 99.1186 101.155 99.4994C107.641 102.013 109.015 105.059 109.015 107.191C109.015 114.274 94.6688 118.006 80.5514 118.006Z" fill="#969EAE"/>
<g filter="url(#filter2_d_11517_22130)">
<path d="M141.478 85.2453C141.478 89.8949 137.718 93.6551 133.028 93.6551C132.947 93.6551 132.26 93.6551 127.206 93.6551C123.688 93.6551 118.068 93.6551 109.093 93.6551H104.807C99.1871 93.7763 94.6992 89.2885 94.6992 83.8707C94.6992 78.4125 99.2275 73.8842 104.928 74.1672C109.821 58.8842 132.219 61.027 134.12 76.8356C138.325 77.3612 141.478 80.9192 141.478 85.2453Z" fill="url(#paint7_linear_11517_22130)"/>
</g>
<path d="M133.028 93.6549C137.678 93.6549 141.478 89.8947 141.478 85.2452C141.478 80.5956 137.678 76.8354 133.028 76.8354C128.379 76.8354 124.578 80.5956 124.578 85.2452C124.578 89.8947 128.379 93.6549 133.028 93.6549Z" fill="url(#paint8_linear_11517_22130)"/>
<path d="M119.242 93.7358C127.53 93.7358 134.282 87.0242 134.282 78.7358C134.282 70.4474 127.53 63.7358 119.242 63.7358C110.953 63.7358 104.201 70.4474 104.201 78.7358C104.201 87.0242 110.913 93.7358 119.242 93.7358Z" fill="url(#paint9_linear_11517_22130)"/>
<defs>
<filter id="filter0_d_11517_22130" x="-3.52148" y="49.3726" width="90.7793" height="73.8848" filterUnits="userSpaceOnUse" color-interpolation-filters="sRGB">
<feFlood flood-opacity="0" result="BackgroundImageFix"/>
<feColorMatrix in="SourceAlpha" type="matrix" values="0 0 0 0 0 0 0 0 0 0 0 0 0 0 0 0 0 0 127 0" result="hardAlpha"/>
<feOffset dy="11"/>
<feGaussianBlur stdDeviation="11"/>
<feColorMatrix type="matrix" values="0 0 0 0 0.397708 0 0 0 0 0.47749 0 0 0 0 0.575 0 0 0 0.27 0"/>
<feBlend mode="normal" in2="BackgroundImageFix" result="effect1_dropShadow_11517_22130"/>
<feBlend mode="normal" in="SourceGraphic" in2="effect1_dropShadow_11517_22130" result="shape"/>
</filter>
<filter id="filter1_d_11517_22130" x="-7.91016" y="0" width="108.533" height="85.2275" filterUnits="userSpaceOnUse" color-interpolation-filters="sRGB">
<feFlood flood-opacity="0" result="BackgroundImageFix"/>
<feColorMatrix in="SourceAlpha" type="matrix" values="0 0 0 0 0 0 0 0 0 0 0 0 0 0 0 0 0 0 127 0" result="hardAlpha"/>
<feOffset dy="11"/>
<feGaussianBlur stdDeviation="11"/>
<feColorMatrix type="matrix" values="0 0 0 0 0.397708 0 0 0 0 0.47749 0 0 0 0 0.575 0 0 0 0.27 0"/>
<feBlend mode="normal" in2="BackgroundImageFix" result="effect1_dropShadow_11517_22130"/>
<feBlend mode="normal" in="SourceGraphic" in2="effect1_dropShadow_11517_22130" result="shape"/>
</filter>
<filter id="filter2_d_11517_22130" x="72.6992" y="52.7725" width="90.7793" height="73.8848" filterUnits="userSpaceOnUse" color-interpolation-filters="sRGB">
<feFlood flood-opacity="0" result="BackgroundImageFix"/>
<feColorMatrix in="SourceAlpha" type="matrix" values="0 0 0 0 0 0 0 0 0 0 0 0 0 0 0 0 0 0 127 0" result="hardAlpha"/>
<feOffset dy="11"/>
<feGaussianBlur stdDeviation="11"/>
<feColorMatrix type="matrix" values="0 0 0 0 0.397708 0 0 0 0 0.47749 0 0 0 0 0.575 0 0 0 0.27 0"/>
<feBlend mode="normal" in2="BackgroundImageFix" result="effect1_dropShadow_11517_22130"/>
<feBlend mode="normal" in="SourceGraphic" in2="effect1_dropShadow_11517_22130" result="shape"/>
</filter>
<linearGradient id="paint0_linear_11517_22130" x1="41.868" y1="72.7222" x2="41.8528" y2="90.5797" gradientUnits="userSpaceOnUse">
<stop stop-color="white"/>
<stop offset="0.9964" stop-color="#ECF0F5"/>
</linearGradient>
<linearGradient id="paint1_linear_11517_22130" x1="47.4582" y1="71.625" x2="54.9492" y2="79.8178" gradientUnits="userSpaceOnUse">
<stop stop-color="#BCCBE1"/>
<stop offset="0.9942" stop-color="white" stop-opacity="0"/>
</linearGradient>
<linearGradient id="paint2_linear_11517_22130" x1="26.5721" y1="68.4528" x2="38.3785" y2="73.0731" gradientUnits="userSpaceOnUse">
<stop stop-color="#E2E8F0"/>
<stop offset="0.9942" stop-color="white" stop-opacity="0"/>
</linearGradient>
<linearGradient id="paint3_linear_11517_22130" x1="46.3566" y1="28.0368" x2="46.3355" y2="52.672" gradientUnits="userSpaceOnUse">
<stop stop-color="white"/>
<stop offset="0.9964" stop-color="#ECF0F5"/>
</linearGradient>
<linearGradient id="paint4_linear_11517_22130" x1="54.0681" y1="26.5237" x2="64.4022" y2="37.8261" gradientUnits="userSpaceOnUse">
<stop stop-color="#BCCBE1"/>
<stop offset="0.9942" stop-color="white" stop-opacity="0"/>
</linearGradient>
<linearGradient id="paint5_linear_11517_22130" x1="25.2543" y1="22.1473" x2="41.5418" y2="28.5211" gradientUnits="userSpaceOnUse">
<stop stop-color="#E2E8F0"/>
<stop offset="0.9942" stop-color="white" stop-opacity="0"/>
</linearGradient>
<linearGradient id="paint6_linear_11517_22130" x1="80.5561" y1="28.9295" x2="80.5561" y2="76.1676" gradientUnits="userSpaceOnUse">
<stop stop-color="#B0BACC"/>
<stop offset="1" stop-color="#969EAE"/>
</linearGradient>
<linearGradient id="paint7_linear_11517_22130" x1="118.089" y1="76.1221" x2="118.073" y2="93.9796" gradientUnits="userSpaceOnUse">
<stop stop-color="white"/>
<stop offset="0.9964" stop-color="#ECF0F5"/>
</linearGradient>
<linearGradient id="paint8_linear_11517_22130" x1="123.679" y1="75.0249" x2="131.17" y2="83.2177" gradientUnits="userSpaceOnUse">
<stop stop-color="#BCCBE1"/>
<stop offset="0.9942" stop-color="white" stop-opacity="0"/>
</linearGradient>
<linearGradient id="paint9_linear_11517_22130" x1="102.793" y1="71.8527" x2="114.599" y2="76.473" gradientUnits="userSpaceOnUse">
<stop stop-color="#E2E8F0"/>
<stop offset="0.9942" stop-color="white" stop-opacity="0"/>
</linearGradient>
</defs>
</svg>
