<svg width="32" height="32" viewBox="0 0 32 32" fill="none" xmlns="http://www.w3.org/2000/svg">
<path opacity="0.4" fill-rule="evenodd" clip-rule="evenodd" d="M29.3333 19C29.8856 19 30.3333 19.4477 30.3333 20C30.3333 25.7123 25.7123 30.3333 20 30.3333C19.6397 30.3333 19.3073 30.1395 19.1298 29.826C18.9523 29.5125 18.9571 29.1278 19.1425 28.8188L20.5425 26.4855C20.8266 26.0119 21.4409 25.8584 21.9145 26.1425C22.3881 26.4267 22.5416 27.0409 22.2575 27.5145L21.8957 28.1174C25.5879 27.2608 28.3333 23.9554 28.3333 20C28.3333 19.4477 28.781 19 29.3333 19Z" fill="url(#paint0_linear_11799_2162)"/>
<path opacity="0.4" fill-rule="evenodd" clip-rule="evenodd" d="M10.1046 3.88254C6.41246 4.73911 3.66699 8.04452 3.66699 12C3.66699 12.5522 3.21928 13 2.66699 13C2.11471 13 1.66699 12.5522 1.66699 12C1.66699 6.28767 6.28804 1.66663 12.0003 1.66663C12.3606 1.66663 12.693 1.86042 12.8705 2.17392C13.048 2.48743 13.0432 2.87219 12.8578 3.18112L11.4578 5.51445C11.1737 5.98803 10.5594 6.1416 10.0858 5.85745C9.61227 5.57331 9.4587 4.95905 9.74285 4.48547L10.1046 3.88254Z" fill="url(#paint1_linear_11799_2162)"/>
<path opacity="0.4" d="M16.0003 20.9333V21.7467H2.66699V20.9333C2.66699 18.5867 3.25366 18 5.62699 18H13.0403C15.4137 18 16.0003 18.5867 16.0003 20.9333Z" fill="url(#paint2_linear_11799_2162)"/>
<path d="M2.66699 21.7467V23.7467V26.4C2.66699 28.7467 3.25366 29.3334 5.62699 29.3334H13.0403C15.4137 29.3334 16.0003 28.7467 16.0003 26.4V23.7467V21.7467H2.66699Z" fill="url(#paint3_linear_11799_2162)"/>
<path opacity="0.4" d="M29.3333 5.59996V6.41329H16V5.59996C16 3.25329 16.5867 2.66663 18.96 2.66663H26.3733C28.7467 2.66663 29.3333 3.25329 29.3333 5.59996Z" fill="url(#paint4_linear_11799_2162)"/>
<path d="M16 6.41333V8.41333V11.0667C16 13.4133 16.5867 14 18.96 14H26.3733C28.7467 14 29.3333 13.4133 29.3333 11.0667V8.41333V6.41333H16Z" fill="url(#paint5_linear_11799_2162)"/>
<defs>
<linearGradient id="paint0_linear_11799_2162" x1="19.5312" y1="20.2201" x2="29.9201" y2="20.2522" gradientUnits="userSpaceOnUse">
<stop stop-color="#E11B22"/>
<stop offset="1" stop-color="#FF343C"/>
</linearGradient>
<linearGradient id="paint1_linear_11799_2162" x1="2.19824" y1="2.88672" x2="12.5871" y2="2.91885" gradientUnits="userSpaceOnUse">
<stop stop-color="#E11B22"/>
<stop offset="1" stop-color="#FF343C"/>
</linearGradient>
<linearGradient id="paint2_linear_11799_2162" x1="3.29199" y1="18.4033" x2="15.5128" y2="18.5378" gradientUnits="userSpaceOnUse">
<stop stop-color="#E11B22"/>
<stop offset="1" stop-color="#FF343C"/>
</linearGradient>
<linearGradient id="paint3_linear_11799_2162" x1="3.29199" y1="22.5635" x2="15.514" y2="22.6299" gradientUnits="userSpaceOnUse">
<stop stop-color="#E11B22"/>
<stop offset="1" stop-color="#FF343C"/>
</linearGradient>
<linearGradient id="paint4_linear_11799_2162" x1="16.625" y1="3.06998" x2="28.8458" y2="3.20447" gradientUnits="userSpaceOnUse">
<stop stop-color="#E11B22"/>
<stop offset="1" stop-color="#FF343C"/>
</linearGradient>
<linearGradient id="paint5_linear_11799_2162" x1="16.625" y1="7.23008" x2="28.847" y2="7.2965" gradientUnits="userSpaceOnUse">
<stop stop-color="#E11B22"/>
<stop offset="1" stop-color="#FF343C"/>
</linearGradient>
</defs>
</svg>
