<svg width="54" height="54" viewBox="0 0 54 54" fill="none" xmlns="http://www.w3.org/2000/svg">
<rect width="54" height="54" rx="16" fill="url(#paint0_linear_11736_5276)"/>
<path opacity="0.4" fill-rule="evenodd" clip-rule="evenodd" d="M40.3333 30C40.8856 30 41.3333 30.4477 41.3333 31C41.3333 36.7123 36.7123 41.3333 31 41.3333C30.6397 41.3333 30.3073 41.1395 30.1298 40.826C29.9523 40.5125 29.9571 40.1278 30.1425 39.8188L31.5425 37.4855C31.8266 37.0119 32.4409 36.8584 32.9145 37.1425C33.3881 37.4266 33.5416 38.0409 33.2575 38.5145L32.8957 39.1174C36.5879 38.2608 39.3333 34.9554 39.3333 31C39.3333 30.4477 39.781 30 40.3333 30Z" fill="url(#paint1_linear_11736_5276)"/>
<path opacity="0.4" fill-rule="evenodd" clip-rule="evenodd" d="M21.1036 14.8827C17.4115 15.7392 14.666 19.0446 14.666 23.0001C14.666 23.5524 14.2183 24.0001 13.666 24.0001C13.1137 24.0001 12.666 23.5524 12.666 23.0001C12.666 17.2878 17.2871 12.6667 22.9993 12.6667C23.3596 12.6667 23.692 12.8605 23.8695 13.174C24.0471 13.4876 24.0422 13.8723 23.8568 14.1812L22.4569 16.5146C22.1727 16.9882 21.5585 17.1417 21.0849 16.8576C20.6113 16.5734 20.4577 15.9592 20.7419 15.4856L21.1036 14.8827Z" fill="url(#paint2_linear_11736_5276)"/>
<path opacity="0.4" d="M26.9993 31.9333V32.7467H13.666V31.9333C13.666 29.5867 14.2527 29 16.626 29H24.0393C26.4127 29 26.9993 29.5867 26.9993 31.9333Z" fill="url(#paint3_linear_11736_5276)"/>
<path d="M13.666 32.7466V34.7466V37.3999C13.666 39.7466 14.2527 40.3332 16.626 40.3332H24.0393C26.4127 40.3332 26.9993 39.7466 26.9993 37.3999V34.7466V32.7466H13.666Z" fill="url(#paint4_linear_11736_5276)"/>
<path opacity="0.4" d="M40.3333 16.6001V17.4134H27V16.6001C27 14.2534 27.5867 13.6667 29.96 13.6667H37.3733C39.7467 13.6667 40.3333 14.2534 40.3333 16.6001Z" fill="url(#paint5_linear_11736_5276)"/>
<path d="M27 17.4133V19.4133V22.0667C27 24.4133 27.5867 25 29.96 25H37.3733C39.7467 25 40.3333 24.4133 40.3333 22.0667V19.4133V17.4133H27Z" fill="url(#paint6_linear_11736_5276)"/>
<defs>
<linearGradient id="paint0_linear_11736_5276" x1="27" y1="0" x2="27" y2="54" gradientUnits="userSpaceOnUse">
<stop stop-color="#FFF4F4"/>
<stop offset="1" stop-color="#FDEDEE"/>
</linearGradient>
<linearGradient id="paint1_linear_11736_5276" x1="30.5312" y1="31.2201" x2="40.9201" y2="31.2522" gradientUnits="userSpaceOnUse">
<stop stop-color="#E11B22"/>
<stop offset="1" stop-color="#FF343C"/>
</linearGradient>
<linearGradient id="paint2_linear_11736_5276" x1="13.1973" y1="13.8868" x2="23.5861" y2="13.919" gradientUnits="userSpaceOnUse">
<stop stop-color="#E11B22"/>
<stop offset="1" stop-color="#FF343C"/>
</linearGradient>
<linearGradient id="paint3_linear_11736_5276" x1="14.291" y1="29.4033" x2="26.5119" y2="29.5378" gradientUnits="userSpaceOnUse">
<stop stop-color="#E11B22"/>
<stop offset="1" stop-color="#FF343C"/>
</linearGradient>
<linearGradient id="paint4_linear_11736_5276" x1="14.291" y1="33.5633" x2="26.513" y2="33.6298" gradientUnits="userSpaceOnUse">
<stop stop-color="#E11B22"/>
<stop offset="1" stop-color="#FF343C"/>
</linearGradient>
<linearGradient id="paint5_linear_11736_5276" x1="27.625" y1="14.0701" x2="39.8458" y2="14.2046" gradientUnits="userSpaceOnUse">
<stop stop-color="#E11B22"/>
<stop offset="1" stop-color="#FF343C"/>
</linearGradient>
<linearGradient id="paint6_linear_11736_5276" x1="27.625" y1="18.2301" x2="39.847" y2="18.2965" gradientUnits="userSpaceOnUse">
<stop stop-color="#E11B22"/>
<stop offset="1" stop-color="#FF343C"/>
</linearGradient>
</defs>
</svg>
