<svg width="36" height="36" viewBox="0 0 36 36" fill="none" xmlns="http://www.w3.org/2000/svg">
<g clip-path="url(#clip0_12434_28642)">
<path d="M18 36C27.9411 36 36 27.9411 36 18C36 8.05887 27.9411 0 18 0C8.05887 0 0 8.05887 0 18C0 27.9411 8.05887 36 18 36Z" fill="#F0F0F0"/>
<path d="M3.72097 7.0415C2.30705 8.88109 1.24091 11.0014 0.620117 13.3047H9.98419L3.72097 7.0415Z" fill="#0052B4"/>
<path d="M35.3791 13.3047C34.7583 11.0014 33.6921 8.88109 32.2782 7.0415L26.0151 13.3047H35.3791Z" fill="#0052B4"/>
<path d="M0.620117 22.6948C1.24098 24.9981 2.30712 27.1184 3.72097 28.9579L9.98398 22.6948H0.620117Z" fill="#0052B4"/>
<path d="M28.958 3.72104C27.1184 2.30713 24.9982 1.24098 22.6948 0.620117V9.98413L28.958 3.72104Z" fill="#0052B4"/>
<path d="M7.0415 32.2782C8.88109 33.6921 11.0014 34.7582 13.3047 35.3791V26.0151L7.0415 32.2782Z" fill="#0052B4"/>
<path d="M13.3046 0.620117C11.0013 1.24098 8.88102 2.30712 7.0415 3.72097L13.3046 9.98405V0.620117Z" fill="#0052B4"/>
<path d="M22.6948 35.3791C24.9981 34.7582 27.1184 33.6921 28.9579 32.2782L22.6948 26.0151V35.3791Z" fill="#0052B4"/>
<path d="M26.0151 22.6948L32.2782 28.958C33.6921 27.1185 34.7583 24.9981 35.3791 22.6948H26.0151Z" fill="#0052B4"/>
<path d="M35.8476 15.6522H20.3479H20.3479V0.152367C19.5793 0.0523125 18.7957 0 18 0C17.2041 0 16.4207 0.0523125 15.6522 0.152367V15.6521V15.6521H0.152367C0.0523125 16.4207 0 17.2043 0 18C0 18.7959 0.0523125 19.5793 0.152367 20.3478H15.6521H15.6521V35.8476C16.4207 35.9477 17.2041 36 18 36C18.7957 36 19.5793 35.9478 20.3478 35.8476V20.3479V20.3479H35.8476C35.9477 19.5793 36 18.7959 36 18C36 17.2043 35.9477 16.4207 35.8476 15.6522Z" fill="#D80027"/>
<path d="M22.6953 22.6954L30.7275 30.7276C31.097 30.3583 31.4494 29.9722 31.7856 29.572L24.9089 22.6953H22.6953V22.6954Z" fill="#D80027"/>
<path d="M13.3038 22.6953H13.3036L5.27148 30.7275C5.64077 31.0969 6.02685 31.4493 6.42707 31.7855L13.3038 24.9087V22.6953Z" fill="#D80027"/>
<path d="M13.3037 13.3039V13.3038L5.27144 5.27148C4.90202 5.64077 4.54961 6.02685 4.21338 6.42707L11.0902 13.3038H13.3037V13.3039Z" fill="#D80027"/>
<path d="M22.6953 13.3037L30.7276 5.27137C30.3583 4.90195 29.9722 4.54954 29.572 4.21338L22.6953 11.0902V13.3037Z" fill="#D80027"/>
</g>
<defs>
<clipPath id="clip0_12434_28642">
<rect width="36" height="36" fill="white"/>
</clipPath>
</defs>
</svg>
