<svg width="153" height="146" viewBox="0 0 153 146" fill="none" xmlns="http://www.w3.org/2000/svg">
<path d="M78.4379 132.359C109.68 132.359 135.009 107.03 135.009 75.6765C135.009 44.3227 109.569 18.9941 78.4379 18.9941C47.1957 18.9941 21.8672 44.3227 21.8672 75.6765C21.8672 107.03 47.1957 132.359 78.4379 132.359Z" fill="#EAEEF9"/>
<path d="M138.528 112.247C141.054 112.247 143.103 110.199 143.103 107.672C143.103 105.146 141.054 103.098 138.528 103.098C136.001 103.098 133.953 105.146 133.953 107.672C133.953 110.199 136.001 112.247 138.528 112.247Z" fill="#EAEEF9"/>
<path d="M145.22 94.3949C146.945 94.3949 148.344 92.9962 148.344 91.2707C148.344 89.5452 146.945 88.1465 145.22 88.1465C143.494 88.1465 142.096 89.5452 142.096 91.2707C142.096 92.9962 143.494 94.3949 145.22 94.3949Z" fill="#EAEEF9"/>
<path d="M24.882 38.4086C26.6075 38.4086 28.0063 37.0098 28.0063 35.2844C28.0063 33.5589 26.6075 32.1602 24.882 32.1602C23.1566 32.1602 21.7578 33.5589 21.7578 35.2844C21.7578 37.0098 23.1566 38.4086 24.882 38.4086Z" fill="#EAEEF9"/>
<path d="M5.80213 98.6609C9.00656 98.6609 11.6043 96.0632 11.6043 92.8588C11.6043 89.6543 9.00656 87.0566 5.80213 87.0566C2.5977 87.0566 0 89.6543 0 92.8588C0 96.0632 2.5977 98.6609 5.80213 98.6609Z" fill="#EAEEF9"/>
<path d="M85.5355 96.2246H72.9637C70.0507 96.2246 67.5977 98.9118 67.5977 102.103V108.989C67.5977 116.043 72.8104 121.753 79.2496 121.753C85.6888 121.753 90.9016 116.043 90.9016 108.989V102.103C90.9016 98.7439 88.4485 96.2246 85.5355 96.2246Z" fill="white"/>
<g filter="url(#filter0_d_11517_22033)">
<path d="M78.1377 22.7832C81.6638 22.7833 84.4238 25.5423 84.4238 29.0674V30.2412C96.7246 33.0869 105.887 44.1036 105.887 57.2686V60.7939C105.887 90.528 128.271 109.993 128.271 109.993H27.8496C27.8869 109.961 50.3867 90.5034 50.3867 60.7939V57.2686C50.3869 44.1032 59.5502 33.0864 71.8516 30.2412V29.0674C71.8516 25.5422 74.6115 22.7832 78.1377 22.7832Z" fill="url(#paint0_linear_11517_22033)"/>
</g>
<path d="M66.4844 72.9029C62.6516 72.9029 59.4319 70.4506 58.2054 66.9255C57.8988 66.1591 58.3587 65.3928 59.1253 65.0863C59.8919 64.7797 60.6585 65.2395 60.9651 66.0059C61.7317 68.3049 64.0314 69.9908 66.4844 69.9908C68.9375 69.9908 71.2372 68.4582 72.0038 66.0059C72.3104 65.2395 73.077 64.7797 73.8436 65.0863C74.6101 65.3928 75.0701 66.1591 74.7635 66.9255C73.5369 70.6039 70.3173 72.9029 66.4844 72.9029Z" fill="#ADB6C8"/>
<path d="M89.6348 72.9029C85.8019 72.9029 82.5823 70.4506 81.3558 66.9255C81.0492 66.1591 81.5091 65.3928 82.2757 65.0863C83.0423 64.7797 83.8089 65.2395 84.1155 66.0059C84.8821 68.3049 87.1818 69.9908 89.6348 69.9908C92.0879 69.9908 94.3876 68.4582 95.1542 66.0059C95.4608 65.2395 96.2274 64.7797 96.994 65.0863C97.7605 65.3928 98.2205 66.1591 97.9139 66.9255C96.6873 70.6039 93.4677 72.9029 89.6348 72.9029Z" fill="#ADB6C8"/>
<path d="M78.1356 91.6714C80.0831 91.6714 81.6619 90.0932 81.6619 88.1463C81.6619 86.1994 80.0831 84.6211 78.1356 84.6211C76.1881 84.6211 74.6094 86.1994 74.6094 88.1463C74.6094 90.0932 76.1881 91.6714 78.1356 91.6714Z" fill="#ADB6C8"/>
<path d="M97.0319 5.18807V0H117.083V5.18807L103.401 21.6956H117.319V26.8837H96.3242V21.6956L110.006 5.18807H97.0319Z" fill="url(#paint1_linear_11517_22033)"/>
<path d="M113.544 44.0964V40.7949H126.518V44.0964L117.79 54.7084H126.754V58.0099H113.072V54.7084L121.8 44.0964H113.544Z" fill="url(#paint2_linear_11517_22033)"/>
<defs>
<filter id="filter0_d_11517_22033" x="3.30214" y="10.5095" width="149.517" height="136.305" filterUnits="userSpaceOnUse" color-interpolation-filters="sRGB">
<feFlood flood-opacity="0" result="BackgroundImageFix"/>
<feColorMatrix in="SourceAlpha" type="matrix" values="0 0 0 0 0 0 0 0 0 0 0 0 0 0 0 0 0 0 127 0" result="hardAlpha"/>
<feOffset dy="12.2737"/>
<feGaussianBlur stdDeviation="12.2737"/>
<feColorMatrix type="matrix" values="0 0 0 0 0.397708 0 0 0 0 0.47749 0 0 0 0 0.575 0 0 0 0.27 0"/>
<feBlend mode="normal" in2="BackgroundImageFix" result="effect1_dropShadow_11517_22033"/>
<feBlend mode="normal" in="SourceGraphic" in2="effect1_dropShadow_11517_22033" result="shape"/>
</filter>
<linearGradient id="paint0_linear_11517_22033" x1="78.0278" y1="20.766" x2="78.0278" y2="110.933" gradientUnits="userSpaceOnUse">
<stop stop-color="#FDFEFF"/>
<stop offset="0.9964" stop-color="#ECF0F5"/>
</linearGradient>
<linearGradient id="paint1_linear_11517_22033" x1="106.823" y1="0.933907" x2="106.823" y2="16.0234" gradientUnits="userSpaceOnUse">
<stop stop-color="#B0BACC"/>
<stop offset="1" stop-color="#969EAE"/>
</linearGradient>
<linearGradient id="paint2_linear_11517_22033" x1="119.914" y1="41.3929" x2="119.914" y2="51.0555" gradientUnits="userSpaceOnUse">
<stop stop-color="#B0BACC"/>
<stop offset="1" stop-color="#969EAE"/>
</linearGradient>
</defs>
</svg>
