<svg width="54" height="54" viewBox="0 0 54 54" fill="none" xmlns="http://www.w3.org/2000/svg">
<rect width="54" height="54" rx="16" fill="url(#paint0_linear_12362_3594)"/>
<path opacity="0.4" d="M37.8 20.2534C37.8 20.9734 37.4134 21.6267 36.8 21.96L34.48 23.2134L32.5067 24.2667L28.4133 26.48C27.9733 26.72 27.4934 26.8401 27 26.8401C26.5067 26.8401 26.0267 26.72 25.5867 26.48L17.2 21.96C16.5867 21.6267 16.2 20.9734 16.2 20.2534C16.2 19.5334 16.5867 18.88 17.2 18.5467L19.8267 17.1334L21.92 16.0001L25.5867 14.0267C26.4667 13.5467 27.5333 13.5467 28.4133 14.0267L36.8 18.5467C37.4134 18.88 37.8 19.5334 37.8 20.2534Z" fill="url(#paint1_linear_12362_3594)"/>
<path opacity="0.4" d="M24.2 28.0534L16.4 24.1468C15.8 23.8401 15.1066 23.8801 14.5333 24.2268C13.96 24.5734 13.6266 25.1868 13.6266 25.8535V33.2268C13.6266 34.5068 14.3333 35.6534 15.48 36.2268L23.28 40.1201C23.5466 40.2535 23.84 40.3201 24.1333 40.3201C24.48 40.3201 24.8267 40.2268 25.1333 40.0268C25.7067 39.6801 26.04 39.0668 26.04 38.4001V31.0268C26.0533 29.7735 25.3466 28.6268 24.2 28.0534Z" fill="url(#paint2_linear_12362_3594)"/>
<path opacity="0.4" d="M40.3733 25.8668V33.2401C40.3733 34.5068 39.6667 35.6534 38.52 36.2267L30.72 40.1334C30.4533 40.2667 30.16 40.3334 29.8667 40.3334C29.52 40.3334 29.1734 40.2401 28.8534 40.0401C28.2934 39.6935 27.9467 39.0801 27.9467 38.4134V31.0534C27.9467 29.7734 28.6533 28.6267 29.8 28.0534L32.6667 26.6267L34.6667 25.6267L37.6 24.1601C38.2 23.8534 38.8933 23.8801 39.4667 24.2401C40.0267 24.5868 40.3733 25.2001 40.3733 25.8668Z" fill="#E11B22"/>
<path d="M41.1333 39.8534L40.12 38.84C40.6533 38.04 40.96 37.08 40.96 36.0533C40.96 33.24 38.68 30.96 35.8667 30.96C33.0533 30.96 30.7733 33.24 30.7733 36.0533C30.7733 38.8666 33.0533 41.1466 35.8667 41.1466C36.8933 41.1466 37.8533 40.84 38.6533 40.3066L39.6667 41.32C39.8667 41.52 40.1333 41.6266 40.4 41.6266C40.6666 41.6266 40.9333 41.52 41.1333 41.32C41.5333 40.9067 41.5333 40.2534 41.1333 39.8534Z" fill="#E11B22"/>
<defs>
<linearGradient id="paint0_linear_12362_3594" x1="27" y1="0" x2="27" y2="54" gradientUnits="userSpaceOnUse">
<stop stop-color="#FFF4F4"/>
<stop offset="1" stop-color="#FDEDEE"/>
</linearGradient>
<linearGradient id="paint1_linear_12362_3594" x1="17.2125" y1="15.0849" x2="37.0122" y2="15.1853" gradientUnits="userSpaceOnUse">
<stop stop-color="#E11B22"/>
<stop offset="1" stop-color="#FF343C"/>
</linearGradient>
<linearGradient id="paint2_linear_12362_3594" x1="14.2085" y1="25.7031" x2="25.5876" y2="25.7298" gradientUnits="userSpaceOnUse">
<stop stop-color="#E11B22"/>
<stop offset="1" stop-color="#FF343C"/>
</linearGradient>
</defs>
</svg>
