<svg width="54" height="54" viewBox="0 0 54 54" fill="none" xmlns="http://www.w3.org/2000/svg">
<rect width="54" height="54" rx="16" fill="url(#paint0_linear_12372_28583)"/>
<path d="M40.3333 19.0001V22.2267C40.3333 24.3334 39 25.6667 36.8933 25.6667H32.3333V16.3467C32.3333 14.8667 33.5467 13.6667 35.0267 13.6667C36.48 13.6801 37.8133 14.2667 38.7733 15.2267C39.7333 16.2001 40.3333 17.5334 40.3333 19.0001Z" fill="#E1251B"/>
<path opacity="0.4" d="M13.6667 20.3334V39.0001C13.6667 40.1067 14.92 40.7334 15.8 40.0667L18.08 38.3601C18.6134 37.9601 19.36 38.0134 19.84 38.4934L22.0533 40.7201C22.5733 41.2401 23.4267 41.2401 23.9467 40.7201L26.1867 38.4801C26.6534 38.0134 27.4 37.9601 27.92 38.3601L30.2 40.0667C31.08 40.7201 32.3334 40.0934 32.3334 39.0001V16.3334C32.3334 14.8667 33.5334 13.6667 35 13.6667H20.3334H19C15 13.6667 13.6667 16.0534 13.6667 19.0001V20.3334Z" fill="#E1251B"/>
<path d="M27 24H19C18.4533 24 18 23.5467 18 23C18 22.4533 18.4533 22 19 22H27C27.5467 22 28 22.4533 28 23C28 23.5467 27.5467 24 27 24Z" fill="#E1251B"/>
<path d="M26 29.3333H20C19.4533 29.3333 19 28.8799 19 28.3333C19 27.7866 19.4533 27.3333 20 27.3333H26C26.5467 27.3333 27 27.7866 27 28.3333C27 28.8799 26.5467 29.3333 26 29.3333Z" fill="#E1251B"/>
<defs>
<linearGradient id="paint0_linear_12372_28583" x1="27" y1="0" x2="27" y2="54" gradientUnits="userSpaceOnUse">
<stop stop-color="#FFF4F4"/>
<stop offset="1" stop-color="#FDEDEE"/>
</linearGradient>
</defs>
</svg>
