<svg width="54" height="54" viewBox="0 0 54 54" fill="none" xmlns="http://www.w3.org/2000/svg">
<rect width="54" height="54" rx="16" fill="url(#paint0_linear_12362_15308)"/>
<path opacity="0.4" d="M35 36.1466H33.9867C32.92 36.1466 31.9067 36.5599 31.16 37.3066L28.88 39.5599C27.84 40.5866 26.1467 40.5866 25.1067 39.5599L22.8267 37.3066C22.08 36.5599 21.0533 36.1466 20 36.1466H19C16.7867 36.1466 15 34.3733 15 32.1866V17.6399C15 15.4532 16.7867 13.6799 19 13.6799H35C37.2133 13.6799 39 15.4532 39 17.6399V32.1866C39 34.3599 37.2133 36.1466 35 36.1466Z" fill="url(#paint1_linear_12362_15308)"/>
<path d="M33.1067 23.76C32.8534 23.4 32.4267 23.2 31.92 23.2H29.32C29.1467 23.2 28.9867 23.1333 28.88 23C28.7734 22.8666 28.72 22.6933 28.7467 22.5066L29.0667 20.4266C29.2 19.8133 28.7867 19.1066 28.1734 18.9066C27.6 18.6933 26.92 18.9866 26.6534 19.3866L24.0667 23.2266V22.7466C24.0667 21.8133 23.6667 21.4266 22.68 21.4266H22.0267C21.04 21.4266 20.64 21.8133 20.64 22.7466V29.12C20.64 30.0533 21.04 30.44 22.0267 30.44H22.68C23.6133 30.44 24.0133 30.0799 24.0533 29.2266L26.0133 30.7333C26.28 31 26.88 31.1466 27.3067 31.1466H29.7734C30.6267 31.1466 31.48 30.5066 31.6667 29.7199L33.2267 24.9733C33.4 24.5466 33.36 24.1066 33.1067 23.76Z" fill="url(#paint2_linear_12362_15308)"/>
<defs>
<linearGradient id="paint0_linear_12362_15308" x1="27" y1="0" x2="27" y2="54" gradientUnits="userSpaceOnUse">
<stop stop-color="#FFF4F4"/>
<stop offset="1" stop-color="#FDEDEE"/>
</linearGradient>
<linearGradient id="paint1_linear_12362_15308" x1="16.125" y1="16.5489" x2="38.125" y2="16.6102" gradientUnits="userSpaceOnUse">
<stop stop-color="#E11B22"/>
<stop offset="1" stop-color="#FF343C"/>
</linearGradient>
<linearGradient id="paint2_linear_12362_15308" x1="21.235" y1="20.1604" x2="32.8695" y2="20.1975" gradientUnits="userSpaceOnUse">
<stop stop-color="#E11B22"/>
<stop offset="1" stop-color="#FF343C"/>
</linearGradient>
</defs>
</svg>
