<svg width="54" height="54" viewBox="0 0 54 54" fill="none" xmlns="http://www.w3.org/2000/svg">
<rect width="54" height="54" rx="16" fill="url(#paint0_linear_12362_19389)"/>
<path opacity="0.4" d="M23 13.6667C19.5067 13.6667 16.6667 16.5067 16.6667 20.0001C16.6667 23.4267 19.3467 26.2001 22.84 26.3201C22.9467 26.3067 23.0534 26.3067 23.1334 26.3201C23.16 26.3201 23.1734 26.3201 23.2 26.3201C23.2134 26.3201 23.2134 26.3201 23.2267 26.3201C26.64 26.2001 29.32 23.4267 29.3334 20.0001C29.3334 16.5067 26.4934 13.6667 23 13.6667Z" fill="url(#paint1_linear_12362_19389)"/>
<path opacity="0.4" d="M29.7733 29.8666C26.0533 27.3866 19.9867 27.3866 16.24 29.8666C14.5467 30.9999 13.6133 32.5333 13.6133 34.1733C13.6133 35.8133 14.5467 37.3333 16.2267 38.4533C18.0933 39.7066 20.5467 40.3333 23 40.3333C25.4533 40.3333 27.9067 39.7066 29.7733 38.4533C31.4533 37.3199 32.3867 35.7999 32.3867 34.1466C32.3733 32.5066 31.4533 30.9866 29.7733 29.8666Z" fill="url(#paint2_linear_12362_19389)"/>
<path opacity="0.4" d="M37.6533 20.7866C37.8666 23.3733 36.0266 25.64 33.48 25.9466C33.4666 25.9466 33.4666 25.9466 33.4533 25.9466H33.4133C33.3333 25.9466 33.2533 25.9466 33.1866 25.9733C31.8933 26.04 30.7066 25.6266 29.8133 24.8666C31.1866 23.64 31.9733 21.8 31.8133 19.8C31.72 18.72 31.3466 17.7333 30.7866 16.8933C31.2933 16.64 31.88 16.48 32.48 16.4266C35.0933 16.2 37.4266 18.1466 37.6533 20.7866Z" fill="url(#paint3_linear_12362_19389)"/>
<path d="M40.32 33.1201C40.2134 34.4135 39.3867 35.5335 38 36.2935C36.6667 37.0268 34.9867 37.3735 33.32 37.3335C34.28 36.4668 34.84 35.3868 34.9467 34.2401C35.08 32.5868 34.2934 31.0001 32.72 29.7335C31.8267 29.0268 30.7867 28.4668 29.6534 28.0535C32.6 27.2001 36.3067 27.7735 38.5867 29.6135C39.8134 30.6001 40.44 31.8401 40.32 33.1201Z" fill="url(#paint4_linear_12362_19389)"/>
<defs>
<linearGradient id="paint0_linear_12362_19389" x1="27" y1="0" x2="27" y2="54" gradientUnits="userSpaceOnUse">
<stop stop-color="#FFF4F4"/>
<stop offset="1" stop-color="#FDEDEE"/>
</linearGradient>
<linearGradient id="paint1_linear_12362_19389" x1="17.2604" y1="15.0289" x2="28.8715" y2="15.0649" gradientUnits="userSpaceOnUse">
<stop stop-color="#E11B22"/>
<stop offset="1" stop-color="#FF343C"/>
</linearGradient>
<linearGradient id="paint2_linear_12362_19389" x1="14.4933" y1="29.3336" x2="31.702" y2="29.4147" gradientUnits="userSpaceOnUse">
<stop stop-color="#E11B22"/>
<stop offset="1" stop-color="#FF343C"/>
</linearGradient>
<linearGradient id="paint3_linear_12362_19389" x1="30.1816" y1="17.4391" x2="37.3837" y2="17.4574" gradientUnits="userSpaceOnUse">
<stop stop-color="#E11B22"/>
<stop offset="1" stop-color="#FF343C"/>
</linearGradient>
<linearGradient id="paint4_linear_12362_19389" x1="30.1541" y1="28.7073" x2="39.9451" y2="28.7408" gradientUnits="userSpaceOnUse">
<stop stop-color="#E11B22"/>
<stop offset="1" stop-color="#FF343C"/>
</linearGradient>
</defs>
</svg>
