<svg width="54" height="54" viewBox="0 0 54 54" fill="none" xmlns="http://www.w3.org/2000/svg">
<rect width="54" height="54" rx="16" fill="url(#paint0_linear_12362_18284)"/>
<path opacity="0.4" d="M33.6666 23.0001C33.6666 28.1601 29.1866 32.3334 23.6666 32.3334L22.4266 33.8267L21.6933 34.7068C21.0666 35.4535 19.8666 35.2934 19.4533 34.4001L17.6666 30.4667C15.24 28.76 13.6666 26.0534 13.6666 23.0001C13.6666 17.8401 18.1466 13.6667 23.6666 13.6667C27.6933 13.6667 31.1733 15.8934 32.7333 19.0934C33.3333 20.2801 33.6666 21.6001 33.6666 23.0001Z" fill="url(#paint1_linear_12362_18284)"/>
<path d="M40.3333 28.1466C40.3333 31.1999 38.76 33.9066 36.3333 35.6133L34.5466 39.5466C34.1333 40.4399 32.9333 40.6133 32.3066 39.8533L30.3333 37.4799C27.1066 37.4799 24.2266 36.0532 22.4266 33.8266L23.6666 32.3333C29.1866 32.3333 33.6666 28.1599 33.6666 22.9999C33.6666 21.5999 33.3333 20.2799 32.7333 19.0933C37.0933 20.0933 40.3333 23.7732 40.3333 28.1466Z" fill="url(#paint2_linear_12362_18284)"/>
<path d="M27 24H20.3334C19.7867 24 19.3334 23.5467 19.3334 23C19.3334 22.4533 19.7867 22 20.3334 22H27C27.5467 22 28 22.4533 28 23C28 23.5467 27.5467 24 27 24Z" fill="url(#paint3_linear_12362_18284)"/>
<defs>
<linearGradient id="paint0_linear_12362_18284" x1="27" y1="0" x2="27" y2="54" gradientUnits="userSpaceOnUse">
<stop stop-color="#FFF4F4"/>
<stop offset="1" stop-color="#FDEDEE"/>
</linearGradient>
<linearGradient id="paint1_linear_12362_18284" x1="14.6041" y1="15.9829" x2="32.9375" y2="16.0356" gradientUnits="userSpaceOnUse">
<stop stop-color="#E11B22"/>
<stop offset="1" stop-color="#FF343C"/>
</linearGradient>
<linearGradient id="paint2_linear_12362_18284" x1="23.266" y1="21.3798" x2="39.6805" y2="21.4226" gradientUnits="userSpaceOnUse">
<stop stop-color="#E11B22"/>
<stop offset="1" stop-color="#FF343C"/>
</linearGradient>
<linearGradient id="paint3_linear_12362_18284" x1="19.7396" y1="22.2153" x2="27.6827" y2="22.3218" gradientUnits="userSpaceOnUse">
<stop stop-color="#E11B22"/>
<stop offset="1" stop-color="#FF343C"/>
</linearGradient>
</defs>
</svg>
