<svg width="32" height="32" viewBox="0 0 32 32" fill="none" xmlns="http://www.w3.org/2000/svg">
<path d="M26 2C25.7348 2 25.4804 2.10536 25.2929 2.29289C25.1054 2.48043 25 2.73478 25 3V9C25 9.26522 24.8946 9.51957 24.7071 9.70711C24.5196 9.89464 24.2652 10 24 10H23V3C23 2.73478 22.8946 2.48043 22.7071 2.29289C22.5196 2.10536 22.2652 2 22 2C21.7348 2 21.4804 2.10536 21.2929 2.29289C21.1054 2.48043 21 2.73478 21 3V10H20C19.7348 10 19.4804 9.89464 19.2929 9.70711C19.1054 9.51957 19 9.26522 19 9V3C19 2.73478 18.8946 2.48043 18.7071 2.29289C18.5196 2.10536 18.2652 2 18 2C17.7348 2 17.4804 2.10536 17.2929 2.29289C17.1054 2.48043 17 2.73478 17 3V10C17.0037 11.0198 17.3191 12.0141 17.9039 12.8495C18.4887 13.6849 19.315 14.3216 20.272 14.674L19.585 28.314C19.5925 28.5493 19.6474 28.7806 19.7466 28.9941C19.8457 29.2076 19.987 29.3989 20.162 29.5564C20.337 29.7139 20.542 29.8344 20.7647 29.9106C20.9874 29.9868 21.2232 30.0172 21.458 30H22.542C22.7768 30.0172 23.0126 29.9868 23.2353 29.9106C23.458 29.8344 23.663 29.7139 23.838 29.5564C24.013 29.3989 24.1543 29.2076 24.2534 28.9941C24.3526 28.7806 24.4075 28.5493 24.415 28.314L23.727 14.674C24.6847 14.3226 25.5118 13.6862 26.097 12.8506C26.6821 12.015 26.9973 11.0201 27 10V3C27 2.73478 26.8946 2.48043 26.7071 2.29289C26.5196 2.10536 26.2652 2 26 2Z" fill="url(#paint0_linear_13012_20269)"/>
<path opacity="0.4" d="M10 2C7.239 2 5 5.97 5 9.538C5 12.32 6.367 14.022 8.275 14.644L7.585 28.314C7.59246 28.5493 7.64742 28.7806 7.74657 28.9941C7.84573 29.2076 7.98704 29.3989 8.162 29.5564C8.33696 29.7139 8.54196 29.8344 8.76468 29.9106C8.98739 29.9868 9.22323 30.0172 9.458 30H10.542C10.7768 30.0172 11.0126 29.9868 11.2353 29.9106C11.458 29.8344 11.663 29.7139 11.838 29.5564C12.013 29.3989 12.1543 29.2076 12.2534 28.9941C12.3526 28.7806 12.4075 28.5493 12.415 28.314L11.725 14.644C13.633 14.022 15 12.32 15 9.538C15 5.97 12.761 2 10 2Z" fill="url(#paint1_linear_13012_20269)"/>
<defs>
<linearGradient id="paint0_linear_13012_20269" x1="17.4687" y1="5.01486" x2="26.6355" y2="5.02498" gradientUnits="userSpaceOnUse">
<stop stop-color="#E11B22"/>
<stop offset="1" stop-color="#FF343C"/>
</linearGradient>
<linearGradient id="paint1_linear_13012_20269" x1="5.46875" y1="5.01486" x2="14.6355" y2="5.02498" gradientUnits="userSpaceOnUse">
<stop stop-color="#E11B22"/>
<stop offset="1" stop-color="#FF343C"/>
</linearGradient>
</defs>
</svg>
