<svg width="54" height="54" viewBox="0 0 54 54" fill="none" xmlns="http://www.w3.org/2000/svg">
<rect width="54" height="54" rx="16" fill="url(#paint0_linear_11707_9141)"/>
<path opacity="0.4" d="M32.587 13.6667H21.427C16.5603 13.6667 13.667 16.5601 13.667 21.4134V32.5734C13.667 37.4267 16.5603 40.3201 21.4137 40.3201H32.5737C37.427 40.3201 40.3203 37.4267 40.3203 32.5734V21.4134C40.3337 16.5601 37.4403 13.6667 32.587 13.6667Z" fill="url(#paint1_linear_11707_9141)"/>
<path d="M34.9997 25.28C34.7864 25.28 34.573 25.2134 34.3864 25.0667C29.893 21.6 24.093 21.6 19.613 25.0667C19.173 25.4 18.5464 25.32 18.213 24.8934C17.8797 24.4534 17.9597 23.8267 18.3864 23.4934C23.613 19.4534 30.373 19.4534 35.613 23.4934C36.053 23.8267 36.133 24.4534 35.7864 24.8934C35.5997 25.1467 35.293 25.28 34.9997 25.28Z" fill="url(#paint2_linear_11707_9141)"/>
<path d="M32.8665 29.4002C32.6532 29.4002 32.4398 29.3335 32.2532 29.1868C29.0532 26.7202 24.9332 26.7202 21.7332 29.1868C21.2932 29.5202 20.6665 29.4402 20.3332 29.0135C19.9998 28.5868 20.0798 27.9468 20.5065 27.6135C24.4398 24.5735 29.5332 24.5735 33.4665 27.6135C33.9065 27.9468 33.9865 28.5735 33.6398 29.0135C33.4665 29.2668 33.1732 29.4002 32.8665 29.4002Z" fill="url(#paint3_linear_11707_9141)"/>
<path d="M29.9334 33.5201C29.7201 33.5201 29.5068 33.4534 29.3201 33.3068C27.9068 32.2134 26.0801 32.2134 24.6668 33.3068C24.2268 33.6401 23.6001 33.5601 23.2668 33.1334C22.9334 32.6934 23.0134 32.0668 23.4401 31.7334C25.5601 30.0934 28.4134 30.0934 30.5334 31.7334C30.9734 32.0668 31.0534 32.6934 30.7068 33.1334C30.5334 33.3868 30.2401 33.5201 29.9334 33.5201Z" fill="url(#paint4_linear_11707_9141)"/>
<defs>
<linearGradient id="paint0_linear_11707_9141" x1="27" y1="0" x2="27" y2="54" gradientUnits="userSpaceOnUse">
<stop stop-color="#FFF4F4"/>
<stop offset="1" stop-color="#FDEDEE"/>
</linearGradient>
<linearGradient id="paint1_linear_11707_9141" x1="14.9164" y1="16.5361" x2="39.3486" y2="16.6117" gradientUnits="userSpaceOnUse">
<stop stop-color="#E11B22"/>
<stop offset="1" stop-color="#FF343C"/>
</linearGradient>
<linearGradient id="paint2_linear_11707_9141" x1="18.8504" y1="20.9819" x2="35.3442" y2="21.1725" gradientUnits="userSpaceOnUse">
<stop stop-color="#E11B22"/>
<stop offset="1" stop-color="#FF343C"/>
</linearGradient>
<linearGradient id="paint3_linear_11707_9141" x1="20.7705" y1="25.7713" x2="33.354" y2="25.9027" gradientUnits="userSpaceOnUse">
<stop stop-color="#E11B22"/>
<stop offset="1" stop-color="#FF343C"/>
</linearGradient>
<linearGradient id="paint4_linear_11707_9141" x1="23.4291" y1="30.8282" x2="30.6357" y2="30.8863" gradientUnits="userSpaceOnUse">
<stop stop-color="#E11B22"/>
<stop offset="1" stop-color="#FF343C"/>
</linearGradient>
</defs>
</svg>
