<svg width="14" height="14" viewBox="0 0 14 14" fill="none" xmlns="http://www.w3.org/2000/svg">
<g clip-path="url(#clip0_11092_10304)">
<path d="M6.99984 4.08342C6.18945 4.08633 5.02794 4.32866 4.61969 4.41971C4.52638 4.44053 4.4296 4.41414 4.35206 4.35821C4.11234 4.18529 3.81799 4.08342 3.49984 4.08342C2.7645 4.08342 2.2334 5.2974 1.84063 6.51684C1.36807 7.98401 1.1665 9.54202 1.1665 11.0834C1.1665 12.0499 1.95001 12.8334 2.9165 12.8334C3.46447 12.8334 3.95362 12.5816 4.2745 12.1873L4.58711 11.771C5.21922 10.9293 5.94717 9.91675 6.99984 9.91675C8.0525 9.91675 8.78045 10.9293 9.41256 11.771L9.72518 12.1873C10.0461 12.5816 10.5352 12.8334 11.0832 12.8334C12.0497 12.8334 12.8332 12.0499 12.8332 11.0834C12.8332 9.53915 12.6757 7.97676 12.2799 6.48408C11.9573 5.26753 11.4745 4.08342 10.5648 4.08342C10.2466 4.08342 9.95216 4.18535 9.71241 4.35836C9.635 4.41422 9.53855 4.44067 9.44535 4.42003C9.03035 4.32811 7.83344 4.08042 6.99984 4.08342ZM6.99984 4.08342L6.67244 3.10121C6.54653 2.72349 6.82768 2.33341 7.22584 2.33341H7.87484C8.197 2.33341 8.45817 2.07225 8.45817 1.75008V1.16675M4.6665 6.12508V7.29175M4.6665 7.29175V8.45842M4.6665 7.29175H5.83317M4.6665 7.29175H3.49984M8.45234 7.29175H8.45817M10.494 7.29175H10.4998M9.47317 6.27092H9.479M9.47317 8.31258H9.479" stroke="white" stroke-linecap="round"/>
</g>
<defs>
<clipPath id="clip0_11092_10304">
<rect width="14" height="14" fill="white"/>
</clipPath>
</defs>
</svg>
