<svg width="32" height="32" viewBox="0 0 32 32" fill="none" xmlns="http://www.w3.org/2000/svg">
<path d="M29.3327 11.5871C29.3327 13.1738 29.0793 14.6405 28.6393 16.0005H3.35935C2.91935 14.6405 2.66602 13.1738 2.66602 11.5871C2.66602 7.46712 5.98602 4.13379 10.0793 4.13379C12.4927 4.13379 14.6527 5.30712 15.9993 7.10712C17.346 5.30712 19.506 4.13379 21.9193 4.13379C26.0127 4.13379 29.3327 7.46712 29.3327 11.5871Z" fill="url(#paint0_linear_13012_20274)"/>
<path opacity="0.4" d="M28.6394 16C26.5327 22.6667 20.0394 26.6533 16.826 27.7467C16.3727 27.9067 15.626 27.9067 15.1727 27.7467C11.9594 26.6533 5.46604 22.6667 3.35938 16H28.6394Z" fill="url(#paint1_linear_13012_20274)"/>
<defs>
<linearGradient id="paint0_linear_13012_20274" x1="3.91602" y1="5.4113" x2="28.3595" y2="5.58117" gradientUnits="userSpaceOnUse">
<stop stop-color="#E11B22"/>
<stop offset="1" stop-color="#FF343C"/>
</linearGradient>
<linearGradient id="paint1_linear_13012_20274" x1="4.54437" y1="17.2775" x2="27.7169" y2="17.4302" gradientUnits="userSpaceOnUse">
<stop stop-color="#E11B22"/>
<stop offset="1" stop-color="#FF343C"/>
</linearGradient>
</defs>
</svg>
