<svg width="19" height="19" viewBox="0 0 19 19" fill="none" xmlns="http://www.w3.org/2000/svg">
<path d="M16.5458 4.41626L11.2658 0.722095C9.82667 -0.286238 7.6175 -0.231238 6.23333 0.841262L1.64083 4.42543C0.724167 5.14043 0 6.6071 0 7.7621V14.0871C0 16.4246 1.8975 18.3313 4.235 18.3313H14.1167C16.4542 18.3313 18.3517 16.4338 18.3517 14.0963V7.88126C18.3517 6.64376 17.5542 5.1221 16.5458 4.41626ZM9.86333 14.6646C9.86333 15.0404 9.55167 15.3521 9.17583 15.3521C8.8 15.3521 8.48833 15.0404 8.48833 14.6646V11.9146C8.48833 11.5388 8.8 11.2271 9.17583 11.2271C9.55167 11.2271 9.86333 11.5388 9.86333 11.9146V14.6646Z" fill="#85888A"/>
</svg>
