<svg width="40" height="40" viewBox="0 0 40 40" fill="none" xmlns="http://www.w3.org/2000/svg">
<rect width="40" height="40" rx="20" fill="#E11B22" fill-opacity="0.08"/>
<path d="M20 10C15.5817 10 12 12.4873 12 15.5556C12 16.3457 12.2375 17.0973 12.6657 17.7778C13.2223 18.6625 14.1012 19.4271 15.1992 20C16.5364 20.6977 18.1987 21.1111 20 21.1111C21.8013 21.1111 23.4636 20.6977 24.8008 20C25.8988 19.4271 26.7777 18.6625 27.3343 17.7778C27.7625 17.0973 28 16.3457 28 15.5556C28 12.4873 24.4183 10 20 10Z" fill="#E11B22"/>
<g opacity="0.4">
<path d="M12 23.4167V24.4455C12 25.2356 12.2375 25.9872 12.6657 26.6677C13.2223 27.5525 14.1012 28.317 15.1992 28.8899C16.5364 29.5876 18.1987 30.0011 20 30.0011C21.8013 30.0011 23.4636 29.5876 24.8008 28.8899C25.8988 28.317 26.7777 27.5525 27.3343 26.6677C27.7625 25.9872 28 25.2356 28 24.4455V23.4169C27.3239 24.2904 26.4076 25.0151 25.3559 25.5638C23.8347 26.3575 21.9799 26.811 20 26.811C18.0202 26.811 16.1654 26.3575 14.6442 25.5638C13.5924 25.0151 12.6762 24.2904 12 23.4167Z" fill="#E11B22"/>
<path d="M12 18.9167V20.0555C12 20.8456 12.2375 21.5972 12.6657 22.2777C13.2223 23.1624 14.1012 23.927 15.1992 24.4999C16.5364 25.1976 18.1987 25.611 20 25.611C21.8013 25.611 23.4636 25.1976 24.8008 24.4999C25.8988 23.927 26.7777 23.1624 27.3343 22.2777C27.7625 21.5972 28 20.8456 28 20.0555V18.9169C27.3239 19.7904 26.4076 20.5151 25.3559 21.0638C23.8347 21.8575 21.9799 22.311 20 22.311C18.0202 22.311 16.1654 21.8575 14.6442 21.0638C13.5924 20.5151 12.6762 19.7904 12 18.9167Z" fill="#E11B22"/>
</g>
</svg>
