<svg width="40" height="40" viewBox="0 0 40 40" fill="none" xmlns="http://www.w3.org/2000/svg">
<rect width="40" height="40" rx="20" fill="#E11B22" fill-opacity="0.08"/>
<path opacity="0.4" d="M26.4698 24.83L26.8598 27.99C26.9598 28.82 26.0698 29.4 25.3598 28.97L21.1698 26.48C20.7098 26.48 20.2599 26.45 19.8199 26.39C20.5599 25.52 20.9998 24.42 20.9998 23.23C20.9998 20.39 18.5398 18.09 15.4998 18.09C14.3398 18.09 13.2699 18.42 12.3799 19C12.3499 18.75 12.3398 18.5 12.3398 18.24C12.3398 13.69 16.2898 10 21.1698 10C26.0498 10 29.9998 13.69 29.9998 18.24C29.9998 20.94 28.6098 23.33 26.4698 24.83Z" fill="#E11B22"/>
<path d="M21 23.23C21 24.42 20.56 25.5201 19.82 26.3901C18.83 27.5901 17.26 28.36 15.5 28.36L12.89 29.91C12.45 30.18 11.89 29.81 11.95 29.3L12.2 27.3301C10.86 26.4001 10 24.91 10 23.23C10 21.47 10.94 19.9201 12.38 19.0001C13.27 18.4201 14.34 18.0901 15.5 18.0901C18.54 18.0901 21 20.39 21 23.23Z" fill="#E11B22"/>
</svg>
