<svg width="28" height="28" viewBox="0 0 28 28" fill="none" xmlns="http://www.w3.org/2000/svg">
<path d="M21.0163 5.16967L19.7409 4.31918V8.31347C19.7409 9.21811 19.0047 9.95429 18.1001 9.95429C17.1954 9.95429 16.4592 9.21811 16.4592 8.31347V7.49307C16.4592 1.52924 11.708 0 5.79394 0H3.81347L5.21364 1.40071C7.11862 3.30515 6.58919 5.67012 5.1934 7.09982C2.93509 9.41173 1.69189 12.4647 1.69189 15.6972C1.69189 22.4486 7.15035 28 14.0002 28C21.356 28 26.3042 22.1767 26.3042 15.6972V15.0501C26.3042 11.0706 24.3275 7.37711 21.0163 5.16967ZM18.7383 22.2774C17.1353 23.8805 14.5406 23.881 12.9375 22.2774L9.45679 18.7967C7.85371 17.1936 7.85316 14.5989 9.45679 12.9958L11.1971 11.2555L14.6779 14.7362L14.0976 15.3159C13.7771 15.637 13.7771 16.1555 14.0976 16.4765L15.2576 17.6366C15.5787 17.9571 16.0972 17.9571 16.4182 17.6366L16.998 17.0563L20.4787 20.537L18.7383 22.2774ZM14.0976 18.7967L12.9375 17.6366C12.1811 16.8802 12.0208 15.7502 12.4567 14.8352L11.1971 13.5756L10.6168 14.1559C9.65478 15.1174 9.65478 16.6745 10.6168 17.6366L14.0976 21.1173C15.0596 22.0788 16.6162 22.0794 17.5783 21.1173L18.1586 20.537L16.899 19.2774C15.984 19.7133 14.854 19.5531 14.0976 18.7967Z" fill="#E11B22"/>
</svg>
