<svg width="40" height="40" viewBox="0 0 40 40" fill="none" xmlns="http://www.w3.org/2000/svg">
<rect width="40" height="40" rx="20" fill="#E11B22" fill-opacity="0.08"/>
<path opacity="0.4" d="M24.7998 10H14.2098C11.8898 10 10.0098 11.88 10.0098 14.19V20.37V20.56C10.0098 22.88 11.8898 24.75 14.1998 24.75H17.7998C18.3498 24.75 18.7998 25.2 18.7998 25.75V26.57C18.7998 27.12 18.3498 27.57 17.7998 27.57H15.5498C15.1598 27.57 14.8398 27.89 14.8398 28.28C14.8398 28.67 15.1598 28.99 15.5498 28.99H23.4798C23.8698 28.99 24.1898 28.67 24.1898 28.28C24.1898 27.89 23.8698 27.57 23.4798 27.57H21.2298C20.6798 27.57 20.2298 27.12 20.2298 26.57V25.75C20.2298 25.2 20.6798 24.75 21.2298 24.75H24.7998C27.1198 24.75 28.9898 22.87 28.9898 20.56V20.37V14.19C28.9898 11.88 27.1098 10 24.7998 10Z" fill="#E1251B"/>
<path d="M27.6402 17.5H22.3502C20.6202 17.5 19.9902 18.13 19.9902 19.88V27.61C19.9902 29.37 20.6102 29.99 22.3502 29.99H27.6402C29.3702 29.99 30.0002 29.36 30.0002 27.61V19.88C30.0002 18.12 29.3802 17.5 27.6402 17.5ZM25.0002 28.32C24.3902 28.32 23.9002 27.83 23.9002 27.22C23.9002 26.61 24.3902 26.12 25.0002 26.12C25.6102 26.12 26.1002 26.61 26.1002 27.22C26.1002 27.83 25.6102 28.32 25.0002 28.32Z" fill="#E1251B"/>
<path opacity="0.4" d="M26.0999 27.2201C26.0999 27.8301 25.6099 28.3201 24.9999 28.3201C24.3899 28.3201 23.8999 27.8301 23.8999 27.2201C23.8999 26.6101 24.3899 26.1201 24.9999 26.1201C25.6099 26.1201 26.0999 26.6201 26.0999 27.2201Z" fill="#E1251B"/>
</svg>
