<svg width="22" height="22" viewBox="0 0 22 22" fill="none" xmlns="http://www.w3.org/2000/svg">
<path d="M5.00456 16.9492V14.2725C5.00456 13.3833 5.70122 12.5858 6.69122 12.5858C7.58039 12.5858 8.37789 13.2825 8.37789 14.2725V16.8483C8.37789 18.6358 6.89289 20.1208 5.10539 20.1208C3.31789 20.1208 1.83289 18.6267 1.83289 16.8483V11.2017C1.73206 6.04998 5.80206 1.87915 10.9537 1.87915C16.1054 1.87915 20.1662 6.04998 20.1662 11.1008V16.7475C20.1662 18.535 18.6812 20.02 16.8937 20.02C15.1062 20.02 13.6212 18.535 13.6212 16.7475V14.1717C13.6212 13.2825 14.3179 12.485 15.3079 12.485C16.1971 12.485 16.9946 13.1817 16.9946 14.1717V16.9492" stroke="#85888A" stroke-width="1.5" stroke-linecap="round" stroke-linejoin="round"/>
</svg>
