<svg width="20" height="20" viewBox="0 0 20 20" fill="none" xmlns="http://www.w3.org/2000/svg">
<path d="M8.95828 2.0416C9.54161 1.54993 10.4833 1.54993 11.0499 2.0416L12.3666 3.1666C12.6166 3.37493 13.0916 3.54993 13.4249 3.54993H14.8416C15.7249 3.54993 16.4499 4.27493 16.4499 5.15827V6.57493C16.4499 6.90827 16.6249 7.37493 16.8333 7.62493L17.9583 8.9416C18.4499 9.52493 18.4499 10.4666 17.9583 11.0333L16.8333 12.3499C16.6249 12.5999 16.4499 13.0666 16.4499 13.3999V14.8166C16.4499 15.6999 15.7249 16.4249 14.8416 16.4249H13.4249C13.0916 16.4249 12.6249 16.5999 12.3749 16.8083L11.0583 17.9333C10.4749 18.4249 9.53328 18.4249 8.96661 17.9333L7.64994 16.8083C7.39994 16.5999 6.92494 16.4249 6.59994 16.4249H5.14161C4.25828 16.4249 3.53328 15.6999 3.53328 14.8166V13.3916C3.53328 13.0666 3.36661 12.5916 3.15828 12.3499L2.03328 11.0249C1.54994 10.4499 1.54994 9.5166 2.03328 8.9416L3.15828 7.6166C3.36661 7.3666 3.53328 6.89993 3.53328 6.57493V5.1666C3.53328 4.28327 4.25828 3.55827 5.14161 3.55827H6.58328C6.91661 3.55827 7.38328 3.38327 7.63328 3.17493L8.95828 2.0416Z" stroke="#E11B22" stroke-width="1.25" stroke-linecap="round" stroke-linejoin="round"/>
<path d="M10 6.7749V10.7999" stroke="#E11B22" stroke-width="1.25" stroke-linecap="round" stroke-linejoin="round"/>
<path d="M9.99536 13.3333H10.0028" stroke="#E11B22" stroke-width="1.66667" stroke-linecap="round" stroke-linejoin="round"/>
</svg>
