<svg width="36" height="36" viewBox="0 0 36 36" fill="none" xmlns="http://www.w3.org/2000/svg">
<g clip-path="url(#clip0_11190_17291)">
<path d="M0 17.9996C0 21.118 0.793336 24.051 2.18862 26.6083L18 28.1736L33.8114 26.6083C35.2067 24.051 36 21.118 36 17.9996C36 14.8813 35.2067 11.9482 33.8114 9.39091L18 7.82568L2.18862 9.39091C0.793336 11.9482 0 14.8813 0 17.9996H0Z" fill="#D80027"/>
<path d="M2.18945 9.39129H33.8121C30.7593 3.7961 24.8236 0 18.0008 0C11.1781 0 5.24235 3.7961 2.18945 9.39129Z" fill="#0052B4"/>
<path d="M18.0008 35.9992C24.8236 35.9992 30.7593 32.2031 33.8122 26.6079H2.18945C5.24235 32.2031 11.1781 35.9992 18.0008 35.9992Z" fill="#0052B4"/>
<path d="M24.2612 21.5226V19.1748H22.6961V16.0443L21.1308 14.4791L19.5656 16.0443V12.9139L18.0004 11.3486L16.4352 12.9139V16.0443L14.8699 14.4791L13.3047 16.0443V19.1748H11.7395V21.5226H10.1743V23.8704H25.8264V21.5226H24.2612Z" fill="#F0F0F0"/>
</g>
<defs>
<clipPath id="clip0_11190_17291">
<rect width="36" height="36" fill="white"/>
</clipPath>
</defs>
</svg>
