<svg width="32" height="32" viewBox="0 0 32 32" fill="none" xmlns="http://www.w3.org/2000/svg">
<path opacity="0.4" d="M27.4935 11.2667C26.0935 5.10671 20.7201 2.33337 16.0001 2.33337C16.0001 2.33337 16.0001 2.33337 15.9868 2.33337C11.2801 2.33337 5.89346 5.09337 4.49346 11.2534C2.93346 18.1334 7.14679 23.96 10.9601 27.6267C12.3735 28.9867 14.1868 29.6667 16.0001 29.6667C17.8135 29.6667 19.6268 28.9867 21.0268 27.6267C24.8401 23.96 29.0535 18.1467 27.4935 11.2667Z" fill="url(#paint0_linear_13012_16685)"/>
<path d="M15.9998 17.9466C18.3194 17.9466 20.1998 16.0662 20.1998 13.7466C20.1998 11.427 18.3194 9.54663 15.9998 9.54663C13.6802 9.54663 11.7998 11.427 11.7998 13.7466C11.7998 16.0662 13.6802 17.9466 15.9998 17.9466Z" fill="url(#paint1_linear_13012_16685)"/>
<defs>
<linearGradient id="paint0_linear_13012_16685" x1="5.26953" y1="5.27596" x2="26.9639" y2="5.33405" gradientUnits="userSpaceOnUse">
<stop stop-color="#E11B22"/>
<stop offset="1" stop-color="#FF343C"/>
</linearGradient>
<linearGradient id="paint1_linear_13012_16685" x1="12.1936" y1="10.4509" x2="19.8935" y2="10.4747" gradientUnits="userSpaceOnUse">
<stop stop-color="#E11B22"/>
<stop offset="1" stop-color="#FF343C"/>
</linearGradient>
</defs>
</svg>
