<svg width="18" height="25" viewBox="0 0 18 25" fill="none" xmlns="http://www.w3.org/2000/svg">
<path d="M8.75 25C6.54167 25 4.73958 24.651 3.34375 23.9531C1.94792 23.2552 1.25 22.3542 1.25 21.25C1.25 20.75 1.40104 20.2865 1.70312 19.8594C2.00521 19.4323 2.42708 19.0625 2.96875 18.75L4.9375 20.5938C4.75 20.6771 4.54688 20.7708 4.32812 20.875C4.10938 20.9792 3.9375 21.1042 3.8125 21.25C4.08333 21.5833 4.70833 21.875 5.6875 22.125C6.66667 22.375 7.6875 22.5 8.75 22.5C9.8125 22.5 10.8385 22.375 11.8281 22.125C12.8177 21.875 13.4479 21.5833 13.7188 21.25C13.5729 21.0833 13.3854 20.9479 13.1562 20.8438C12.9271 20.7396 12.7083 20.6458 12.5 20.5625L14.4375 18.6875C15.0208 19.0208 15.4688 19.401 15.7812 19.8281C16.0938 20.2552 16.25 20.7292 16.25 21.25C16.25 22.3542 15.5521 23.2552 14.1562 23.9531C12.7604 24.651 10.9583 25 8.75 25ZM8.78125 18.125C10.8438 16.6042 12.3958 15.0781 13.4375 13.5469C14.4792 12.0156 15 10.4792 15 8.9375C15 6.8125 14.3229 5.20833 12.9688 4.125C11.6146 3.04167 10.2083 2.5 8.75 2.5C7.29167 2.5 5.88542 3.04167 4.53125 4.125C3.17708 5.20833 2.5 6.8125 2.5 8.9375C2.5 10.3333 3.01042 11.7865 4.03125 13.2969C5.05208 14.8073 6.63542 16.4167 8.78125 18.125ZM8.75 21.25C5.8125 19.0833 3.61979 16.9792 2.17188 14.9375C0.723958 12.8958 0 10.8958 0 8.9375C0 7.45833 0.265625 6.16146 0.796875 5.04688C1.32812 3.93229 2.01042 3 2.84375 2.25C3.67708 1.5 4.61458 0.9375 5.65625 0.5625C6.69792 0.1875 7.72917 0 8.75 0C9.77083 0 10.8021 0.1875 11.8438 0.5625C12.8854 0.9375 13.8229 1.5 14.6562 2.25C15.4896 3 16.1719 3.93229 16.7031 5.04688C17.2344 6.16146 17.5 7.45833 17.5 8.9375C17.5 10.8958 16.776 12.8958 15.3281 14.9375C13.8802 16.9792 11.6875 19.0833 8.75 21.25ZM8.75 11.25C9.4375 11.25 10.026 11.0052 10.5156 10.5156C11.0052 10.026 11.25 9.4375 11.25 8.75C11.25 8.0625 11.0052 7.47396 10.5156 6.98438C10.026 6.49479 9.4375 6.25 8.75 6.25C8.0625 6.25 7.47396 6.49479 6.98438 6.98438C6.49479 7.47396 6.25 8.0625 6.25 8.75C6.25 9.4375 6.49479 10.026 6.98438 10.5156C7.47396 11.0052 8.0625 11.25 8.75 11.25Z" fill="#00357F"/>
</svg>
