<svg width="60" height="60" viewBox="0 0 60 60" fill="none" xmlns="http://www.w3.org/2000/svg">
<rect x="1.5" y="1.5" width="57" height="57" rx="14.5" fill="#F7E3E5"/>
<rect x="1.5" y="1.5" width="57" height="57" rx="14.5" stroke="#F9F0F1" stroke-width="3"/>
<rect x="6" y="6" width="48" height="48" rx="12" fill="url(#paint0_linear_9174_32620)"/>
<path d="M43.1261 20.9495V23.6646H16.8755V20.9495C16.8755 20.4467 17.2922 20.0445 17.813 20.0445H20.6256V19.1394L21.4173 16.0422C21.5006 15.7204 21.7923 15.5193 22.1256 15.5193H22.8548C23.1881 15.5193 23.4798 15.7405 23.5631 16.0422L24.3757 19.1394V20.0445H28.1257V17.3294L28.9174 14.2321C29.0008 13.9305 29.2924 13.7092 29.6258 13.7092H30.355C30.6883 13.7092 30.98 13.9305 31.0633 14.2321L31.8758 17.3294V20.0445H35.6259V19.1394L36.4176 16.0422C36.5009 15.7204 36.7926 15.5193 37.1259 15.5193H37.8551C38.1885 15.5193 38.4801 15.7405 38.5635 16.0422L39.376 19.1394V20.0445H42.1886C42.7094 20.0445 43.1261 20.4467 43.1261 20.9495Z" fill="white"/>
<path d="M31.8756 41.7654V45.3855C31.8756 45.8883 31.4589 46.2905 30.9381 46.2905H29.063C28.5422 46.2905 28.1255 45.8883 28.1255 45.3855V41.7654H31.8756Z" fill="white"/>
<path d="M22.5002 25.4734V29.0935H15.9375C15.4167 29.0935 15 28.6913 15 28.1885V26.3784C15 25.8756 15.4167 25.4734 15.9375 25.4734H22.5002Z" fill="white"/>
<path d="M45 26.3784V28.1885C45 28.6913 44.5833 29.0935 44.0625 29.0935H24.3745V25.4734H44.0625C44.5833 25.4734 45 25.8756 45 26.3784Z" fill="white"/>
<path d="M37.5009 30.907V34.5271H20.6256V44.4825H17.813C17.2922 44.4825 16.8755 44.0802 16.8755 43.5774V31.812C16.8755 31.3092 17.2922 30.907 17.813 30.907H37.5009Z" fill="white"/>
<path d="M43.1261 31.812V43.5774C43.1261 44.0802 42.7094 44.4825 42.1885 44.4825H39.376V30.907H42.1885C42.7094 30.907 43.1261 31.3092 43.1261 31.812Z" fill="white"/>
<path d="M37.5008 36.3352V44.4805C37.5008 44.9833 37.0842 45.3855 36.5633 45.3855H33.7507V39.9553H26.2506V45.3855H23.438C22.9172 45.3855 22.5005 44.9833 22.5005 44.4805V36.3352H37.5008Z" fill="white"/>
<defs>
<linearGradient id="paint0_linear_9174_32620" x1="6" y1="6" x2="54" y2="54" gradientUnits="userSpaceOnUse">
<stop stop-color="#FB2C36"/>
<stop offset="1" stop-color="#E7000B"/>
</linearGradient>
</defs>
</svg>
