<svg width="120" height="30" viewBox="0 0 120 30" fill="none" xmlns="http://www.w3.org/2000/svg">
<g clip-path="url(#clip0_11233_54930)">
<path d="M25.8973 6.66662V9.1666H1.72656V6.66662C1.72656 6.20366 2.11023 5.83329 2.5898 5.83329H5.17953V4.99996L5.90849 2.14813C5.98522 1.85184 6.25379 1.66665 6.56072 1.66665H7.23213C7.53906 1.66665 7.80762 1.87036 7.88436 2.14813L8.6325 4.99996V5.83329H12.0855V3.33331L12.8144 0.481478C12.8912 0.203702 13.1597 0 13.4667 0H14.1381C14.445 0 14.7136 0.203702 14.7903 0.481478L15.5384 3.33331V5.83329H18.9914V4.99996L19.7204 2.14813C19.7971 1.85184 20.0657 1.66665 20.3726 1.66665H21.044C21.3509 1.66665 21.6195 1.87036 21.6962 2.14813L22.4444 4.99996V5.83329H25.0341C25.5137 5.83329 25.8973 6.20366 25.8973 6.66662Z" fill="#E11B22"/>
<path d="M15.5389 25.833V29.1663C15.5389 29.6293 15.1552 29.9996 14.6757 29.9996H12.9492C12.4696 29.9996 12.0859 29.6293 12.0859 29.1663V25.833H15.5389Z" fill="#E11B22"/>
<path d="M6.90594 10.833V14.1663H0.863242C0.383663 14.1663 0 13.7959 0 13.333V11.6663C0 11.2034 0.383663 10.833 0.863242 10.833H6.90594Z" fill="#E11B22"/>
<path d="M27.6241 11.6663V13.333C27.6241 13.7959 27.2405 14.1663 26.7609 14.1663H8.63281V10.833H26.7609C27.2405 10.833 27.6241 11.2034 27.6241 11.6663Z" fill="#E11B22"/>
<path d="M20.7179 15.835V19.1683H5.17953V28.3349H2.5898C2.11023 28.3349 1.72656 27.9645 1.72656 27.5015V16.6683C1.72656 16.2053 2.11023 15.835 2.5898 15.835H20.7179Z" fill="#E11B22"/>
<path d="M25.8963 16.6683V27.5015C25.8963 27.9645 25.5127 28.3349 25.0331 28.3349H22.4434V15.835H25.0331C25.5127 15.835 25.8963 16.2053 25.8963 16.6683Z" fill="#E11B22"/>
<path d="M20.7181 20.833V28.3329C20.7181 28.7959 20.3345 29.1663 19.8549 29.1663H17.2652V24.1663H10.3592V29.1663H7.76949C7.28991 29.1663 6.90625 28.7959 6.90625 28.3329V20.833H20.7181Z" fill="#E11B22"/>
<path d="M58.6067 11.082C59.9303 11.082 61.0238 11.2302 61.887 11.508C62.7694 11.8042 63.46 12.2117 63.9972 12.7487C64.5151 13.2857 64.8988 13.9339 65.1098 14.7116C65.3208 15.4894 65.4359 16.3413 65.4359 17.2857V26.2301C64.8028 26.3597 63.9204 26.5264 62.7694 26.7115C61.6376 26.8967 60.2564 26.9893 58.645 26.9893C57.6283 26.9893 56.7075 26.8967 55.8827 26.7301C55.0578 26.5634 54.348 26.2671 53.7533 25.8782C53.1587 25.4893 52.6983 24.9708 52.3722 24.3412C52.046 23.7116 51.8926 22.9338 51.8926 22.0079C51.8926 21.119 52.0844 20.3783 52.4489 19.7672C52.8134 19.156 53.3121 18.656 53.926 18.3042C54.5399 17.9338 55.2496 17.6746 56.0553 17.5079C56.861 17.3412 57.6859 17.2672 58.53 17.2672C59.1054 17.2672 59.6234 17.2857 60.0646 17.3412C60.5058 17.3968 60.8703 17.4524 61.158 17.5264V17.119C61.158 16.3968 60.9278 15.8042 60.4674 15.3598C60.007 14.9153 59.2205 14.6931 58.0696 14.6931C57.3214 14.6931 56.5733 14.7487 55.8251 14.8598C55.0962 14.9709 54.4439 15.119 53.9068 15.3042L53.3313 11.8413C53.5807 11.7672 53.9068 11.6746 54.3097 11.6005C54.6933 11.508 55.1153 11.4339 55.5757 11.3783C56.0361 11.3043 56.5157 11.2487 57.0337 11.2117C57.5708 11.1006 58.0887 11.082 58.6067 11.082ZM58.952 23.6375C59.3932 23.6375 59.8152 23.619 60.1989 23.6005C60.6017 23.5819 60.9087 23.5449 61.158 23.5079V20.2486C60.9854 20.2116 60.7168 20.1746 60.3524 20.1375C59.9879 20.1005 59.6618 20.082 59.374 20.082C58.952 20.082 58.5683 20.1005 58.1847 20.156C57.8202 20.2116 57.4941 20.3042 57.2063 20.4338C56.9186 20.5634 56.7075 20.7486 56.5541 20.9894C56.4006 21.2116 56.3239 21.5079 56.3239 21.8597C56.3239 22.5264 56.5541 23.0079 57.0337 23.2671C57.4941 23.5079 58.1463 23.6375 58.952 23.6375Z" fill="#E11B22"/>
<path d="M76.8336 18.4189C76.8336 17.03 76.6418 16.0486 76.2773 15.4745C75.9128 14.9004 75.2798 14.6041 74.3782 14.6041C74.0904 14.6041 73.8027 14.6227 73.5149 14.6412C73.208 14.6782 72.9202 14.6967 72.6517 14.7338V26.4374H68.2012V11.8079C68.5848 11.7153 69.026 11.6042 69.5248 11.5116C70.0236 11.4005 70.5607 11.3079 71.1362 11.2153C71.7117 11.1227 72.2872 11.0671 72.8819 11.0116C73.4765 10.956 74.0712 10.9375 74.6467 10.9375C75.7785 10.9375 76.6993 11.0856 77.4091 11.3634C78.1189 11.6412 78.6944 11.9745 79.1548 12.3634C79.7878 11.919 80.5168 11.5671 81.3416 11.3264C82.1665 11.0856 82.9338 10.956 83.6244 10.956C84.8713 10.956 85.9072 11.1227 86.7129 11.456C87.5186 11.7893 88.1709 12.2708 88.6313 12.8819C89.1108 13.493 89.4369 14.2338 89.6096 15.0671C89.7822 15.9189 89.8782 16.8634 89.8782 17.9004V26.4744H85.4277V18.4374C85.4277 17.0486 85.2358 16.0671 84.8713 15.493C84.5069 14.919 83.8738 14.6227 82.9722 14.6227C82.742 14.6227 82.3967 14.6782 81.9747 14.7893C81.5527 14.9004 81.1882 15.0486 80.9196 15.2152C81.0539 15.6597 81.1498 16.1226 81.1882 16.6226C81.2265 17.1041 81.2457 17.6412 81.2457 18.1967V26.4744H76.7952V18.4189H76.8336Z" fill="#E11B22"/>
<path d="M93.1367 6.43457H97.7982V26.6566H93.1367V6.43457Z" fill="#FDB913"/>
<path d="M118.651 11.9901C118.095 10.6938 117.289 9.63825 116.273 8.82344C115.237 7.99011 113.99 7.39753 112.551 7.00864C111.112 6.61975 109.501 6.43457 107.736 6.43457H101.367V26.3974C102.441 26.6011 103.535 26.7492 104.648 26.8233C105.76 26.8974 106.738 26.9159 107.583 26.9159C109.405 26.9159 111.074 26.7122 112.551 26.2863C114.028 25.8603 115.275 25.2307 116.292 24.3789C117.308 23.527 118.114 22.4715 118.67 21.1752C119.227 19.8789 119.514 18.3789 119.514 16.6382C119.495 14.8419 119.227 13.2864 118.651 11.9901ZM112.992 21.3419C111.86 22.4715 110.134 23.0456 107.813 23.0456C107.41 23.0456 107.065 23.0456 106.777 23.027C106.489 23.0085 106.24 23.0085 106.01 22.99V10.3605C106.316 10.3234 106.623 10.3049 106.969 10.2864C107.314 10.2679 107.64 10.2679 107.947 10.2679C110.287 10.2679 111.975 10.8049 113.05 11.879C114.124 12.953 114.661 14.5456 114.661 16.6382C114.68 18.6382 114.124 20.2122 112.992 21.3419Z" fill="#FDB913"/>
<path d="M54.713 6.97353C54.713 8.26982 53.984 9.52907 52.5261 10.7698C51.0682 12.0105 49.6103 12.6402 48.1715 12.6402C46.6561 12.6402 45.1406 12.2142 43.6251 11.3809C43.1072 11.0846 42.5892 10.8624 42.1097 10.6587C41.1697 10.2883 40.2873 10.1031 39.4816 10.1031C37.8702 10.1031 36.5657 10.7142 35.5874 11.9365C36.5465 11.7142 37.429 11.5846 38.2155 11.5846C39.002 11.5846 39.7118 11.6957 40.364 11.8994C39.9611 12.3624 39.6158 12.9364 39.3473 13.6031C39.0979 14.2513 38.9444 15.0105 38.8869 15.8809C38.8677 16.1031 38.8677 16.3253 38.8677 16.5475C38.8677 17.1772 38.9061 17.7697 39.0212 18.3438C39.0595 18.6216 39.1171 18.8808 39.1938 19.1401C39.4048 19.9364 39.7309 20.6216 40.2105 21.1956C40.6709 21.7697 41.2848 22.2327 42.0521 22.566C42.8003 22.8993 43.721 23.066 44.7953 23.066C45.4667 23.066 46.0806 23.029 46.6177 22.9549C47.1548 22.8808 47.6344 22.7882 48.0564 22.6771C48.4785 22.566 48.8429 22.4549 49.1691 22.3253C49.4952 22.1956 49.7829 22.066 50.0323 21.9549L51.1257 25.0475L51.3176 25.566C50.6653 25.9549 49.7254 26.2882 48.536 26.603C47.3467 26.9178 45.9655 27.066 44.3925 27.066C41.0354 27.066 38.4649 26.1586 36.7 24.3623C36.3355 23.9919 36.0094 23.5845 35.7217 23.1401C34.9352 21.9549 34.4364 20.5475 34.2062 18.8808C34.1103 18.2512 34.0719 17.5846 34.0527 16.8809C34.0527 16.8068 34.0527 16.7142 34.0527 16.6401V9.95499C34.7433 8.76981 35.8176 7.73278 37.2947 6.86242C38.7718 5.99206 40.2105 5.56613 41.6301 5.56613C42.4166 5.56613 43.299 5.78835 44.239 6.21428C44.9679 6.54761 45.7545 6.99205 46.5793 7.58464C48.3826 8.84389 49.6486 9.51055 50.3392 9.5661C50.3776 9.5661 50.416 9.5661 50.4543 9.5661C51.0298 9.5661 51.3176 9.19573 51.3176 8.49204C51.3176 8.23278 51.2217 7.97352 51.0298 7.73278C51.0298 7.73278 51.0298 7.73278 51.0106 7.73278C50.6653 7.30686 50.0515 6.91797 49.1691 6.54761C48.0756 6.10317 47.5385 5.54761 47.5385 4.91799C47.5385 4.73281 47.596 4.51059 47.7111 4.28836C48.1715 3.38096 48.9772 2.93652 50.1282 2.93652C51.26 2.93652 52.3151 3.28837 53.2934 4.01059C54.2334 4.69577 54.713 5.69576 54.713 6.97353Z" fill="#E11B22"/>
</g>
<defs>
<clipPath id="clip0_11233_54930">
<rect width="119.513" height="30" fill="white"/>
</clipPath>
</defs>
</svg>
