<svg width="32" height="32" viewBox="0 0 32 32" fill="none" xmlns="http://www.w3.org/2000/svg">
<path opacity="0.4" d="M24 25.1467H22.9867C21.92 25.1467 20.9067 25.56 20.16 26.3067L17.88 28.56C16.84 29.5867 15.1467 29.5867 14.1067 28.56L11.8267 26.3067C11.08 25.56 10.0533 25.1467 9 25.1467H8C5.78667 25.1467 4 23.3734 4 21.1867V6.64001C4 4.45335 5.78667 2.68005 8 2.68005H24C26.2133 2.68005 28 4.45335 28 6.64001V21.1867C28 23.3601 26.2133 25.1467 24 25.1467Z" fill="url(#paint0_linear_13012_16676)"/>
<path d="M22.1063 12.76C21.853 12.4 21.4263 12.2 20.9197 12.2H18.3197C18.1463 12.2 17.9863 12.1333 17.8797 12C17.773 11.8666 17.7197 11.6933 17.7463 11.5066L18.0663 9.42665C18.1997 8.81331 17.7863 8.10663 17.173 7.90663C16.5997 7.69329 15.9197 7.98661 15.653 8.38661L13.0663 12.2266V11.7466C13.0663 10.8133 12.6663 10.4266 11.6796 10.4266H11.0263C10.0397 10.4266 9.63965 10.8133 9.63965 11.7466V18.12C9.63965 19.0533 10.0397 19.44 11.0263 19.44H11.6796C12.613 19.44 13.013 19.0799 13.053 18.2266L15.013 19.7333C15.2796 20 15.8796 20.1466 16.3063 20.1466H18.773C19.6263 20.1466 20.4797 19.5066 20.6663 18.7199L22.2263 13.9733C22.3997 13.5466 22.3597 13.1066 22.1063 12.76Z" fill="url(#paint1_linear_13012_16676)"/>
<defs>
<linearGradient id="paint0_linear_13012_16676" x1="5.125" y1="5.54907" x2="27.125" y2="5.61034" gradientUnits="userSpaceOnUse">
<stop stop-color="#E11B22"/>
<stop offset="1" stop-color="#FF343C"/>
</linearGradient>
<linearGradient id="paint1_linear_13012_16676" x1="10.2346" y1="9.16038" x2="21.8692" y2="9.19747" gradientUnits="userSpaceOnUse">
<stop stop-color="#E11B22"/>
<stop offset="1" stop-color="#FF343C"/>
</linearGradient>
</defs>
</svg>
