<svg width="14" height="17" viewBox="0 0 14 17" fill="none" xmlns="http://www.w3.org/2000/svg">
<path d="M6.66667 10.8333C7.44444 10.8333 8.14583 10.6424 8.77083 10.2604C9.39583 9.87847 9.88889 9.375 10.25 8.75C9.76389 8.34722 9.21528 8.03819 8.60417 7.82292C7.99306 7.60764 7.34722 7.5 6.66667 7.5C5.98611 7.5 5.34028 7.60764 4.72917 7.82292C4.11806 8.03819 3.56944 8.34722 3.08333 8.75C3.44444 9.375 3.9375 9.87847 4.5625 10.2604C5.1875 10.6424 5.88889 10.8333 6.66667 10.8333ZM6.66667 6.66667C7.125 6.66667 7.51736 6.50347 7.84375 6.17708C8.17014 5.85069 8.33333 5.45833 8.33333 5C8.33333 4.54167 8.17014 4.14931 7.84375 3.82292C7.51736 3.49653 7.125 3.33333 6.66667 3.33333C6.20833 3.33333 5.81597 3.49653 5.48958 3.82292C5.16319 4.14931 5 4.54167 5 5C5 5.45833 5.16319 5.85069 5.48958 6.17708C5.81597 6.50347 6.20833 6.66667 6.66667 6.66667ZM6.66667 16.6667C4.43056 14.7639 2.76042 12.9965 1.65625 11.3646C0.552083 9.73264 0 8.22222 0 6.83333C0 4.75 0.670139 3.09028 2.01042 1.85417C3.35069 0.618055 4.90278 0 6.66667 0C8.43056 0 9.98264 0.618055 11.3229 1.85417C12.6632 3.09028 13.3333 4.75 13.3333 6.83333C13.3333 8.22222 12.7812 9.73264 11.6771 11.3646C10.5729 12.9965 8.90278 14.7639 6.66667 16.6667Z" fill="#00357F"/>
</svg>
