<svg width="22" height="22" viewBox="0 0 22 22" fill="none" xmlns="http://www.w3.org/2000/svg">
<path d="M18.3063 9.16675H3.63965V16.5001C3.63965 19.2501 4.55631 20.1667 7.30631 20.1667H14.6396C17.3896 20.1667 18.3063 19.2501 18.3063 16.5001V9.16675Z" stroke="#85888A" stroke-width="1.5" stroke-miterlimit="10" stroke-linecap="round" stroke-linejoin="round"/>
<path d="M19.7087 6.41659V7.33325C19.7087 8.34159 19.2228 9.16659 17.8753 9.16659H4.12533C2.72283 9.16659 2.29199 8.34159 2.29199 7.33325V6.41659C2.29199 5.40825 2.72283 4.58325 4.12533 4.58325H17.8753C19.2228 4.58325 19.7087 5.40825 19.7087 6.41659Z" stroke="#85888A" stroke-width="1.5" stroke-miterlimit="10" stroke-linecap="round" stroke-linejoin="round"/>
<path d="M10.6699 4.5834H5.60988C5.29822 4.24424 5.30738 3.72174 5.63738 3.39174L6.93905 2.09007C7.27822 1.7509 7.83738 1.7509 8.17655 2.09007L10.6699 4.5834Z" stroke="#85888A" stroke-width="1.5" stroke-miterlimit="10" stroke-linecap="round" stroke-linejoin="round"/>
<path d="M16.3813 4.5834H11.3213L13.8146 2.09007C14.1538 1.7509 14.713 1.7509 15.0521 2.09007L16.3538 3.39174C16.6838 3.72174 16.693 4.24424 16.3813 4.5834Z" stroke="#85888A" stroke-width="1.5" stroke-miterlimit="10" stroke-linecap="round" stroke-linejoin="round"/>
<path d="M8.19531 9.16675V13.8784C8.19531 14.6117 9.00198 15.0426 9.61615 14.6484L10.4778 14.0801C10.7895 13.8784 11.1836 13.8784 11.4861 14.0801L12.302 14.6301C12.907 15.0334 13.7228 14.6026 13.7228 13.8692V9.16675H8.19531Z" stroke="#85888A" stroke-width="1.5" stroke-miterlimit="10" stroke-linecap="round" stroke-linejoin="round"/>
</svg>
