<svg width="54" height="54" viewBox="0 0 54 54" fill="none" xmlns="http://www.w3.org/2000/svg">
<rect width="54" height="54" rx="16" fill="url(#paint0_linear_11707_16581)"/>
<path d="M26.9997 13.6667C21.1086 13.6667 16.333 16.9832 16.333 21.0742C16.333 22.1276 16.6497 23.1298 17.2206 24.0371C17.9627 25.2168 19.1346 26.2362 20.5986 27.0001C22.3816 27.9303 24.5979 28.4816 26.9997 28.4816C29.4014 28.4816 31.6178 27.9303 33.4007 27.0001C34.8648 26.2362 36.0366 25.2168 36.7788 24.0371C37.3497 23.1298 37.6663 22.1276 37.6663 21.0742C37.6663 16.9832 32.8907 13.6667 26.9997 13.6667Z" fill="url(#paint1_linear_11707_16581)"/>
<g opacity="0.4">
<path d="M16.333 31.5557V32.9273C16.333 33.9808 16.6497 34.983 17.2206 35.8903C17.9627 37.0699 19.1346 38.0894 20.5986 38.8533C22.3816 39.7835 24.5979 40.3347 26.9997 40.3347C29.4014 40.3347 31.6178 39.7835 33.4007 38.8533C34.8648 38.0894 36.0366 37.0699 36.7788 35.8903C37.3497 34.983 37.6663 33.9808 37.6663 32.9273V31.5558C36.7648 32.7206 35.5432 33.6868 34.1409 34.4184C32.1127 35.4767 29.6396 36.0814 26.9997 36.0814C24.3599 36.0814 21.8868 35.4767 19.8586 34.4184C18.4562 33.6867 17.2345 32.7205 16.333 31.5557Z" fill="url(#paint2_linear_11707_16581)"/>
<path d="M16.333 25.5557V27.074C16.333 28.1275 16.6497 29.1296 17.2206 30.037C17.9627 31.2166 19.1346 32.236 20.5986 32.9999C22.3816 33.9302 24.5979 34.4814 26.9997 34.4814C29.4014 34.4814 31.6178 33.9302 33.4007 32.9999C34.8648 32.236 36.0366 31.2166 36.7788 30.037C37.3497 29.1296 37.6663 28.1275 37.6663 27.074V25.5558C36.7648 26.7206 35.5432 27.6868 34.1409 28.4184C32.1127 29.4767 29.6396 30.0814 26.9997 30.0814C24.3599 30.0814 21.8868 29.4767 19.8586 28.4184C18.4562 27.6867 17.2345 26.7205 16.333 25.5557Z" fill="url(#paint3_linear_11707_16581)"/>
</g>
<defs>
<linearGradient id="paint0_linear_11707_16581" x1="27" y1="0" x2="27" y2="54" gradientUnits="userSpaceOnUse">
<stop stop-color="#FFF4F4"/>
<stop offset="1" stop-color="#FDEDEE"/>
</linearGradient>
<linearGradient id="paint1_linear_11707_16581" x1="17.333" y1="15.2616" x2="36.8883" y2="15.3487" gradientUnits="userSpaceOnUse">
<stop stop-color="#E11B22"/>
<stop offset="1" stop-color="#FF343C"/>
</linearGradient>
<linearGradient id="paint2_linear_11707_16581" x1="17.333" y1="27.1467" x2="36.8883" y2="27.234" gradientUnits="userSpaceOnUse">
<stop stop-color="#E11B22"/>
<stop offset="1" stop-color="#FF343C"/>
</linearGradient>
<linearGradient id="paint3_linear_11707_16581" x1="17.333" y1="27.1467" x2="36.8883" y2="27.234" gradientUnits="userSpaceOnUse">
<stop stop-color="#E11B22"/>
<stop offset="1" stop-color="#FF343C"/>
</linearGradient>
</defs>
</svg>
