<svg width="46" height="46" viewBox="0 0 46 46" fill="none" xmlns="http://www.w3.org/2000/svg">
<rect width="46" height="46" rx="23" fill="#E11B22" fill-opacity="0.1"/>
<path d="M20.5762 20.9578V21.8894H18.8633V20.9578H20.5762Z" fill="#E11B22" stroke="#E11B22" stroke-width="0.15"/>
<path d="M26.0439 20.9578V21.8894H24.3311V20.9578H26.0439Z" fill="#E11B22" stroke="#E11B22" stroke-width="0.15"/>
<path d="M21.3555 23.6907V23.7659C21.3555 24.0568 21.4711 24.3356 21.6768 24.5413C21.8825 24.747 22.1612 24.8625 22.4521 24.8625C22.7431 24.8625 23.0218 24.747 23.2275 24.5413C23.4332 24.3356 23.5488 24.0568 23.5488 23.7659V23.6907H24.4805V23.7659C24.4805 24.3038 24.2671 24.8201 23.8867 25.2004C23.5064 25.5808 22.99 25.7942 22.4521 25.7942C21.9143 25.7942 21.3979 25.5808 21.0176 25.2004C20.6372 24.8201 20.4238 24.3038 20.4238 23.7659V23.6907H21.3555Z" fill="#E11B22" stroke="#E11B22" stroke-width="0.15"/>
<mask id="path-5-outside-1_11623_2926" maskUnits="userSpaceOnUse" x="13.251" y="9.87524" width="18" height="26" fill="black">
<rect fill="white" x="13.251" y="9.87524" width="18" height="26"/>
<path d="M28.7041 23.7659V23.3401C29.2496 23.2474 29.7448 22.9649 30.1022 22.5424C30.4596 22.12 30.6562 21.5848 30.6572 21.0315V19.0784C30.6572 16.9028 29.793 14.8163 28.2546 13.2779C26.7162 11.7395 24.6297 10.8752 22.4541 10.8752C20.2785 10.8752 18.192 11.7395 16.6536 13.2779C15.1152 14.8163 14.251 16.9028 14.251 19.0784V21.0315C14.252 21.5848 14.4486 22.12 14.806 22.5424C15.1634 22.9649 15.6586 23.2474 16.2041 23.3401V23.7659C16.2054 24.9051 16.6586 25.9972 17.4641 26.8027C18.2696 27.6083 19.3618 28.0614 20.501 28.0627V29.2346H18.5479C17.4087 29.236 16.3165 29.6891 15.511 30.4946C14.7055 31.3002 14.2523 32.3923 14.251 33.5315V34.7034C14.251 34.807 14.2921 34.9063 14.3654 34.9796C14.4386 35.0528 14.538 35.094 14.6416 35.094H30.2666C30.3702 35.094 30.4696 35.0528 30.5428 34.9796C30.6161 34.9063 30.6572 34.807 30.6572 34.7034V33.5315C30.6559 32.3923 30.2027 31.3002 29.3972 30.4946C28.5917 29.6891 27.4995 29.236 26.3604 29.2346H24.4072V28.0627C25.5464 28.0614 26.6386 27.6083 27.4441 26.8027C28.2496 25.9972 28.7028 24.9051 28.7041 23.7659ZM28.7041 22.5385V19.5245C29.0391 19.6097 29.3361 19.8042 29.5483 20.0771C29.7604 20.35 29.8756 20.6858 29.8756 21.0315C29.8756 21.3772 29.7604 21.713 29.5483 21.9859C29.3361 22.2588 29.0391 22.4533 28.7041 22.5385ZM15.0322 21.0315C15.0335 20.6861 15.1492 20.3509 15.3612 20.0782C15.5733 19.8055 15.8697 19.6108 16.2041 19.5245V22.5385C15.8697 22.4522 15.5733 22.2575 15.3612 21.9848C15.1492 21.7121 15.0335 21.3769 15.0322 21.0315ZM15.0322 19.2893V19.0784C15.0322 17.11 15.8142 15.2222 17.206 13.8303C18.5979 12.4384 20.4857 11.6565 22.4541 11.6565C24.4225 11.6565 26.3103 12.4384 27.7022 13.8303C29.094 15.2222 29.876 17.11 29.876 19.0784V19.2893C29.4476 18.9023 28.8908 18.6879 28.3135 18.6877H27.9229C27.7157 18.6877 27.5169 18.6054 27.3704 18.4589C27.2239 18.3124 27.1416 18.1137 27.1416 17.9065V15.9534C27.1416 15.8498 27.1004 15.7504 27.0272 15.6772C26.9539 15.6039 26.8546 15.5627 26.751 15.5627H18.1572C18.0536 15.5627 17.9543 15.6039 17.881 15.6772C17.8078 15.7504 17.7666 15.8498 17.7666 15.9534V17.9065C17.7666 18.1137 17.6843 18.3124 17.5378 18.4589C17.3913 18.6054 17.1926 18.6877 16.9854 18.6877H16.5947C16.0174 18.6879 15.4606 18.9023 15.0322 19.2893ZM16.9854 23.7659V19.469C17.3998 19.469 17.7972 19.3044 18.0902 19.0113C18.3832 18.7183 18.5479 18.3209 18.5479 17.9065V16.344H26.3604V17.9065C26.3604 18.3209 26.525 18.7183 26.818 19.0113C27.111 19.3044 27.5085 19.469 27.9229 19.469V23.7659C27.9217 24.6979 27.551 25.5915 26.8919 26.2505C26.2328 26.9096 25.3393 27.2804 24.4072 27.2815H20.501C19.5689 27.2804 18.6754 26.9096 18.0163 26.2505C17.3572 25.5915 16.9865 24.6979 16.9854 23.7659ZM29.876 33.5315V34.3127H21.6229C22.1657 33.5762 22.8762 32.9796 23.6956 32.5725C24.515 32.1653 25.4197 31.9594 26.3346 31.9717L26.3873 31.1924C25.247 31.1713 24.121 31.4481 23.1204 31.9953C22.1198 32.5425 21.2793 33.3413 20.6818 34.3127H18.4666C19.2456 33.0755 20.3072 32.0408 21.5641 31.2938C22.8209 30.5468 24.2372 30.1088 25.6963 30.0159H26.3604C27.2924 30.017 28.186 30.3878 28.845 31.0468C29.5041 31.7059 29.8748 32.5994 29.876 33.5315ZM23.626 29.6077C21.0595 30.3153 18.8753 32.0058 17.5467 34.3127H15.0322V33.5315C15.0334 32.5994 15.4041 31.7059 16.0632 31.0468C16.7222 30.3878 17.6158 30.017 18.5479 30.0159H20.8916C20.9952 30.0159 21.0946 29.9747 21.1678 29.9015C21.2411 29.8282 21.2822 29.7288 21.2822 29.6252V28.0627H23.626V29.6077Z"/>
</mask>
<path d="M28.7041 23.7659V23.3401C29.2496 23.2474 29.7448 22.9649 30.1022 22.5424C30.4596 22.12 30.6562 21.5848 30.6572 21.0315V19.0784C30.6572 16.9028 29.793 14.8163 28.2546 13.2779C26.7162 11.7395 24.6297 10.8752 22.4541 10.8752C20.2785 10.8752 18.192 11.7395 16.6536 13.2779C15.1152 14.8163 14.251 16.9028 14.251 19.0784V21.0315C14.252 21.5848 14.4486 22.12 14.806 22.5424C15.1634 22.9649 15.6586 23.2474 16.2041 23.3401V23.7659C16.2054 24.9051 16.6586 25.9972 17.4641 26.8027C18.2696 27.6083 19.3618 28.0614 20.501 28.0627V29.2346H18.5479C17.4087 29.236 16.3165 29.6891 15.511 30.4946C14.7055 31.3002 14.2523 32.3923 14.251 33.5315V34.7034C14.251 34.807 14.2921 34.9063 14.3654 34.9796C14.4386 35.0528 14.538 35.094 14.6416 35.094H30.2666C30.3702 35.094 30.4696 35.0528 30.5428 34.9796C30.6161 34.9063 30.6572 34.807 30.6572 34.7034V33.5315C30.6559 32.3923 30.2027 31.3002 29.3972 30.4946C28.5917 29.6891 27.4995 29.236 26.3604 29.2346H24.4072V28.0627C25.5464 28.0614 26.6386 27.6083 27.4441 26.8027C28.2496 25.9972 28.7028 24.9051 28.7041 23.7659ZM28.7041 22.5385V19.5245C29.0391 19.6097 29.3361 19.8042 29.5483 20.0771C29.7604 20.35 29.8756 20.6858 29.8756 21.0315C29.8756 21.3772 29.7604 21.713 29.5483 21.9859C29.3361 22.2588 29.0391 22.4533 28.7041 22.5385ZM15.0322 21.0315C15.0335 20.6861 15.1492 20.3509 15.3612 20.0782C15.5733 19.8055 15.8697 19.6108 16.2041 19.5245V22.5385C15.8697 22.4522 15.5733 22.2575 15.3612 21.9848C15.1492 21.7121 15.0335 21.3769 15.0322 21.0315ZM15.0322 19.2893V19.0784C15.0322 17.11 15.8142 15.2222 17.206 13.8303C18.5979 12.4384 20.4857 11.6565 22.4541 11.6565C24.4225 11.6565 26.3103 12.4384 27.7022 13.8303C29.094 15.2222 29.876 17.11 29.876 19.0784V19.2893C29.4476 18.9023 28.8908 18.6879 28.3135 18.6877H27.9229C27.7157 18.6877 27.5169 18.6054 27.3704 18.4589C27.2239 18.3124 27.1416 18.1137 27.1416 17.9065V15.9534C27.1416 15.8498 27.1004 15.7504 27.0272 15.6772C26.9539 15.6039 26.8546 15.5627 26.751 15.5627H18.1572C18.0536 15.5627 17.9543 15.6039 17.881 15.6772C17.8078 15.7504 17.7666 15.8498 17.7666 15.9534V17.9065C17.7666 18.1137 17.6843 18.3124 17.5378 18.4589C17.3913 18.6054 17.1926 18.6877 16.9854 18.6877H16.5947C16.0174 18.6879 15.4606 18.9023 15.0322 19.2893ZM16.9854 23.7659V19.469C17.3998 19.469 17.7972 19.3044 18.0902 19.0113C18.3832 18.7183 18.5479 18.3209 18.5479 17.9065V16.344H26.3604V17.9065C26.3604 18.3209 26.525 18.7183 26.818 19.0113C27.111 19.3044 27.5085 19.469 27.9229 19.469V23.7659C27.9217 24.6979 27.551 25.5915 26.8919 26.2505C26.2328 26.9096 25.3393 27.2804 24.4072 27.2815H20.501C19.5689 27.2804 18.6754 26.9096 18.0163 26.2505C17.3572 25.5915 16.9865 24.6979 16.9854 23.7659ZM29.876 33.5315V34.3127H21.6229C22.1657 33.5762 22.8762 32.9796 23.6956 32.5725C24.515 32.1653 25.4197 31.9594 26.3346 31.9717L26.3873 31.1924C25.247 31.1713 24.121 31.4481 23.1204 31.9953C22.1198 32.5425 21.2793 33.3413 20.6818 34.3127H18.4666C19.2456 33.0755 20.3072 32.0408 21.5641 31.2938C22.8209 30.5468 24.2372 30.1088 25.6963 30.0159H26.3604C27.2924 30.017 28.186 30.3878 28.845 31.0468C29.5041 31.7059 29.8748 32.5994 29.876 33.5315ZM23.626 29.6077C21.0595 30.3153 18.8753 32.0058 17.5467 34.3127H15.0322V33.5315C15.0334 32.5994 15.4041 31.7059 16.0632 31.0468C16.7222 30.3878 17.6158 30.017 18.5479 30.0159H20.8916C20.9952 30.0159 21.0946 29.9747 21.1678 29.9015C21.2411 29.8282 21.2822 29.7288 21.2822 29.6252V28.0627H23.626V29.6077Z" fill="#E11B22"/>
<path d="M28.7041 23.7659V23.3401C29.2496 23.2474 29.7448 22.9649 30.1022 22.5424C30.4596 22.12 30.6562 21.5848 30.6572 21.0315V19.0784C30.6572 16.9028 29.793 14.8163 28.2546 13.2779C26.7162 11.7395 24.6297 10.8752 22.4541 10.8752C20.2785 10.8752 18.192 11.7395 16.6536 13.2779C15.1152 14.8163 14.251 16.9028 14.251 19.0784V21.0315C14.252 21.5848 14.4486 22.12 14.806 22.5424C15.1634 22.9649 15.6586 23.2474 16.2041 23.3401V23.7659C16.2054 24.9051 16.6586 25.9972 17.4641 26.8027C18.2696 27.6083 19.3618 28.0614 20.501 28.0627V29.2346H18.5479C17.4087 29.236 16.3165 29.6891 15.511 30.4946C14.7055 31.3002 14.2523 32.3923 14.251 33.5315V34.7034C14.251 34.807 14.2921 34.9063 14.3654 34.9796C14.4386 35.0528 14.538 35.094 14.6416 35.094H30.2666C30.3702 35.094 30.4696 35.0528 30.5428 34.9796C30.6161 34.9063 30.6572 34.807 30.6572 34.7034V33.5315C30.6559 32.3923 30.2027 31.3002 29.3972 30.4946C28.5917 29.6891 27.4995 29.236 26.3604 29.2346H24.4072V28.0627C25.5464 28.0614 26.6386 27.6083 27.4441 26.8027C28.2496 25.9972 28.7028 24.9051 28.7041 23.7659ZM28.7041 22.5385V19.5245C29.0391 19.6097 29.3361 19.8042 29.5483 20.0771C29.7604 20.35 29.8756 20.6858 29.8756 21.0315C29.8756 21.3772 29.7604 21.713 29.5483 21.9859C29.3361 22.2588 29.0391 22.4533 28.7041 22.5385ZM15.0322 21.0315C15.0335 20.6861 15.1492 20.3509 15.3612 20.0782C15.5733 19.8055 15.8697 19.6108 16.2041 19.5245V22.5385C15.8697 22.4522 15.5733 22.2575 15.3612 21.9848C15.1492 21.7121 15.0335 21.3769 15.0322 21.0315ZM15.0322 19.2893V19.0784C15.0322 17.11 15.8142 15.2222 17.206 13.8303C18.5979 12.4384 20.4857 11.6565 22.4541 11.6565C24.4225 11.6565 26.3103 12.4384 27.7022 13.8303C29.094 15.2222 29.876 17.11 29.876 19.0784V19.2893C29.4476 18.9023 28.8908 18.6879 28.3135 18.6877H27.9229C27.7157 18.6877 27.5169 18.6054 27.3704 18.4589C27.2239 18.3124 27.1416 18.1137 27.1416 17.9065V15.9534C27.1416 15.8498 27.1004 15.7504 27.0272 15.6772C26.9539 15.6039 26.8546 15.5627 26.751 15.5627H18.1572C18.0536 15.5627 17.9543 15.6039 17.881 15.6772C17.8078 15.7504 17.7666 15.8498 17.7666 15.9534V17.9065C17.7666 18.1137 17.6843 18.3124 17.5378 18.4589C17.3913 18.6054 17.1926 18.6877 16.9854 18.6877H16.5947C16.0174 18.6879 15.4606 18.9023 15.0322 19.2893ZM16.9854 23.7659V19.469C17.3998 19.469 17.7972 19.3044 18.0902 19.0113C18.3832 18.7183 18.5479 18.3209 18.5479 17.9065V16.344H26.3604V17.9065C26.3604 18.3209 26.525 18.7183 26.818 19.0113C27.111 19.3044 27.5085 19.469 27.9229 19.469V23.7659C27.9217 24.6979 27.551 25.5915 26.8919 26.2505C26.2328 26.9096 25.3393 27.2804 24.4072 27.2815H20.501C19.5689 27.2804 18.6754 26.9096 18.0163 26.2505C17.3572 25.5915 16.9865 24.6979 16.9854 23.7659ZM29.876 33.5315V34.3127H21.6229C22.1657 33.5762 22.8762 32.9796 23.6956 32.5725C24.515 32.1653 25.4197 31.9594 26.3346 31.9717L26.3873 31.1924C25.247 31.1713 24.121 31.4481 23.1204 31.9953C22.1198 32.5425 21.2793 33.3413 20.6818 34.3127H18.4666C19.2456 33.0755 20.3072 32.0408 21.5641 31.2938C22.8209 30.5468 24.2372 30.1088 25.6963 30.0159H26.3604C27.2924 30.017 28.186 30.3878 28.845 31.0468C29.5041 31.7059 29.8748 32.5994 29.876 33.5315ZM23.626 29.6077C21.0595 30.3153 18.8753 32.0058 17.5467 34.3127H15.0322V33.5315C15.0334 32.5994 15.4041 31.7059 16.0632 31.0468C16.7222 30.3878 17.6158 30.017 18.5479 30.0159H20.8916C20.9952 30.0159 21.0946 29.9747 21.1678 29.9015C21.2411 29.8282 21.2822 29.7288 21.2822 29.6252V28.0627H23.626V29.6077Z" stroke="#E11B22" stroke-width="0.24" mask="url(#path-5-outside-1_11623_2926)"/>
</svg>
