<svg width="32" height="32" viewBox="0 0 32 32" fill="none" xmlns="http://www.w3.org/2000/svg">
<path d="M23.0534 5.52038L22.96 10.5737C22.9467 11.2671 23.3867 12.1871 23.9467 12.6004L27.2534 15.1071C29.3734 16.7071 29.0267 18.6671 26.4934 19.4671L22.1867 20.8137C21.4667 21.0404 20.7067 21.8271 20.52 22.5604L19.4934 26.4804C18.68 29.5737 16.6534 29.8804 14.9734 27.1604L12.6267 23.3604C12.2 22.6671 11.1867 22.1471 10.3867 22.187L5.93337 22.4137C2.7467 22.5737 1.84004 20.7337 3.92004 18.3071L6.56004 15.2404C7.05337 14.6671 7.28004 13.6004 7.05337 12.8804L5.69337 8.56038C4.9067 6.02705 6.32004 4.62705 8.84004 5.45372L12.7734 6.74705C13.44 6.96038 14.44 6.81372 15 6.40038L19.1067 3.44038C21.3334 1.85372 23.1067 2.78705 23.0534 5.52038Z" fill="url(#paint0_linear_11235_18311)"/>
<path d="M23.6055 23.7246C23.7318 23.5983 23.9489 23.5984 24.0752 23.7246L28.1152 27.7646C28.2416 27.891 28.2416 28.1081 28.1152 28.2344C28.047 28.3026 27.9668 28.3329 27.8809 28.333C27.7948 28.333 27.7139 28.3028 27.6455 28.2344L23.6055 24.1943C23.4792 24.068 23.4792 23.8509 23.6055 23.7246Z" fill="url(#paint1_linear_11235_18311)" stroke="url(#paint2_linear_11235_18311)" stroke-width="1.33333"/>
<defs>
<linearGradient id="paint0_linear_11235_18311" x1="4.01307" y1="5.50361" x2="27.7008" y2="5.57546" gradientUnits="userSpaceOnUse">
<stop stop-color="#E11B22"/>
<stop offset="1" stop-color="#FF343C"/>
</linearGradient>
<linearGradient id="paint1_linear_11235_18311" x1="23.1266" y1="23.6128" x2="28.6571" y2="23.6299" gradientUnits="userSpaceOnUse">
<stop stop-color="#E11B22"/>
<stop offset="1" stop-color="#FF343C"/>
</linearGradient>
<linearGradient id="paint2_linear_11235_18311" x1="23.1266" y1="23.6128" x2="28.6571" y2="23.6299" gradientUnits="userSpaceOnUse">
<stop stop-color="#E11B22"/>
<stop offset="1" stop-color="#FF343C"/>
</linearGradient>
</defs>
</svg>
