<svg width="36" height="24" viewBox="0 0 36 24" fill="none" xmlns="http://www.w3.org/2000/svg">
<path d="M7.5 24C5.375 24 3.59375 23.2812 2.15625 21.8438C0.71875 20.4062 0 18.625 0 16.5C0 14.375 0.73125 12.5938 2.19375 11.1562C3.65625 9.71875 5.425 9 7.5 9C9.425 9 11.0437 9.575 12.3562 10.725C13.6687 11.875 14.5 13.3 14.85 15H15.825L13.125 7.5H10.5V4.5H18V7.5H16.35L16.875 9H24.075L21.9 3H18V0H21.9C22.55 0 23.1312 0.175 23.6437 0.525C24.1562 0.875 24.525 1.35 24.75 1.95L27.3 8.925H28.5C30.575 8.925 32.3438 9.65625 33.8063 11.1187C35.2688 12.5812 36 14.35 36 16.425C36 18.525 35.275 20.3125 33.825 21.7875C32.375 23.2625 30.6 24 28.5 24C26.7 24 25.1187 23.4375 23.7563 22.3125C22.3938 21.1875 21.525 19.75 21.15 18H14.85C14.5 19.725 13.65 21.1562 12.3 22.2938C10.95 23.4313 9.35 24 7.5 24ZM7.5 18H11.7V15H7.5V18ZM19.05 15H21.15C21.275 14.425 21.4438 13.8875 21.6562 13.3875C21.8687 12.8875 22.15 12.425 22.5 12H17.925L19.05 15ZM27 17.025L29.85 15.975L28.35 12L25.575 13.05L27 17.025Z" fill="white"/>
</svg>
