<svg width="128" height="131" viewBox="0 0 128 131" fill="none" xmlns="http://www.w3.org/2000/svg">
<path d="M70.3016 109.499C98.3016 109.499 121.002 86.7994 121.002 58.6994C121.002 30.5994 98.2016 7.89941 70.3016 7.89941C42.3016 7.89941 19.6016 30.5994 19.6016 58.6994C19.6016 86.7994 42.3016 109.499 70.3016 109.499Z" fill="#EAEEF9"/>
<path d="M117.702 25.4002C119.966 25.4002 121.802 23.5646 121.802 21.3002C121.802 19.0358 119.966 17.2002 117.702 17.2002C115.437 17.2002 113.602 19.0358 113.602 21.3002C113.602 23.5646 115.437 25.4002 117.702 25.4002Z" fill="#EAEEF9"/>
<path d="M123.698 9.3998C125.245 9.3998 126.498 8.1462 126.498 6.5998C126.498 5.05341 125.245 3.7998 123.698 3.7998C122.152 3.7998 120.898 5.05341 120.898 6.5998C120.898 8.1462 122.152 9.3998 123.698 9.3998Z" fill="#EAEEF9"/>
<path d="M22.3 25.3002C23.8464 25.3002 25.1 24.0466 25.1 22.5002C25.1 20.9538 23.8464 19.7002 22.3 19.7002C20.7536 19.7002 19.5 20.9538 19.5 22.5002C19.5 24.0466 20.7536 25.3002 22.3 25.3002Z" fill="#EAEEF9"/>
<path d="M5.2 79.2994C8.07188 79.2994 10.4 76.9713 10.4 74.0994C10.4 71.2275 8.07188 68.8994 5.2 68.8994C2.32812 68.8994 0 71.2275 0 74.0994C0 76.9713 2.32812 79.2994 5.2 79.2994Z" fill="#EAEEF9"/>
<g filter="url(#filter0_d_11118_13308)">
<path d="M104.801 33.3L105.601 97.7C105.601 99.9 103.801 101.6 101.601 101.6H38.8008C36.6008 101.6 34.8008 99.8 34.8008 97.7V14.9C34.8008 12.7 36.6008 11 38.8008 11H84.3008L104.801 33.3Z" fill="url(#paint0_linear_11118_13308)"/>
</g>
<path d="M65.3992 88.7H63.0992C62.5992 88.7 62.1992 88.2 62.1992 87.6C62.1992 87 62.5992 86.5 63.0992 86.5H65.3992C65.8992 86.5 66.2992 87 66.2992 87.6C66.2992 88.3 65.8992 88.7 65.3992 88.7Z" fill="#CED7E2"/>
<path d="M58.4016 88.7H45.0016C44.5016 88.7 44.1016 88.2 44.1016 87.6C44.1016 87 44.5016 86.5 45.0016 86.5H58.4016C58.9016 86.5 59.3016 87 59.3016 87.6C59.3016 88.3 58.9016 88.7 58.4016 88.7Z" fill="#D5DDEA"/>
<path d="M75.5016 24.4994H45.4016C44.7016 24.4994 44.1016 23.8994 44.1016 23.1994C44.1016 22.4994 44.7016 21.8994 45.4016 21.8994H75.5016C76.2016 21.8994 76.8016 22.4994 76.8016 23.1994C76.8016 23.8994 76.2016 24.4994 75.5016 24.4994Z" fill="#D5DDEA"/>
<path d="M57.0016 31.6996H45.4016C44.7016 31.6996 44.1016 31.0996 44.1016 30.3996C44.1016 29.6996 44.7016 29.0996 45.4016 29.0996H56.9016C57.6016 29.0996 58.2016 29.6996 58.2016 30.3996C58.2016 31.0996 57.6016 31.6996 57.0016 31.6996Z" fill="#D5DDEA"/>
<path d="M84.3008 11V28.8C84.3008 31.3 86.5008 33.3 89.0008 33.3H104.801" fill="#D5DDEA"/>
<path d="M109.6 103.1C108.6 103.1 107.6 102.7 106.8 101.8L90.1 85.0998L89.5 85.4998C84.1 89.4998 77.8 91.5998 71.4 91.5998C63.7 91.5998 56 88.4998 50.3 83.0998C44.3 77.3998 41 69.6998 41 61.2998C41 44.5998 54.6 30.9998 71.3 30.9998C82.7 30.9998 92.7 36.9998 98.1 47.1998C103.4 57.2998 102.7 69.0998 96.2 78.5998L95.8 79.1998L112.6 95.9998C114.3 97.6998 113.9 99.3998 113.6 100.3C112.8 101.9 111.2 103.1 109.6 103.1ZM71.3 39.2998C59.1 39.2998 49.3 49.1998 49.3 61.2998C49.3 75.0998 60.6 83.3998 71.6 83.3998C78.3 83.3998 84.4 80.3998 88.7 74.9998C94 68.3998 94.9 59.4998 91.2 51.7998C87.4 44.0998 79.8 39.2998 71.3 39.2998Z" fill="#989FB0"/>
<path d="M61.7984 64.9006C63.0984 64.9006 64.1984 63.8006 64.1984 62.5006C64.1984 61.2006 63.0984 60.1006 61.7984 60.1006C60.4984 60.1006 59.3984 61.2006 59.3984 62.5006C59.3984 63.8006 60.4984 64.9006 61.7984 64.9006Z" fill="#989FB0"/>
<path d="M80.2008 64.9006C81.5008 64.9006 82.6008 63.8006 82.6008 62.5006C82.6008 61.2006 81.5008 60.1006 80.2008 60.1006C78.9008 60.1006 77.8008 61.2006 77.8008 62.5006C77.8008 63.9006 78.9008 64.9006 80.2008 64.9006Z" fill="#989FB0"/>
<path d="M61.7052 54.5606L56.4258 57.4111L57.1384 58.731L62.4178 55.8804L61.7052 54.5606Z" fill="#989FB0"/>
<path d="M79.8727 54.5218L79.1602 55.8418L84.4402 58.6918L85.1527 57.3718L79.8727 54.5218Z" fill="#989FB0"/>
<path d="M70.9992 70.4998C72.5456 70.4998 73.7992 69.5596 73.7992 68.3998C73.7992 67.24 72.5456 66.2998 70.9992 66.2998C69.4528 66.2998 68.1992 67.24 68.1992 68.3998C68.1992 69.5596 69.4528 70.4998 70.9992 70.4998Z" fill="#989FB0"/>
<defs>
<filter id="filter0_d_11118_13308" x="12.8008" y="0" width="114.8" height="134.6" filterUnits="userSpaceOnUse" color-interpolation-filters="sRGB">
<feFlood flood-opacity="0" result="BackgroundImageFix"/>
<feColorMatrix in="SourceAlpha" type="matrix" values="0 0 0 0 0 0 0 0 0 0 0 0 0 0 0 0 0 0 127 0" result="hardAlpha"/>
<feOffset dy="11"/>
<feGaussianBlur stdDeviation="11"/>
<feColorMatrix type="matrix" values="0 0 0 0 0.397708 0 0 0 0 0.47749 0 0 0 0 0.575 0 0 0 0.27 0"/>
<feBlend mode="normal" in2="BackgroundImageFix" result="effect1_dropShadow_11118_13308"/>
<feBlend mode="normal" in="SourceGraphic" in2="effect1_dropShadow_11118_13308" result="shape"/>
</filter>
<linearGradient id="paint0_linear_11118_13308" x1="70.1777" y1="8.90434" x2="70.1777" y2="102.577" gradientUnits="userSpaceOnUse">
<stop stop-color="#FDFEFF"/>
<stop offset="0.9964" stop-color="#ECF0F5"/>
</linearGradient>
</defs>
</svg>
