<svg width="13" height="12" viewBox="0 0 13 12" fill="none" xmlns="http://www.w3.org/2000/svg">
<path d="M10.9667 11.55L9.42083 10.0333H3.20833C2.31389 10.0333 1.55556 9.72222 0.933333 9.1C0.311111 8.47778 0 7.71944 0 6.825C0 6.07639 0.230903 5.41042 0.692708 4.82708C1.15451 4.24375 1.75 3.86944 2.47917 3.70417C2.50833 3.62639 2.5375 3.55104 2.56667 3.47813C2.59583 3.40521 2.625 3.325 2.65417 3.2375L0.233333 0.816667L1.05 0L11.7833 10.7333L10.9667 11.55ZM3.20833 8.86667H8.25417L3.55833 4.17083C3.53889 4.27778 3.52431 4.37986 3.51458 4.47708C3.50486 4.57431 3.5 4.67639 3.5 4.78333H3.20833C2.64444 4.78333 2.16319 4.98264 1.76458 5.38125C1.36597 5.77986 1.16667 6.26111 1.16667 6.825C1.16667 7.38889 1.36597 7.87014 1.76458 8.26875C2.16319 8.66736 2.64444 8.86667 3.20833 8.86667ZM12.0167 9.30417L11.1708 8.4875C11.3361 8.35139 11.4601 8.1934 11.5427 8.01354C11.6253 7.83368 11.6667 7.63194 11.6667 7.40833C11.6667 7 11.5257 6.65486 11.2437 6.37292C10.9618 6.09097 10.6167 5.95 10.2083 5.95H9.33333V4.78333C9.33333 3.97639 9.04896 3.28854 8.48021 2.71979C7.91146 2.15104 7.22361 1.86667 6.41667 1.86667C6.15417 1.86667 5.90139 1.89826 5.65833 1.96146C5.41528 2.02465 5.18194 2.12431 4.95833 2.26042L4.1125 1.41458C4.45278 1.18125 4.81493 1.00382 5.19896 0.882292C5.58299 0.760764 5.98889 0.7 6.41667 0.7C7.55417 0.7 8.5191 1.09618 9.31146 1.88854C10.1038 2.6809 10.5 3.64583 10.5 4.78333C11.1708 4.86111 11.7274 5.15035 12.1698 5.65104C12.6122 6.15174 12.8333 6.7375 12.8333 7.40833C12.8333 7.7875 12.7604 8.13993 12.6146 8.46562C12.4688 8.79132 12.2694 9.07083 12.0167 9.30417Z" fill="#434653"/>
</svg>
