<svg width="46" height="46" viewBox="0 0 46 46" fill="none" xmlns="http://www.w3.org/2000/svg">
<rect width="46" height="46" rx="23" fill="#E11B22" fill-opacity="0.1"/>
<mask id="path-2-outside-1_11446_572" maskUnits="userSpaceOnUse" x="8.875" y="10.75" width="28" height="24" fill="black">
<rect fill="white" x="8.875" y="10.75" width="28" height="24"/>
<path fill-rule="evenodd" clip-rule="evenodd" d="M22.9985 11.75C21.5236 11.75 20.4592 12.8682 20.1359 14.2483H17.9996C16.9716 14.2483 16.1239 15.0954 16.1239 16.1234V16.7491H11.7507C10.7227 16.7491 9.875 17.5968 9.875 18.6248V32.3737C9.875 33.4017 10.7227 34.2494 11.7507 34.2494H14.2489C14.3321 34.2512 14.4149 34.2364 14.4923 34.2058C14.5698 34.1753 14.6403 34.1295 14.6999 34.0713C14.7594 34.0131 14.8067 33.9436 14.839 33.8668C14.8713 33.7901 14.8879 33.7076 14.8879 33.6244C14.8879 33.5411 14.8713 33.4587 14.839 33.3819C14.8067 33.3052 14.7594 33.2356 14.6999 33.1774C14.6403 33.1192 14.5698 33.0734 14.4923 33.0429C14.4149 33.0123 14.3321 32.9975 14.2489 32.9993H11.7507C11.3936 32.9993 11.125 32.7308 11.125 32.3737V18.6248C11.125 18.2677 11.3936 17.9991 11.7507 17.9991H34.2493C34.6064 17.9991 34.8744 18.2677 34.8744 18.6248V32.3737C34.8744 32.7308 34.6064 32.9993 34.2493 32.9993H19.2502C19.167 32.9975 19.0842 33.0123 19.0068 33.0429C18.9293 33.0734 18.8588 33.1192 18.7992 33.1774C18.7397 33.2356 18.6924 33.3052 18.6601 33.3819C18.6278 33.4587 18.6112 33.5411 18.6112 33.6244C18.6112 33.7076 18.6278 33.7901 18.6601 33.8668C18.6924 33.9436 18.7397 34.0131 18.7992 34.0713C18.8588 34.1295 18.9293 34.1753 19.0068 34.2058C19.0842 34.2364 19.167 34.2512 19.2502 34.2494H34.2493C35.2773 34.2494 36.125 33.4017 36.125 32.3737V18.6248C36.125 17.5968 35.2773 16.7491 34.2493 16.7491H29.8755V16.1234C29.8755 15.0954 29.0284 14.2483 28.0004 14.2483H25.8641C25.5407 12.8682 24.4734 11.75 22.9985 11.75ZM22.9985 12.9976C24.0414 12.9976 24.8741 13.8303 24.8741 14.8733C24.8741 15.0391 24.94 15.1981 25.0572 15.3153C25.1744 15.4325 25.3334 15.4984 25.4991 15.4984H28.0004C28.3575 15.4984 28.6254 15.7663 28.6254 16.1234V16.7491H17.3746V16.1234C17.3746 15.7663 17.6425 15.4984 17.9996 15.4984H20.5002C20.5824 15.4984 20.6637 15.4823 20.7396 15.451C20.8155 15.4196 20.8845 15.3735 20.9426 15.3155C21.0007 15.2575 21.0468 15.1885 21.0782 15.1127C21.1097 15.0368 21.1259 14.9555 21.1259 14.8733C21.1259 13.8303 21.9555 12.9976 22.9985 12.9976ZM17.9678 20.4993C17.9005 20.5045 17.8497 20.5153 17.8012 20.5322L14.0523 21.7805C13.483 21.9707 13.483 22.7762 14.0523 22.9664L14.9001 23.249C14.8847 23.373 14.874 23.4978 14.8739 23.6238C14.8734 24.5728 15.3033 25.4255 15.9768 26C14.5814 26.7332 13.6233 28.1959 13.6233 29.8754C13.6233 30.0412 13.6891 30.2003 13.8064 30.3176C13.9237 30.4348 14.0827 30.5007 14.2486 30.5007C14.4144 30.5007 14.5735 30.4348 14.6907 30.3176C14.808 30.2003 14.8739 30.0412 14.8739 29.8754C14.8739 28.142 16.2662 26.7496 17.9996 26.7496C19.7329 26.7496 21.1259 28.142 21.1259 29.8754C21.1204 29.9607 21.1325 30.0462 21.1613 30.1266C21.1902 30.207 21.2353 30.2807 21.2937 30.343C21.3522 30.4054 21.4228 30.455 21.5012 30.489C21.5797 30.523 21.6642 30.5405 21.7497 30.5405C21.8351 30.5405 21.9197 30.523 21.9981 30.489C22.0765 30.455 22.1471 30.4054 22.2056 30.343C22.2641 30.2807 22.3091 30.207 22.338 30.1266C22.3669 30.0462 22.3789 29.9607 22.3735 29.8754C22.3735 28.1959 21.4171 26.7332 20.0223 26C20.696 25.4255 21.1265 24.5728 21.1259 23.6238C21.1258 23.498 21.1148 23.373 21.099 23.249L21.9468 22.9664C22.5162 22.7762 22.5162 21.9707 21.9468 21.7805L18.1979 20.5322C18.1187 20.505 18.0352 20.494 17.9678 20.4993ZM17.9996 21.7847L19.7739 22.3731L17.9996 22.9664L16.2259 22.3731L17.9996 21.7847ZM24.8741 22.9982C24.7083 22.9982 24.5492 23.0641 24.432 23.1813C24.3147 23.2986 24.2488 23.4577 24.2488 23.6235C24.2488 23.7894 24.3147 23.9484 24.432 24.0657C24.5492 24.183 24.7083 24.2488 24.8741 24.2488H29.8755C30.0413 24.2488 30.2004 24.183 30.3176 24.0657C30.4349 23.9484 30.5008 23.7894 30.5008 23.6235C30.5008 23.4577 30.4349 23.2986 30.3176 23.1813C30.2004 23.0641 30.0413 22.9982 29.8755 22.9982H24.8741ZM31.7499 22.9994C31.6678 22.9994 31.5865 23.0156 31.5107 23.047C31.4349 23.0784 31.366 23.1244 31.3079 23.1825C31.2499 23.2405 31.2039 23.3094 31.1725 23.3852C31.141 23.4611 31.1249 23.5423 31.1249 23.6244C31.1249 23.7065 31.141 23.7878 31.1725 23.8636C31.2039 23.9394 31.2499 24.0084 31.3079 24.0664C31.366 24.1244 31.4349 24.1705 31.5107 24.2019C31.5865 24.2333 31.6678 24.2495 31.7499 24.2495C31.832 24.2495 31.9132 24.2333 31.9891 24.2019C32.0649 24.1705 32.1338 24.1244 32.1919 24.0664C32.2499 24.0084 32.2959 23.9394 32.3273 23.8636C32.3587 23.7878 32.3749 23.7065 32.3749 23.6244C32.3749 23.5423 32.3587 23.4611 32.3273 23.3852C32.2959 23.3094 32.2499 23.2405 32.1919 23.1825C32.1338 23.1244 32.0649 23.0784 31.9891 23.047C31.9132 23.0156 31.832 22.9994 31.7499 22.9994ZM16.1258 23.658L17.8012 24.2165C17.93 24.2596 18.0692 24.2596 18.1979 24.2165L19.8734 23.658C19.8571 24.6854 19.0318 25.4989 17.9996 25.4989C16.9682 25.4989 16.1434 24.6844 16.1258 23.658ZM24.8741 25.4989C24.7083 25.4989 24.5492 25.5648 24.432 25.6821C24.3147 25.7993 24.2488 25.9584 24.2488 26.1243C24.2488 26.2901 24.3147 26.4492 24.432 26.5664C24.5492 26.6837 24.7083 26.7496 24.8741 26.7496H31.7487C31.9145 26.7496 32.0736 26.6837 32.1908 26.5664C32.3081 26.4492 32.374 26.2901 32.374 26.1243C32.374 25.9584 32.3081 25.7993 32.1908 25.6821C32.0736 25.5648 31.9145 25.4989 31.7487 25.4989H24.8741ZM24.8741 28.0003C24.7909 27.9984 24.7081 28.0132 24.6307 28.0438C24.5532 28.0744 24.4827 28.1201 24.4231 28.1784C24.3636 28.2366 24.3163 28.3061 24.284 28.3829C24.2517 28.4596 24.2351 28.542 24.2351 28.6253C24.2351 28.7086 24.2517 28.791 24.284 28.8678C24.3163 28.9445 24.3636 29.014 24.4231 29.0723C24.4827 29.1305 24.5532 29.1762 24.6307 29.2068C24.7081 29.2374 24.7909 29.2522 24.8741 29.2503H29.2505C29.3337 29.2522 29.4165 29.2374 29.4939 29.2068C29.5714 29.1762 29.6419 29.1305 29.7015 29.0723C29.761 29.014 29.8083 28.9445 29.8406 28.8678C29.8729 28.791 29.8895 28.7086 29.8895 28.6253C29.8895 28.542 29.8729 28.4596 29.8406 28.3829C29.8083 28.3061 29.761 28.2366 29.7015 28.1784C29.6419 28.1201 29.5714 28.0744 29.4939 28.0438C29.4165 28.0132 29.3337 27.9984 29.2505 28.0003H24.8741ZM16.7495 32.9999C16.6675 32.9999 16.5862 33.0161 16.5104 33.0475C16.4345 33.0789 16.3656 33.125 16.3076 33.183C16.2496 33.241 16.2035 33.3099 16.1721 33.3858C16.1407 33.4616 16.1245 33.5429 16.1245 33.625C16.1245 33.707 16.1407 33.7883 16.1721 33.8642C16.2035 33.94 16.2496 34.0089 16.3076 34.0669C16.3656 34.125 16.4345 34.171 16.5104 34.2024C16.5862 34.2338 16.6675 34.25 16.7495 34.25C16.8316 34.25 16.9129 34.2338 16.9887 34.2024C17.0646 34.171 17.1335 34.125 17.1915 34.0669C17.2495 34.0089 17.2956 33.94 17.327 33.8642C17.3584 33.7883 17.3746 33.707 17.3746 33.625C17.3746 33.5429 17.3584 33.4616 17.327 33.3858C17.2956 33.3099 17.2495 33.241 17.1915 33.183C17.1335 33.125 17.0646 33.0789 16.9887 33.0475C16.9129 33.0161 16.8316 32.9999 16.7495 32.9999Z"/>
</mask>
<path fill-rule="evenodd" clip-rule="evenodd" d="M22.9985 11.75C21.5236 11.75 20.4592 12.8682 20.1359 14.2483H17.9996C16.9716 14.2483 16.1239 15.0954 16.1239 16.1234V16.7491H11.7507C10.7227 16.7491 9.875 17.5968 9.875 18.6248V32.3737C9.875 33.4017 10.7227 34.2494 11.7507 34.2494H14.2489C14.3321 34.2512 14.4149 34.2364 14.4923 34.2058C14.5698 34.1753 14.6403 34.1295 14.6999 34.0713C14.7594 34.0131 14.8067 33.9436 14.839 33.8668C14.8713 33.7901 14.8879 33.7076 14.8879 33.6244C14.8879 33.5411 14.8713 33.4587 14.839 33.3819C14.8067 33.3052 14.7594 33.2356 14.6999 33.1774C14.6403 33.1192 14.5698 33.0734 14.4923 33.0429C14.4149 33.0123 14.3321 32.9975 14.2489 32.9993H11.7507C11.3936 32.9993 11.125 32.7308 11.125 32.3737V18.6248C11.125 18.2677 11.3936 17.9991 11.7507 17.9991H34.2493C34.6064 17.9991 34.8744 18.2677 34.8744 18.6248V32.3737C34.8744 32.7308 34.6064 32.9993 34.2493 32.9993H19.2502C19.167 32.9975 19.0842 33.0123 19.0068 33.0429C18.9293 33.0734 18.8588 33.1192 18.7992 33.1774C18.7397 33.2356 18.6924 33.3052 18.6601 33.3819C18.6278 33.4587 18.6112 33.5411 18.6112 33.6244C18.6112 33.7076 18.6278 33.7901 18.6601 33.8668C18.6924 33.9436 18.7397 34.0131 18.7992 34.0713C18.8588 34.1295 18.9293 34.1753 19.0068 34.2058C19.0842 34.2364 19.167 34.2512 19.2502 34.2494H34.2493C35.2773 34.2494 36.125 33.4017 36.125 32.3737V18.6248C36.125 17.5968 35.2773 16.7491 34.2493 16.7491H29.8755V16.1234C29.8755 15.0954 29.0284 14.2483 28.0004 14.2483H25.8641C25.5407 12.8682 24.4734 11.75 22.9985 11.75ZM22.9985 12.9976C24.0414 12.9976 24.8741 13.8303 24.8741 14.8733C24.8741 15.0391 24.94 15.1981 25.0572 15.3153C25.1744 15.4325 25.3334 15.4984 25.4991 15.4984H28.0004C28.3575 15.4984 28.6254 15.7663 28.6254 16.1234V16.7491H17.3746V16.1234C17.3746 15.7663 17.6425 15.4984 17.9996 15.4984H20.5002C20.5824 15.4984 20.6637 15.4823 20.7396 15.451C20.8155 15.4196 20.8845 15.3735 20.9426 15.3155C21.0007 15.2575 21.0468 15.1885 21.0782 15.1127C21.1097 15.0368 21.1259 14.9555 21.1259 14.8733C21.1259 13.8303 21.9555 12.9976 22.9985 12.9976ZM17.9678 20.4993C17.9005 20.5045 17.8497 20.5153 17.8012 20.5322L14.0523 21.7805C13.483 21.9707 13.483 22.7762 14.0523 22.9664L14.9001 23.249C14.8847 23.373 14.874 23.4978 14.8739 23.6238C14.8734 24.5728 15.3033 25.4255 15.9768 26C14.5814 26.7332 13.6233 28.1959 13.6233 29.8754C13.6233 30.0412 13.6891 30.2003 13.8064 30.3176C13.9237 30.4348 14.0827 30.5007 14.2486 30.5007C14.4144 30.5007 14.5735 30.4348 14.6907 30.3176C14.808 30.2003 14.8739 30.0412 14.8739 29.8754C14.8739 28.142 16.2662 26.7496 17.9996 26.7496C19.7329 26.7496 21.1259 28.142 21.1259 29.8754C21.1204 29.9607 21.1325 30.0462 21.1613 30.1266C21.1902 30.207 21.2353 30.2807 21.2937 30.343C21.3522 30.4054 21.4228 30.455 21.5012 30.489C21.5797 30.523 21.6642 30.5405 21.7497 30.5405C21.8351 30.5405 21.9197 30.523 21.9981 30.489C22.0765 30.455 22.1471 30.4054 22.2056 30.343C22.2641 30.2807 22.3091 30.207 22.338 30.1266C22.3669 30.0462 22.3789 29.9607 22.3735 29.8754C22.3735 28.1959 21.4171 26.7332 20.0223 26C20.696 25.4255 21.1265 24.5728 21.1259 23.6238C21.1258 23.498 21.1148 23.373 21.099 23.249L21.9468 22.9664C22.5162 22.7762 22.5162 21.9707 21.9468 21.7805L18.1979 20.5322C18.1187 20.505 18.0352 20.494 17.9678 20.4993ZM17.9996 21.7847L19.7739 22.3731L17.9996 22.9664L16.2259 22.3731L17.9996 21.7847ZM24.8741 22.9982C24.7083 22.9982 24.5492 23.0641 24.432 23.1813C24.3147 23.2986 24.2488 23.4577 24.2488 23.6235C24.2488 23.7894 24.3147 23.9484 24.432 24.0657C24.5492 24.183 24.7083 24.2488 24.8741 24.2488H29.8755C30.0413 24.2488 30.2004 24.183 30.3176 24.0657C30.4349 23.9484 30.5008 23.7894 30.5008 23.6235C30.5008 23.4577 30.4349 23.2986 30.3176 23.1813C30.2004 23.0641 30.0413 22.9982 29.8755 22.9982H24.8741ZM31.7499 22.9994C31.6678 22.9994 31.5865 23.0156 31.5107 23.047C31.4349 23.0784 31.366 23.1244 31.3079 23.1825C31.2499 23.2405 31.2039 23.3094 31.1725 23.3852C31.141 23.4611 31.1249 23.5423 31.1249 23.6244C31.1249 23.7065 31.141 23.7878 31.1725 23.8636C31.2039 23.9394 31.2499 24.0084 31.3079 24.0664C31.366 24.1244 31.4349 24.1705 31.5107 24.2019C31.5865 24.2333 31.6678 24.2495 31.7499 24.2495C31.832 24.2495 31.9132 24.2333 31.9891 24.2019C32.0649 24.1705 32.1338 24.1244 32.1919 24.0664C32.2499 24.0084 32.2959 23.9394 32.3273 23.8636C32.3587 23.7878 32.3749 23.7065 32.3749 23.6244C32.3749 23.5423 32.3587 23.4611 32.3273 23.3852C32.2959 23.3094 32.2499 23.2405 32.1919 23.1825C32.1338 23.1244 32.0649 23.0784 31.9891 23.047C31.9132 23.0156 31.832 22.9994 31.7499 22.9994ZM16.1258 23.658L17.8012 24.2165C17.93 24.2596 18.0692 24.2596 18.1979 24.2165L19.8734 23.658C19.8571 24.6854 19.0318 25.4989 17.9996 25.4989C16.9682 25.4989 16.1434 24.6844 16.1258 23.658ZM24.8741 25.4989C24.7083 25.4989 24.5492 25.5648 24.432 25.6821C24.3147 25.7993 24.2488 25.9584 24.2488 26.1243C24.2488 26.2901 24.3147 26.4492 24.432 26.5664C24.5492 26.6837 24.7083 26.7496 24.8741 26.7496H31.7487C31.9145 26.7496 32.0736 26.6837 32.1908 26.5664C32.3081 26.4492 32.374 26.2901 32.374 26.1243C32.374 25.9584 32.3081 25.7993 32.1908 25.6821C32.0736 25.5648 31.9145 25.4989 31.7487 25.4989H24.8741ZM24.8741 28.0003C24.7909 27.9984 24.7081 28.0132 24.6307 28.0438C24.5532 28.0744 24.4827 28.1201 24.4231 28.1784C24.3636 28.2366 24.3163 28.3061 24.284 28.3829C24.2517 28.4596 24.2351 28.542 24.2351 28.6253C24.2351 28.7086 24.2517 28.791 24.284 28.8678C24.3163 28.9445 24.3636 29.014 24.4231 29.0723C24.4827 29.1305 24.5532 29.1762 24.6307 29.2068C24.7081 29.2374 24.7909 29.2522 24.8741 29.2503H29.2505C29.3337 29.2522 29.4165 29.2374 29.4939 29.2068C29.5714 29.1762 29.6419 29.1305 29.7015 29.0723C29.761 29.014 29.8083 28.9445 29.8406 28.8678C29.8729 28.791 29.8895 28.7086 29.8895 28.6253C29.8895 28.542 29.8729 28.4596 29.8406 28.3829C29.8083 28.3061 29.761 28.2366 29.7015 28.1784C29.6419 28.1201 29.5714 28.0744 29.4939 28.0438C29.4165 28.0132 29.3337 27.9984 29.2505 28.0003H24.8741ZM16.7495 32.9999C16.6675 32.9999 16.5862 33.0161 16.5104 33.0475C16.4345 33.0789 16.3656 33.125 16.3076 33.183C16.2496 33.241 16.2035 33.3099 16.1721 33.3858C16.1407 33.4616 16.1245 33.5429 16.1245 33.625C16.1245 33.707 16.1407 33.7883 16.1721 33.8642C16.2035 33.94 16.2496 34.0089 16.3076 34.0669C16.3656 34.125 16.4345 34.171 16.5104 34.2024C16.5862 34.2338 16.6675 34.25 16.7495 34.25C16.8316 34.25 16.9129 34.2338 16.9887 34.2024C17.0646 34.171 17.1335 34.125 17.1915 34.0669C17.2495 34.0089 17.2956 33.94 17.327 33.8642C17.3584 33.7883 17.3746 33.707 17.3746 33.625C17.3746 33.5429 17.3584 33.4616 17.327 33.3858C17.2956 33.3099 17.2495 33.241 17.1915 33.183C17.1335 33.125 17.0646 33.0789 16.9887 33.0475C16.9129 33.0161 16.8316 32.9999 16.7495 32.9999Z" fill="#E11B22"/>
<path fill-rule="evenodd" clip-rule="evenodd" d="M22.9985 11.75C21.5236 11.75 20.4592 12.8682 20.1359 14.2483H17.9996C16.9716 14.2483 16.1239 15.0954 16.1239 16.1234V16.7491H11.7507C10.7227 16.7491 9.875 17.5968 9.875 18.6248V32.3737C9.875 33.4017 10.7227 34.2494 11.7507 34.2494H14.2489C14.3321 34.2512 14.4149 34.2364 14.4923 34.2058C14.5698 34.1753 14.6403 34.1295 14.6999 34.0713C14.7594 34.0131 14.8067 33.9436 14.839 33.8668C14.8713 33.7901 14.8879 33.7076 14.8879 33.6244C14.8879 33.5411 14.8713 33.4587 14.839 33.3819C14.8067 33.3052 14.7594 33.2356 14.6999 33.1774C14.6403 33.1192 14.5698 33.0734 14.4923 33.0429C14.4149 33.0123 14.3321 32.9975 14.2489 32.9993H11.7507C11.3936 32.9993 11.125 32.7308 11.125 32.3737V18.6248C11.125 18.2677 11.3936 17.9991 11.7507 17.9991H34.2493C34.6064 17.9991 34.8744 18.2677 34.8744 18.6248V32.3737C34.8744 32.7308 34.6064 32.9993 34.2493 32.9993H19.2502C19.167 32.9975 19.0842 33.0123 19.0068 33.0429C18.9293 33.0734 18.8588 33.1192 18.7992 33.1774C18.7397 33.2356 18.6924 33.3052 18.6601 33.3819C18.6278 33.4587 18.6112 33.5411 18.6112 33.6244C18.6112 33.7076 18.6278 33.7901 18.6601 33.8668C18.6924 33.9436 18.7397 34.0131 18.7992 34.0713C18.8588 34.1295 18.9293 34.1753 19.0068 34.2058C19.0842 34.2364 19.167 34.2512 19.2502 34.2494H34.2493C35.2773 34.2494 36.125 33.4017 36.125 32.3737V18.6248C36.125 17.5968 35.2773 16.7491 34.2493 16.7491H29.8755V16.1234C29.8755 15.0954 29.0284 14.2483 28.0004 14.2483H25.8641C25.5407 12.8682 24.4734 11.75 22.9985 11.75ZM22.9985 12.9976C24.0414 12.9976 24.8741 13.8303 24.8741 14.8733C24.8741 15.0391 24.94 15.1981 25.0572 15.3153C25.1744 15.4325 25.3334 15.4984 25.4991 15.4984H28.0004C28.3575 15.4984 28.6254 15.7663 28.6254 16.1234V16.7491H17.3746V16.1234C17.3746 15.7663 17.6425 15.4984 17.9996 15.4984H20.5002C20.5824 15.4984 20.6637 15.4823 20.7396 15.451C20.8155 15.4196 20.8845 15.3735 20.9426 15.3155C21.0007 15.2575 21.0468 15.1885 21.0782 15.1127C21.1097 15.0368 21.1259 14.9555 21.1259 14.8733C21.1259 13.8303 21.9555 12.9976 22.9985 12.9976ZM17.9678 20.4993C17.9005 20.5045 17.8497 20.5153 17.8012 20.5322L14.0523 21.7805C13.483 21.9707 13.483 22.7762 14.0523 22.9664L14.9001 23.249C14.8847 23.373 14.874 23.4978 14.8739 23.6238C14.8734 24.5728 15.3033 25.4255 15.9768 26C14.5814 26.7332 13.6233 28.1959 13.6233 29.8754C13.6233 30.0412 13.6891 30.2003 13.8064 30.3176C13.9237 30.4348 14.0827 30.5007 14.2486 30.5007C14.4144 30.5007 14.5735 30.4348 14.6907 30.3176C14.808 30.2003 14.8739 30.0412 14.8739 29.8754C14.8739 28.142 16.2662 26.7496 17.9996 26.7496C19.7329 26.7496 21.1259 28.142 21.1259 29.8754C21.1204 29.9607 21.1325 30.0462 21.1613 30.1266C21.1902 30.207 21.2353 30.2807 21.2937 30.343C21.3522 30.4054 21.4228 30.455 21.5012 30.489C21.5797 30.523 21.6642 30.5405 21.7497 30.5405C21.8351 30.5405 21.9197 30.523 21.9981 30.489C22.0765 30.455 22.1471 30.4054 22.2056 30.343C22.2641 30.2807 22.3091 30.207 22.338 30.1266C22.3669 30.0462 22.3789 29.9607 22.3735 29.8754C22.3735 28.1959 21.4171 26.7332 20.0223 26C20.696 25.4255 21.1265 24.5728 21.1259 23.6238C21.1258 23.498 21.1148 23.373 21.099 23.249L21.9468 22.9664C22.5162 22.7762 22.5162 21.9707 21.9468 21.7805L18.1979 20.5322C18.1187 20.505 18.0352 20.494 17.9678 20.4993ZM17.9996 21.7847L19.7739 22.3731L17.9996 22.9664L16.2259 22.3731L17.9996 21.7847ZM24.8741 22.9982C24.7083 22.9982 24.5492 23.0641 24.432 23.1813C24.3147 23.2986 24.2488 23.4577 24.2488 23.6235C24.2488 23.7894 24.3147 23.9484 24.432 24.0657C24.5492 24.183 24.7083 24.2488 24.8741 24.2488H29.8755C30.0413 24.2488 30.2004 24.183 30.3176 24.0657C30.4349 23.9484 30.5008 23.7894 30.5008 23.6235C30.5008 23.4577 30.4349 23.2986 30.3176 23.1813C30.2004 23.0641 30.0413 22.9982 29.8755 22.9982H24.8741ZM31.7499 22.9994C31.6678 22.9994 31.5865 23.0156 31.5107 23.047C31.4349 23.0784 31.366 23.1244 31.3079 23.1825C31.2499 23.2405 31.2039 23.3094 31.1725 23.3852C31.141 23.4611 31.1249 23.5423 31.1249 23.6244C31.1249 23.7065 31.141 23.7878 31.1725 23.8636C31.2039 23.9394 31.2499 24.0084 31.3079 24.0664C31.366 24.1244 31.4349 24.1705 31.5107 24.2019C31.5865 24.2333 31.6678 24.2495 31.7499 24.2495C31.832 24.2495 31.9132 24.2333 31.9891 24.2019C32.0649 24.1705 32.1338 24.1244 32.1919 24.0664C32.2499 24.0084 32.2959 23.9394 32.3273 23.8636C32.3587 23.7878 32.3749 23.7065 32.3749 23.6244C32.3749 23.5423 32.3587 23.4611 32.3273 23.3852C32.2959 23.3094 32.2499 23.2405 32.1919 23.1825C32.1338 23.1244 32.0649 23.0784 31.9891 23.047C31.9132 23.0156 31.832 22.9994 31.7499 22.9994ZM16.1258 23.658L17.8012 24.2165C17.93 24.2596 18.0692 24.2596 18.1979 24.2165L19.8734 23.658C19.8571 24.6854 19.0318 25.4989 17.9996 25.4989C16.9682 25.4989 16.1434 24.6844 16.1258 23.658ZM24.8741 25.4989C24.7083 25.4989 24.5492 25.5648 24.432 25.6821C24.3147 25.7993 24.2488 25.9584 24.2488 26.1243C24.2488 26.2901 24.3147 26.4492 24.432 26.5664C24.5492 26.6837 24.7083 26.7496 24.8741 26.7496H31.7487C31.9145 26.7496 32.0736 26.6837 32.1908 26.5664C32.3081 26.4492 32.374 26.2901 32.374 26.1243C32.374 25.9584 32.3081 25.7993 32.1908 25.6821C32.0736 25.5648 31.9145 25.4989 31.7487 25.4989H24.8741ZM24.8741 28.0003C24.7909 27.9984 24.7081 28.0132 24.6307 28.0438C24.5532 28.0744 24.4827 28.1201 24.4231 28.1784C24.3636 28.2366 24.3163 28.3061 24.284 28.3829C24.2517 28.4596 24.2351 28.542 24.2351 28.6253C24.2351 28.7086 24.2517 28.791 24.284 28.8678C24.3163 28.9445 24.3636 29.014 24.4231 29.0723C24.4827 29.1305 24.5532 29.1762 24.6307 29.2068C24.7081 29.2374 24.7909 29.2522 24.8741 29.2503H29.2505C29.3337 29.2522 29.4165 29.2374 29.4939 29.2068C29.5714 29.1762 29.6419 29.1305 29.7015 29.0723C29.761 29.014 29.8083 28.9445 29.8406 28.8678C29.8729 28.791 29.8895 28.7086 29.8895 28.6253C29.8895 28.542 29.8729 28.4596 29.8406 28.3829C29.8083 28.3061 29.761 28.2366 29.7015 28.1784C29.6419 28.1201 29.5714 28.0744 29.4939 28.0438C29.4165 28.0132 29.3337 27.9984 29.2505 28.0003H24.8741ZM16.7495 32.9999C16.6675 32.9999 16.5862 33.0161 16.5104 33.0475C16.4345 33.0789 16.3656 33.125 16.3076 33.183C16.2496 33.241 16.2035 33.3099 16.1721 33.3858C16.1407 33.4616 16.1245 33.5429 16.1245 33.625C16.1245 33.707 16.1407 33.7883 16.1721 33.8642C16.2035 33.94 16.2496 34.0089 16.3076 34.0669C16.3656 34.125 16.4345 34.171 16.5104 34.2024C16.5862 34.2338 16.6675 34.25 16.7495 34.25C16.8316 34.25 16.9129 34.2338 16.9887 34.2024C17.0646 34.171 17.1335 34.125 17.1915 34.0669C17.2495 34.0089 17.2956 33.94 17.327 33.8642C17.3584 33.7883 17.3746 33.707 17.3746 33.625C17.3746 33.5429 17.3584 33.4616 17.327 33.3858C17.2956 33.3099 17.2495 33.241 17.1915 33.183C17.1335 33.125 17.0646 33.0789 16.9887 33.0475C16.9129 33.0161 16.8316 32.9999 16.7495 32.9999Z" stroke="#E11B22" stroke-width="0.1" mask="url(#path-2-outside-1_11446_572)"/>
</svg>
