<svg width="46" height="46" viewBox="0 0 46 46" fill="none" xmlns="http://www.w3.org/2000/svg">
<rect width="46" height="46" rx="23" fill="#E11B22" fill-opacity="0.1"/>
<path d="M28.4521 11.6904C29.3627 11.6904 30.1304 12.2765 30.3564 13.0869C31.1912 13.3042 31.8104 14.0358 31.8105 14.9082V32.415C31.8103 33.4611 30.9199 34.3096 29.835 34.3096H16.167C16.1581 34.3096 16.1502 34.3091 16.1465 34.3086C16.1421 34.3079 16.1418 34.3076 16.1426 34.3076H16.1416C15.1392 34.2951 14.3115 33.5634 14.2041 32.6221L14.1924 32.4307C14.1922 32.4295 14.1916 32.4282 14.1914 32.4268V14.9102C14.1914 14.8459 14.1953 14.7816 14.2002 14.7197V14.7188C14.2024 14.6972 14.2069 14.677 14.2109 14.6602C14.2153 14.6421 14.2194 14.6276 14.2217 14.6133C14.2298 14.5622 14.2393 14.5121 14.252 14.4619H14.2529C14.2701 14.395 14.2909 14.331 14.3145 14.2686C14.3322 14.2206 14.351 14.1714 14.374 14.123H14.375C14.3783 14.1162 14.3808 14.1083 14.3848 14.0977C14.3884 14.0879 14.3938 14.0745 14.4004 14.0615V14.0605C14.4105 14.0417 14.4228 14.0252 14.4326 14.0117C14.4433 13.9971 14.4513 13.9859 14.458 13.9746C14.4959 13.9104 14.5369 13.848 14.583 13.7881L14.6865 13.666C14.7399 13.6077 14.7954 13.5542 14.8545 13.5029C14.8618 13.4965 14.8688 13.4892 14.8789 13.4785C14.888 13.4689 14.8997 13.4564 14.9141 13.4453C14.9508 13.4168 14.9916 13.3887 15.0293 13.3623L15.0312 13.3613C15.0343 13.3593 15.0374 13.3569 15.042 13.3535C15.0465 13.3502 15.0531 13.3451 15.0596 13.3408L15.0625 13.3389L15.0635 13.3379L15.0654 13.3369C15.1525 13.2791 15.2421 13.2323 15.334 13.1943C15.3713 13.1775 15.4088 13.1632 15.4453 13.1494C15.4895 13.1312 15.5343 13.1151 15.583 13.1006L15.6514 13.0859H15.6523C15.7181 13.0691 15.7838 13.0556 15.8516 13.0449C15.8629 13.0431 15.874 13.0406 15.8887 13.0371C15.9027 13.0337 15.9201 13.0295 15.9385 13.0273H15.9404L16.084 13.0186C16.1024 13.0155 16.1195 13.0137 16.1328 13.0137L28.3945 11.6924L28.4521 11.6904ZM29.835 14.0146H16.167C16.1656 14.0146 16.1635 14.0155 16.1562 14.0166C16.1505 14.0175 16.1395 14.0175 16.1279 14.0176L16.1289 14.0186C15.6411 14.0379 15.2531 14.4137 15.2354 14.876V14.877C15.2349 14.8863 15.2341 14.896 15.2334 14.9004C15.2327 14.9053 15.2324 14.9071 15.2324 14.9082V32.415C15.2329 32.418 15.2342 32.4253 15.2344 32.4336C15.2463 32.9008 15.6374 33.2824 16.1289 33.3018H16.1299C16.1401 33.3022 16.15 33.3039 16.1553 33.3047C16.1617 33.3056 16.1647 33.3057 16.167 33.3057H29.834C30.3514 33.3057 30.7694 32.9026 30.7695 32.4131V14.9082C30.7695 14.4766 30.4487 14.1137 30.0186 14.0322L29.9307 14.0195H29.9229C29.8947 14.0195 29.865 14.0178 29.835 14.0137V14.0146ZM25.5068 13.0127H29.168C29.0029 12.8228 28.757 12.6995 28.4785 12.6924L25.5068 13.0127Z" fill="#E11B22" stroke="#E11B22" stroke-width="0.12"/>
<mask id="path-3-outside-1_11446_380" maskUnits="userSpaceOnUse" x="17.001" y="14.5" width="13" height="18" fill="black">
<rect fill="white" x="17.001" y="14.5" width="13" height="18"/>
<path d="M22.3975 25.8465C22.4118 25.8517 22.4211 25.8562 22.4353 25.8613C22.7122 25.9298 22.9977 25.9737 23.2788 25.9931C23.2838 25.9982 23.2881 25.9982 23.2931 25.9982C23.3166 26.0034 23.3402 26.0079 23.3637 26.0079C23.4058 26.0079 23.4529 26.0079 23.495 26.0027C23.5371 26.0079 23.5842 26.0079 23.6263 26.0079C23.739 26.0079 23.8511 26.0027 23.9589 25.9931C24.2307 25.9782 24.4933 25.9395 24.7417 25.8755L24.8166 25.8562C26.8697 25.3383 28.3604 23.5691 28.618 21.4332C28.6509 21.2085 28.6651 20.9838 28.6651 20.754C28.6651 19.7376 28.3932 18.7846 27.9009 17.973C27.2258 16.834 26.1339 15.9843 24.8024 15.6466L24.751 15.6369C24.3528 15.5342 23.926 15.4903 23.495 15.5052C23.4529 15.5 23.4058 15.5 23.3637 15.5C23.3358 15.5 23.3073 15.5052 23.2795 15.5149C22.9983 15.5342 22.7122 15.5781 22.4359 15.6466C22.4267 15.6517 22.4124 15.6563 22.4031 15.6614C21.0951 15.9985 20.0175 16.8443 19.3517 17.973C18.8594 18.784 18.5875 19.737 18.5875 20.754C18.5875 20.9838 18.6017 21.2085 18.6345 21.4332C18.8922 23.5588 20.3643 25.3183 22.3988 25.8458L22.3975 25.8465ZM19.6317 22.5135C19.6317 22.5135 19.631 22.5102 19.6304 22.5089C19.9357 22.7562 20.2646 22.9712 20.6108 23.1598C20.8245 23.7002 21.1069 24.2084 21.4593 24.6681C21.4568 24.6662 21.4537 24.6655 21.4506 24.6636C20.63 24.1748 19.9927 23.4174 19.6317 22.5135ZM20.9725 19.5943C21.6859 19.9591 22.4644 20.1722 23.2739 20.2206V23.1779C22.5505 23.1327 21.834 22.9499 21.1595 22.6232C20.9595 22.0331 20.8523 21.4035 20.8523 20.754C20.8523 20.3581 20.8969 19.9707 20.9731 19.5943H20.9725ZM22.9871 16.3019C22.994 16.2968 22.9995 16.2897 23.0063 16.2832C23.0082 16.2832 23.0094 16.2826 23.0113 16.2826C23.1005 16.2677 23.1847 16.258 23.2739 16.2535V19.4878C22.5288 19.4374 21.8117 19.2321 21.1614 18.8782C21.5063 17.8652 22.1312 16.9715 22.9878 16.3026L22.9871 16.3019ZM26.2832 19.5962C26.3631 19.9727 26.4002 20.3588 26.4002 20.7546C26.4002 21.4016 26.2974 22.0344 26.093 22.6232C25.4174 22.9506 24.7008 23.1327 23.9768 23.1785V20.2213C24.7875 20.1728 25.5679 19.9591 26.2819 19.593C26.2819 19.5943 26.2819 19.5956 26.2826 19.5969L26.2832 19.5962ZM23.0076 25.226C23.0008 25.2195 22.9946 25.2124 22.9871 25.2066C22.4143 24.7591 21.9523 24.2077 21.6005 23.5911C22.1436 23.7764 22.7029 23.883 23.2733 23.9152V25.2557C23.1847 25.2512 23.0961 25.2408 23.007 25.2266L23.0076 25.226ZM24.3236 25.1621C24.2109 25.1911 24.0939 25.2111 23.9768 25.2253V23.9139C24.5509 23.8817 25.1139 23.7745 25.6601 23.5866C25.6601 23.5866 25.6601 23.5872 25.6601 23.5879C25.3226 24.1838 24.8724 24.7217 24.3243 25.1614L24.3236 25.1621ZM23.9768 19.4871V16.2819C24.0939 16.2968 24.2109 16.3161 24.3236 16.3452C25.1486 17.0096 25.753 17.8845 26.0906 18.8763C25.4403 19.2308 24.7225 19.4361 23.9768 19.4865V19.4871ZM25.8051 24.6584C26.1568 24.2039 26.438 23.6957 26.6486 23.1578C26.6486 23.1566 26.6498 23.1546 26.6504 23.1533C26.9929 22.9661 27.3181 22.7536 27.6203 22.5083C27.6203 22.5096 27.6197 22.5115 27.6191 22.5128C27.258 23.4122 26.625 24.1696 25.8051 24.6584ZM27.943 21.1924C27.65 21.5327 27.3236 21.8316 26.9694 22.0918C27.0573 21.6553 27.1038 21.2098 27.1038 20.754C27.1038 20.2264 27.0431 19.7138 26.926 19.2159C27.131 19.0758 27.3255 18.9189 27.5144 18.7523C27.5144 18.7536 27.5156 18.7543 27.5163 18.7556C27.8024 19.3619 27.9615 20.0411 27.9615 20.7546C27.9615 20.9038 27.9566 21.0484 27.943 21.193V21.1924ZM27.1459 18.1137C27.0022 18.2455 26.8536 18.3694 26.6994 18.4831C26.4838 17.8929 26.1841 17.3421 25.8007 16.8443C26.3377 17.1607 26.7947 17.5985 27.1459 18.1137ZM21.4599 16.8398C21.0772 17.3389 20.7731 17.8923 20.5544 18.485C20.399 18.3701 20.2497 18.2461 20.1054 18.1137C20.4609 17.594 20.9186 17.1562 21.4599 16.8398ZM19.7351 18.7556C19.7351 18.7556 19.7363 18.7536 19.7369 18.7523C19.9277 18.9202 20.1246 19.079 20.3315 19.2198C20.2138 19.7144 20.1494 20.2284 20.1494 20.7546C20.1494 21.2137 20.2008 21.6624 20.2906 22.0989C19.9333 21.8374 19.6032 21.5365 19.3084 21.193C19.2947 21.0484 19.2898 20.9038 19.2898 20.7546C19.2898 20.0411 19.449 19.3619 19.7351 18.7556ZM28.7821 28.3292H18.4698C18.2109 28.3292 18.001 28.548 18.001 28.8179C18.001 29.0878 18.2109 29.3067 18.4698 29.3067H28.7821C29.041 29.3067 29.251 29.0878 29.251 28.8179C29.251 28.548 29.041 28.3292 28.7821 28.3292ZM28.7821 30.7724H18.4698C18.2109 30.7724 18.001 30.9913 18.001 31.2612C18.001 31.5311 18.2109 31.75 18.4698 31.75H28.7821C29.041 31.75 29.251 31.5311 29.251 31.2612C29.251 30.9913 29.041 30.7724 28.7821 30.7724Z"/>
</mask>
<path d="M22.3975 25.8465C22.4118 25.8517 22.4211 25.8562 22.4353 25.8613C22.7122 25.9298 22.9977 25.9737 23.2788 25.9931C23.2838 25.9982 23.2881 25.9982 23.2931 25.9982C23.3166 26.0034 23.3402 26.0079 23.3637 26.0079C23.4058 26.0079 23.4529 26.0079 23.495 26.0027C23.5371 26.0079 23.5842 26.0079 23.6263 26.0079C23.739 26.0079 23.8511 26.0027 23.9589 25.9931C24.2307 25.9782 24.4933 25.9395 24.7417 25.8755L24.8166 25.8562C26.8697 25.3383 28.3604 23.5691 28.618 21.4332C28.6509 21.2085 28.6651 20.9838 28.6651 20.754C28.6651 19.7376 28.3932 18.7846 27.9009 17.973C27.2258 16.834 26.1339 15.9843 24.8024 15.6466L24.751 15.6369C24.3528 15.5342 23.926 15.4903 23.495 15.5052C23.4529 15.5 23.4058 15.5 23.3637 15.5C23.3358 15.5 23.3073 15.5052 23.2795 15.5149C22.9983 15.5342 22.7122 15.5781 22.4359 15.6466C22.4267 15.6517 22.4124 15.6563 22.4031 15.6614C21.0951 15.9985 20.0175 16.8443 19.3517 17.973C18.8594 18.784 18.5875 19.737 18.5875 20.754C18.5875 20.9838 18.6017 21.2085 18.6345 21.4332C18.8922 23.5588 20.3643 25.3183 22.3988 25.8458L22.3975 25.8465ZM19.6317 22.5135C19.6317 22.5135 19.631 22.5102 19.6304 22.5089C19.9357 22.7562 20.2646 22.9712 20.6108 23.1598C20.8245 23.7002 21.1069 24.2084 21.4593 24.6681C21.4568 24.6662 21.4537 24.6655 21.4506 24.6636C20.63 24.1748 19.9927 23.4174 19.6317 22.5135ZM20.9725 19.5943C21.6859 19.9591 22.4644 20.1722 23.2739 20.2206V23.1779C22.5505 23.1327 21.834 22.9499 21.1595 22.6232C20.9595 22.0331 20.8523 21.4035 20.8523 20.754C20.8523 20.3581 20.8969 19.9707 20.9731 19.5943H20.9725ZM22.9871 16.3019C22.994 16.2968 22.9995 16.2897 23.0063 16.2832C23.0082 16.2832 23.0094 16.2826 23.0113 16.2826C23.1005 16.2677 23.1847 16.258 23.2739 16.2535V19.4878C22.5288 19.4374 21.8117 19.2321 21.1614 18.8782C21.5063 17.8652 22.1312 16.9715 22.9878 16.3026L22.9871 16.3019ZM26.2832 19.5962C26.3631 19.9727 26.4002 20.3588 26.4002 20.7546C26.4002 21.4016 26.2974 22.0344 26.093 22.6232C25.4174 22.9506 24.7008 23.1327 23.9768 23.1785V20.2213C24.7875 20.1728 25.5679 19.9591 26.2819 19.593C26.2819 19.5943 26.2819 19.5956 26.2826 19.5969L26.2832 19.5962ZM23.0076 25.226C23.0008 25.2195 22.9946 25.2124 22.9871 25.2066C22.4143 24.7591 21.9523 24.2077 21.6005 23.5911C22.1436 23.7764 22.7029 23.883 23.2733 23.9152V25.2557C23.1847 25.2512 23.0961 25.2408 23.007 25.2266L23.0076 25.226ZM24.3236 25.1621C24.2109 25.1911 24.0939 25.2111 23.9768 25.2253V23.9139C24.5509 23.8817 25.1139 23.7745 25.6601 23.5866C25.6601 23.5866 25.6601 23.5872 25.6601 23.5879C25.3226 24.1838 24.8724 24.7217 24.3243 25.1614L24.3236 25.1621ZM23.9768 19.4871V16.2819C24.0939 16.2968 24.2109 16.3161 24.3236 16.3452C25.1486 17.0096 25.753 17.8845 26.0906 18.8763C25.4403 19.2308 24.7225 19.4361 23.9768 19.4865V19.4871ZM25.8051 24.6584C26.1568 24.2039 26.438 23.6957 26.6486 23.1578C26.6486 23.1566 26.6498 23.1546 26.6504 23.1533C26.9929 22.9661 27.3181 22.7536 27.6203 22.5083C27.6203 22.5096 27.6197 22.5115 27.6191 22.5128C27.258 23.4122 26.625 24.1696 25.8051 24.6584ZM27.943 21.1924C27.65 21.5327 27.3236 21.8316 26.9694 22.0918C27.0573 21.6553 27.1038 21.2098 27.1038 20.754C27.1038 20.2264 27.0431 19.7138 26.926 19.2159C27.131 19.0758 27.3255 18.9189 27.5144 18.7523C27.5144 18.7536 27.5156 18.7543 27.5163 18.7556C27.8024 19.3619 27.9615 20.0411 27.9615 20.7546C27.9615 20.9038 27.9566 21.0484 27.943 21.193V21.1924ZM27.1459 18.1137C27.0022 18.2455 26.8536 18.3694 26.6994 18.4831C26.4838 17.8929 26.1841 17.3421 25.8007 16.8443C26.3377 17.1607 26.7947 17.5985 27.1459 18.1137ZM21.4599 16.8398C21.0772 17.3389 20.7731 17.8923 20.5544 18.485C20.399 18.3701 20.2497 18.2461 20.1054 18.1137C20.4609 17.594 20.9186 17.1562 21.4599 16.8398ZM19.7351 18.7556C19.7351 18.7556 19.7363 18.7536 19.7369 18.7523C19.9277 18.9202 20.1246 19.079 20.3315 19.2198C20.2138 19.7144 20.1494 20.2284 20.1494 20.7546C20.1494 21.2137 20.2008 21.6624 20.2906 22.0989C19.9333 21.8374 19.6032 21.5365 19.3084 21.193C19.2947 21.0484 19.2898 20.9038 19.2898 20.7546C19.2898 20.0411 19.449 19.3619 19.7351 18.7556ZM28.7821 28.3292H18.4698C18.2109 28.3292 18.001 28.548 18.001 28.8179C18.001 29.0878 18.2109 29.3067 18.4698 29.3067H28.7821C29.041 29.3067 29.251 29.0878 29.251 28.8179C29.251 28.548 29.041 28.3292 28.7821 28.3292ZM28.7821 30.7724H18.4698C18.2109 30.7724 18.001 30.9913 18.001 31.2612C18.001 31.5311 18.2109 31.75 18.4698 31.75H28.7821C29.041 31.75 29.251 31.5311 29.251 31.2612C29.251 30.9913 29.041 30.7724 28.7821 30.7724Z" fill="#E11B22"/>
<path d="M22.3975 25.8465C22.4118 25.8517 22.4211 25.8562 22.4353 25.8613C22.7122 25.9298 22.9977 25.9737 23.2788 25.9931C23.2838 25.9982 23.2881 25.9982 23.2931 25.9982C23.3166 26.0034 23.3402 26.0079 23.3637 26.0079C23.4058 26.0079 23.4529 26.0079 23.495 26.0027C23.5371 26.0079 23.5842 26.0079 23.6263 26.0079C23.739 26.0079 23.8511 26.0027 23.9589 25.9931C24.2307 25.9782 24.4933 25.9395 24.7417 25.8755L24.8166 25.8562C26.8697 25.3383 28.3604 23.5691 28.618 21.4332C28.6509 21.2085 28.6651 20.9838 28.6651 20.754C28.6651 19.7376 28.3932 18.7846 27.9009 17.973C27.2258 16.834 26.1339 15.9843 24.8024 15.6466L24.751 15.6369C24.3528 15.5342 23.926 15.4903 23.495 15.5052C23.4529 15.5 23.4058 15.5 23.3637 15.5C23.3358 15.5 23.3073 15.5052 23.2795 15.5149C22.9983 15.5342 22.7122 15.5781 22.4359 15.6466C22.4267 15.6517 22.4124 15.6563 22.4031 15.6614C21.0951 15.9985 20.0175 16.8443 19.3517 17.973C18.8594 18.784 18.5875 19.737 18.5875 20.754C18.5875 20.9838 18.6017 21.2085 18.6345 21.4332C18.8922 23.5588 20.3643 25.3183 22.3988 25.8458L22.3975 25.8465ZM19.6317 22.5135C19.6317 22.5135 19.631 22.5102 19.6304 22.5089C19.9357 22.7562 20.2646 22.9712 20.6108 23.1598C20.8245 23.7002 21.1069 24.2084 21.4593 24.6681C21.4568 24.6662 21.4537 24.6655 21.4506 24.6636C20.63 24.1748 19.9927 23.4174 19.6317 22.5135ZM20.9725 19.5943C21.6859 19.9591 22.4644 20.1722 23.2739 20.2206V23.1779C22.5505 23.1327 21.834 22.9499 21.1595 22.6232C20.9595 22.0331 20.8523 21.4035 20.8523 20.754C20.8523 20.3581 20.8969 19.9707 20.9731 19.5943H20.9725ZM22.9871 16.3019C22.994 16.2968 22.9995 16.2897 23.0063 16.2832C23.0082 16.2832 23.0094 16.2826 23.0113 16.2826C23.1005 16.2677 23.1847 16.258 23.2739 16.2535V19.4878C22.5288 19.4374 21.8117 19.2321 21.1614 18.8782C21.5063 17.8652 22.1312 16.9715 22.9878 16.3026L22.9871 16.3019ZM26.2832 19.5962C26.3631 19.9727 26.4002 20.3588 26.4002 20.7546C26.4002 21.4016 26.2974 22.0344 26.093 22.6232C25.4174 22.9506 24.7008 23.1327 23.9768 23.1785V20.2213C24.7875 20.1728 25.5679 19.9591 26.2819 19.593C26.2819 19.5943 26.2819 19.5956 26.2826 19.5969L26.2832 19.5962ZM23.0076 25.226C23.0008 25.2195 22.9946 25.2124 22.9871 25.2066C22.4143 24.7591 21.9523 24.2077 21.6005 23.5911C22.1436 23.7764 22.7029 23.883 23.2733 23.9152V25.2557C23.1847 25.2512 23.0961 25.2408 23.007 25.2266L23.0076 25.226ZM24.3236 25.1621C24.2109 25.1911 24.0939 25.2111 23.9768 25.2253V23.9139C24.5509 23.8817 25.1139 23.7745 25.6601 23.5866C25.6601 23.5866 25.6601 23.5872 25.6601 23.5879C25.3226 24.1838 24.8724 24.7217 24.3243 25.1614L24.3236 25.1621ZM23.9768 19.4871V16.2819C24.0939 16.2968 24.2109 16.3161 24.3236 16.3452C25.1486 17.0096 25.753 17.8845 26.0906 18.8763C25.4403 19.2308 24.7225 19.4361 23.9768 19.4865V19.4871ZM25.8051 24.6584C26.1568 24.2039 26.438 23.6957 26.6486 23.1578C26.6486 23.1566 26.6498 23.1546 26.6504 23.1533C26.9929 22.9661 27.3181 22.7536 27.6203 22.5083C27.6203 22.5096 27.6197 22.5115 27.6191 22.5128C27.258 23.4122 26.625 24.1696 25.8051 24.6584ZM27.943 21.1924C27.65 21.5327 27.3236 21.8316 26.9694 22.0918C27.0573 21.6553 27.1038 21.2098 27.1038 20.754C27.1038 20.2264 27.0431 19.7138 26.926 19.2159C27.131 19.0758 27.3255 18.9189 27.5144 18.7523C27.5144 18.7536 27.5156 18.7543 27.5163 18.7556C27.8024 19.3619 27.9615 20.0411 27.9615 20.7546C27.9615 20.9038 27.9566 21.0484 27.943 21.193V21.1924ZM27.1459 18.1137C27.0022 18.2455 26.8536 18.3694 26.6994 18.4831C26.4838 17.8929 26.1841 17.3421 25.8007 16.8443C26.3377 17.1607 26.7947 17.5985 27.1459 18.1137ZM21.4599 16.8398C21.0772 17.3389 20.7731 17.8923 20.5544 18.485C20.399 18.3701 20.2497 18.2461 20.1054 18.1137C20.4609 17.594 20.9186 17.1562 21.4599 16.8398ZM19.7351 18.7556C19.7351 18.7556 19.7363 18.7536 19.7369 18.7523C19.9277 18.9202 20.1246 19.079 20.3315 19.2198C20.2138 19.7144 20.1494 20.2284 20.1494 20.7546C20.1494 21.2137 20.2008 21.6624 20.2906 22.0989C19.9333 21.8374 19.6032 21.5365 19.3084 21.193C19.2947 21.0484 19.2898 20.9038 19.2898 20.7546C19.2898 20.0411 19.449 19.3619 19.7351 18.7556ZM28.7821 28.3292H18.4698C18.2109 28.3292 18.001 28.548 18.001 28.8179C18.001 29.0878 18.2109 29.3067 18.4698 29.3067H28.7821C29.041 29.3067 29.251 29.0878 29.251 28.8179C29.251 28.548 29.041 28.3292 28.7821 28.3292ZM28.7821 30.7724H18.4698C18.2109 30.7724 18.001 30.9913 18.001 31.2612C18.001 31.5311 18.2109 31.75 18.4698 31.75H28.7821C29.041 31.75 29.251 31.5311 29.251 31.2612C29.251 30.9913 29.041 30.7724 28.7821 30.7724Z" stroke="#E11B22" stroke-width="0.2" mask="url(#path-3-outside-1_11446_380)"/>
</svg>
