<svg width="24" height="24" viewBox="0 0 24 24" fill="none" xmlns="http://www.w3.org/2000/svg">
<path d="M4.5 21.75C4.5 22.3467 4.73705 22.919 5.15901 23.341C5.58097 23.7629 6.15326 24 6.75 24H17.25C17.8467 24 18.419 23.7629 18.841 23.341C19.2629 22.919 19.5 22.3467 19.5 21.75V2.25C19.5 1.65326 19.2629 1.08097 18.841 0.65901C18.419 0.237053 17.8467 0 17.25 0L6.75 0C6.15326 0 5.58097 0.237053 5.15901 0.65901C4.73705 1.08097 4.5 1.65326 4.5 2.25V21.75ZM9.78 1.5H14.22V1.875H9.78V1.5ZM6 2.25C6 2.05109 6.07902 1.86032 6.21967 1.71967C6.36032 1.57902 6.55109 1.5 6.75 1.5H8.28V2.625C8.28 2.82391 8.35902 3.01468 8.49967 3.15533C8.64032 3.29598 8.83109 3.375 9.03 3.375H14.97C15.1689 3.375 15.3597 3.29598 15.5003 3.15533C15.641 3.01468 15.72 2.82391 15.72 2.625V1.5H17.25C17.4489 1.5 17.6397 1.57902 17.7803 1.71967C17.921 1.86032 18 2.05109 18 2.25V21.75C18 21.9489 17.921 22.1397 17.7803 22.2803C17.6397 22.421 17.4489 22.5 17.25 22.5H6.75C6.55109 22.5 6.36032 22.421 6.21967 22.2803C6.07902 22.1397 6 21.9489 6 21.75V2.25Z" fill="#212121"/>
<path d="M8.59119 11.1638C8.45046 11.3045 8.3714 11.4954 8.3714 11.6944C8.3714 11.8935 8.45046 12.0843 8.59119 12.2251C8.73192 12.3658 8.92279 12.4448 9.12182 12.4448C9.32084 12.4448 9.51171 12.3658 9.65244 12.2251C10.2759 11.604 11.12 11.2553 11.9999 11.2553C12.8799 11.2553 13.724 11.604 14.3474 12.2251C14.4882 12.3658 14.679 12.4448 14.8781 12.4448C15.0771 12.4448 15.268 12.3658 15.4087 12.2251C15.5494 12.0843 15.6285 11.8935 15.6285 11.6944C15.6285 11.4954 15.5494 11.3045 15.4087 11.1638C14.5039 10.2611 13.278 9.75415 11.9999 9.75415C10.7219 9.75415 9.49597 10.2611 8.59119 11.1638Z" fill="#212121"/>
<path d="M9.91871 13.0613C9.84902 13.131 9.79375 13.2137 9.75604 13.3047C9.71832 13.3958 9.69891 13.4934 9.69891 13.5919C9.69891 13.6905 9.71832 13.788 9.75604 13.8791C9.79375 13.9701 9.84902 14.0529 9.91871 14.1225C10.0594 14.2633 10.2503 14.3423 10.4493 14.3423C10.5479 14.3423 10.6455 14.3229 10.7365 14.2852C10.8275 14.2475 10.9103 14.1922 10.98 14.1225C11.2506 13.8523 11.6175 13.7006 12 13.7006C12.3824 13.7006 12.7493 13.8523 13.02 14.1225C13.1606 14.262 13.3507 14.3402 13.5487 14.34C13.6969 14.3402 13.8418 14.2964 13.9651 14.2142C14.0885 14.132 14.1847 14.0152 14.2417 13.8784C14.2986 13.7415 14.3138 13.5909 14.2852 13.4455C14.2567 13.3001 14.1857 13.1664 14.0812 13.0613C13.5287 12.5103 12.7802 12.2009 12 12.2009C11.2197 12.2009 10.4712 12.5103 9.91871 13.0613Z" fill="#212121"/>
<path d="M8.10754 10.4138C9.14089 9.38332 10.5407 8.80465 12 8.80465C13.4594 8.80465 14.8592 9.38332 15.8925 10.4138C15.9609 10.489 16.0438 10.5495 16.1362 10.5916C16.2287 10.6338 16.3287 10.6567 16.4303 10.659C16.5319 10.6613 16.6329 10.643 16.7271 10.6051C16.8214 10.5672 16.907 10.5106 16.9787 10.4386C17.0504 10.3666 17.1067 10.2808 17.1443 10.1864C17.1819 10.092 17.1998 9.991 17.1972 9.88944C17.1945 9.78788 17.1712 9.68792 17.1287 9.59563C17.0862 9.50334 17.0254 9.42064 16.95 9.35255C15.6361 8.04178 13.856 7.30566 12 7.30566C10.1441 7.30566 8.36395 8.04178 7.05004 9.35255C6.92051 9.49499 6.85072 9.68179 6.85512 9.87426C6.85951 10.0667 6.93776 10.2502 7.07365 10.3865C7.20955 10.5229 7.39268 10.6018 7.58514 10.6069C7.7776 10.612 7.96465 10.5428 8.10754 10.4138Z" fill="#212121"/>
<path d="M12 15.9487C12.4142 15.9487 12.75 15.6129 12.75 15.1987C12.75 14.7845 12.4142 14.4487 12 14.4487C11.5858 14.4487 11.25 14.7845 11.25 15.1987C11.25 15.6129 11.5858 15.9487 12 15.9487Z" fill="#212121"/>
</svg>
