<svg width="54" height="54" viewBox="0 0 54 54" fill="none" xmlns="http://www.w3.org/2000/svg">
<rect width="54" height="54" rx="16" fill="url(#paint0_linear_11220_17395)"/>
<path opacity="0.4" d="M27.0004 40.3334C33.3848 40.3334 38.5604 35.1578 38.5604 28.7734C38.5604 22.389 33.3848 17.2134 27.0004 17.2134C20.616 17.2134 15.4404 22.389 15.4404 28.7734C15.4404 35.1578 20.616 40.3334 27.0004 40.3334Z" fill="url(#paint1_linear_11220_17395)"/>
<path d="M27 29.3334C26.4533 29.3334 26 28.8801 26 28.3334V21.6667C26 21.1201 26.4533 20.6667 27 20.6667C27.5467 20.6667 28 21.1201 28 21.6667V28.3334C28 28.8801 27.5467 29.3334 27 29.3334Z" fill="url(#paint2_linear_11220_17395)"/>
<path d="M30.8532 15.6001H23.1465C22.6132 15.6001 22.1865 15.1734 22.1865 14.6401C22.1865 14.1067 22.6132 13.6667 23.1465 13.6667H30.8532C31.3865 13.6667 31.8132 14.0934 31.8132 14.6267C31.8132 15.1601 31.3865 15.6001 30.8532 15.6001Z" fill="url(#paint3_linear_11220_17395)"/>
<defs>
<linearGradient id="paint0_linear_11220_17395" x1="27" y1="0" x2="27" y2="54" gradientUnits="userSpaceOnUse">
<stop stop-color="#FFF4F4"/>
<stop offset="1" stop-color="#FDEDEE"/>
</linearGradient>
<linearGradient id="paint1_linear_11220_17395" x1="16.5242" y1="19.7024" x2="37.7175" y2="19.7679" gradientUnits="userSpaceOnUse">
<stop stop-color="#E11B22"/>
<stop offset="1" stop-color="#FF343C"/>
</linearGradient>
<linearGradient id="paint2_linear_11220_17395" x1="26.0937" y1="21.5998" x2="27.9271" y2="21.6011" gradientUnits="userSpaceOnUse">
<stop stop-color="#E11B22"/>
<stop offset="1" stop-color="#FF343C"/>
</linearGradient>
<linearGradient id="paint3_linear_11220_17395" x1="22.6378" y1="13.8749" x2="31.4602" y2="14.0107" gradientUnits="userSpaceOnUse">
<stop stop-color="#E11B22"/>
<stop offset="1" stop-color="#FF343C"/>
</linearGradient>
</defs>
</svg>
