<svg width="16" height="16" viewBox="0 0 16 16" fill="none" xmlns="http://www.w3.org/2000/svg">
<path d="M7.99997 15.1666C4.5333 15.1666 1.71997 12.3466 1.71997 8.88659C1.71997 7.63993 2.08664 6.43326 2.77997 5.39326C2.9333 5.16659 3.24664 5.09993 3.4733 5.25326C3.69997 5.4066 3.76664 5.71993 3.6133 5.94659C3.0333 6.81326 2.72664 7.83326 2.72664 8.87993C2.72664 11.7933 5.0933 14.1599 8.00664 14.1599C10.92 14.1599 13.2866 11.7933 13.2866 8.87993C13.2866 5.96659 10.9133 3.59993 7.99997 3.59993C7.38664 3.59993 6.78664 3.68659 6.21997 3.85993C5.9533 3.93993 5.6733 3.79326 5.5933 3.52659C5.5133 3.25993 5.65997 2.97993 5.92664 2.89993C6.5933 2.69993 7.28664 2.59326 7.99997 2.59326C11.4666 2.59326 14.28 5.41326 14.28 8.87326C14.28 12.3333 11.4666 15.1666 7.99997 15.1666Z" fill="white"/>
<path d="M5.24662 4.04658C5.13329 4.04658 5.01329 4.00658 4.91995 3.92658C4.70662 3.73992 4.68662 3.42658 4.86662 3.21992L6.79329 1.00658C6.97329 0.799918 7.29329 0.773251 7.49995 0.959918C7.70662 1.13992 7.72662 1.45992 7.54662 1.66658L5.61995 3.87325C5.51995 3.98658 5.37995 4.04658 5.24662 4.04658Z" fill="white"/>
<path d="M7.49338 5.68659C7.39338 5.68659 7.28672 5.65325 7.20005 5.59325L4.94672 3.94659C4.72672 3.78659 4.68005 3.47325 4.84005 3.25325C5.00005 3.02659 5.31338 2.97992 5.54005 3.13992L7.78672 4.77992C8.00672 4.93992 8.06005 5.25325 7.89338 5.47992C7.80005 5.61992 7.64672 5.68659 7.49338 5.68659Z" fill="white"/>
</svg>
