<svg width="20" height="20" viewBox="0 0 20 20" fill="none" xmlns="http://www.w3.org/2000/svg">
<path d="M10 18.75C14.8325 18.75 18.75 14.8325 18.75 10C18.75 5.16751 14.8325 1.25 10 1.25C5.16751 1.25 1.25 5.16751 1.25 10C1.25 14.8325 5.16751 18.75 10 18.75Z" fill="#F14F55"/>
<path d="M10 16.875C13.797 16.875 16.875 13.797 16.875 10C16.875 6.20304 13.797 3.125 10 3.125C6.20304 3.125 3.125 6.20304 3.125 10C3.125 13.797 6.20304 16.875 10 16.875Z" fill="#E11B22"/>
<path d="M10.263 6.0408L11.3594 8.26239L13.8111 8.61864C14.0517 8.65361 14.1477 8.9492 13.9736 9.11889L12.1996 10.8481L12.6184 13.2899C12.6595 13.5295 12.408 13.7122 12.1929 13.599L10 12.4462L7.80716 13.599C7.59201 13.7122 7.34054 13.5295 7.38163 13.2899L7.80041 10.8481L6.02638 9.11889C5.85232 8.94923 5.94838 8.65361 6.18891 8.61864L8.64057 8.26239L9.73698 6.0408C9.84454 5.82283 10.1555 5.82283 10.263 6.0408Z" fill="white"/>
</svg>
