<svg width="14" height="14" viewBox="0 0 14 14" fill="none" xmlns="http://www.w3.org/2000/svg">
<path d="M7.00033 1.16663C3.78616 1.16663 1.16699 3.78579 1.16699 6.99996C1.16699 10.2141 3.78616 12.8333 7.00033 12.8333C10.2145 12.8333 12.8337 10.2141 12.8337 6.99996C12.8337 3.78579 10.2145 1.16663 7.00033 1.16663ZM8.96033 8.34163C9.12949 8.51079 9.12949 8.79079 8.96033 8.95996C8.87283 9.04746 8.76199 9.08829 8.65116 9.08829C8.54033 9.08829 8.42949 9.04746 8.34199 8.95996L7.00033 7.61829L5.65866 8.95996C5.57116 9.04746 5.46033 9.08829 5.34949 9.08829C5.23866 9.08829 5.12783 9.04746 5.04033 8.95996C4.87116 8.79079 4.87116 8.51079 5.04033 8.34163L6.38199 6.99996L5.04033 5.65829C4.87116 5.48913 4.87116 5.20913 5.04033 5.03996C5.20949 4.87079 5.48949 4.87079 5.65866 5.03996L7.00033 6.38163L8.34199 5.03996C8.51116 4.87079 8.79116 4.87079 8.96033 5.03996C9.12949 5.20913 9.12949 5.48913 8.96033 5.65829L7.61866 6.99996L8.96033 8.34163Z" fill="#E11B22"/>
</svg>
