<svg width="20" height="20" viewBox="0 0 20 20" fill="none" xmlns="http://www.w3.org/2000/svg">
<path d="M9.60563 1.91237C9.64215 1.83859 9.69856 1.77648 9.7685 1.73306C9.83845 1.68964 9.91913 1.66663 10.0015 1.66663C10.0838 1.66663 10.1645 1.68964 10.2344 1.73306C10.3044 1.77648 10.3608 1.83859 10.3973 1.91237L12.3223 5.81154C12.4491 6.06818 12.6363 6.29021 12.8678 6.45858C13.0993 6.62695 13.3682 6.73663 13.6515 6.7782L17.9565 7.4082C18.038 7.42002 18.1147 7.45443 18.1777 7.50754C18.2407 7.56064 18.2877 7.63033 18.3131 7.70871C18.3386 7.78709 18.3417 7.87104 18.3219 7.95107C18.3022 8.03109 18.2605 8.104 18.2015 8.16154L15.0881 11.1932C14.8828 11.3933 14.7292 11.6403 14.6405 11.9129C14.5518 12.1855 14.5307 12.4756 14.579 12.7582L15.314 17.0415C15.3284 17.1231 15.3196 17.207 15.2885 17.2838C15.2575 17.3605 15.2056 17.427 15.1386 17.4757C15.0716 17.5244 14.9923 17.5532 14.9097 17.559C14.8271 17.5647 14.7445 17.5471 14.6715 17.5082L10.8231 15.4849C10.5696 15.3517 10.2874 15.2822 10.001 15.2822C9.71464 15.2822 9.43253 15.3517 9.17896 15.4849L5.33146 17.5082C5.2584 17.5469 5.17596 17.5643 5.0935 17.5584C5.01105 17.5526 4.93189 17.5237 4.86504 17.4751C4.79819 17.4264 4.74632 17.36 4.71534 17.2834C4.68436 17.2068 4.67551 17.123 4.68979 17.0415L5.42396 12.759C5.47246 12.4763 5.45145 12.186 5.36274 11.9132C5.27404 11.6404 5.1203 11.3933 4.91479 11.1932L1.80146 8.16237C1.74195 8.1049 1.69979 8.03187 1.67976 7.9516C1.65974 7.87133 1.66266 7.78705 1.68819 7.70836C1.71373 7.62967 1.76085 7.55974 1.82419 7.50652C1.88753 7.45331 1.96455 7.41895 2.04646 7.40737L6.35063 6.7782C6.63417 6.73695 6.90345 6.62742 7.13528 6.45903C7.36711 6.29063 7.55455 6.06843 7.68146 5.81154L9.60563 1.91237Z" stroke="#464B52" stroke-width="1.25" stroke-linecap="round" stroke-linejoin="round"/>
</svg>
