<svg width="20" height="20" viewBox="0 0 20 20" fill="none" xmlns="http://www.w3.org/2000/svg">
<path opacity="0.4" d="M8.39173 2.35003L2.61674 6.97502C1.96674 7.49169 1.55006 8.58338 1.69172 9.40005L2.80005 16.0334C3.00005 17.2167 4.13339 18.175 5.33339 18.175H14.6667C15.8584 18.175 17.0001 17.2084 17.2001 16.0334L18.3084 9.40005C18.4417 8.58338 18.025 7.49169 17.3834 6.97502L11.6084 2.35837C10.7167 1.64171 9.27506 1.6417 8.39173 2.35003Z" fill="#E11B22"/>
<path d="M8.08105 11.8335C9.21083 10.7475 10.7648 10.7464 11.9043 11.8345V11.8335C11.9893 11.9167 11.9891 12.0447 11.9092 12.1274L11.9014 12.1353L11.8945 12.144C11.8758 12.1657 11.8302 12.1919 11.7676 12.1919C11.7178 12.1919 11.6683 12.1752 11.6182 12.1284H11.6172C11.1474 11.68 10.5853 11.4351 10 11.4351C9.41289 11.4351 8.84641 11.6812 8.37207 12.1313L8.36914 12.1333C8.2861 12.2136 8.15835 12.2133 8.0752 12.1274C7.99518 12.0447 7.9958 11.9167 8.08105 11.8335Z" fill="#E11B22" stroke="#E11B22" stroke-width="0.833333"/>
<path d="M13.5336 10.8415C13.3753 10.8415 13.217 10.7831 13.1003 10.6665C12.7086 10.2831 12.267 9.97484 11.8003 9.74984C10.6336 9.1915 9.35864 9.1915 8.20031 9.74984C7.73364 9.97484 7.30031 10.2831 6.90031 10.6665C6.65864 10.9081 6.25864 10.9081 6.01698 10.6581C5.77531 10.4081 5.78365 10.0165 6.02532 9.77481C6.51699 9.29148 7.06698 8.90814 7.65864 8.6248C9.16698 7.8998 10.8336 7.8998 12.3336 8.6248C12.9253 8.90814 13.4753 9.29148 13.967 9.77481C14.217 10.0165 14.217 10.4081 13.9753 10.6581C13.8586 10.7748 13.7003 10.8415 13.5336 10.8415Z" fill="#E11B22"/>
<path d="M9.99947 14.5833C9.78281 14.5833 9.57448 14.5 9.40781 14.3416C9.08281 14.0166 9.08281 13.4916 9.40781 13.1666C9.73281 12.8416 10.2661 12.8416 10.5911 13.1666C10.9161 13.4916 10.9161 14.0166 10.5911 14.3416C10.4245 14.5 10.2161 14.5833 9.99947 14.5833Z" fill="#E11B22"/>
</svg>
