<svg width="10" height="10" viewBox="0 0 10 10" fill="none" xmlns="http://www.w3.org/2000/svg">
<path d="M3.58077 1.71401C4.21234 0.581426 4.52788 0.0151367 4.99994 0.0151367C5.472 0.0151367 5.78754 0.581426 6.41912 1.71401L6.58262 2.00712C6.76207 2.32915 6.8518 2.49016 6.99137 2.59634C7.13095 2.70252 7.30542 2.7419 7.65435 2.82066L7.97139 2.89245C9.19765 3.17011 9.81028 3.30869 9.95634 3.77777C10.1019 4.24636 9.68417 4.73538 8.84821 5.71293L8.63187 5.96566C8.3946 6.24332 8.27546 6.3824 8.22212 6.55389C8.16879 6.72587 8.18673 6.91131 8.22262 7.28169L8.25552 7.61917C8.38164 8.92373 8.44494 9.57576 8.06311 9.86538C7.68127 10.1555 7.10702 9.89081 5.95952 9.3624L5.66192 9.22581C5.33592 9.07527 5.17291 9.00049 4.99994 9.00049C4.82697 9.00049 4.66396 9.07527 4.33746 9.22581L4.04086 9.3624C2.89286 9.89081 2.31861 10.155 1.93727 9.86588C1.55494 9.57576 1.61825 8.92373 1.74436 7.61917L1.77726 7.28219C1.81315 6.91131 1.8311 6.72587 1.77726 6.55438C1.72442 6.3824 1.60529 6.24332 1.36801 5.96616L1.15167 5.71293C0.315716 4.73588 -0.102011 4.24685 0.0435452 3.77777C0.1896 3.30869 0.802732 3.16961 2.029 2.89245L2.34603 2.82066C2.69447 2.7419 2.86844 2.70252 3.00851 2.59634C3.14808 2.49016 3.23781 2.32915 3.41726 2.00712L3.58077 1.71401Z" fill="#FFE600"/>
</svg>
