<svg width="54" height="54" viewBox="0 0 54 54" fill="none" xmlns="http://www.w3.org/2000/svg">
<rect width="54" height="54" rx="16" fill="url(#paint0_linear_11918_12338)"/>
<path opacity="0.4" d="M14.6937 24.3334C14.1203 24.3334 13.667 23.8801 13.667 23.3067V20.2267C13.667 16.6134 16.6137 13.6667 20.227 13.6667H23.307C23.8803 13.6667 24.3337 14.1201 24.3337 14.6934C24.3337 15.2667 23.8803 15.7201 23.307 15.7201H20.227C17.7337 15.7201 15.7203 17.7467 15.7203 20.2267V23.3067C15.7203 23.8801 15.2537 24.3334 14.6937 24.3334Z" fill="#E11B22"/>
<path opacity="0.4" d="M39.307 24.3334C38.747 24.3334 38.2803 23.8801 38.2803 23.3067V20.2267C38.2803 17.7334 36.2537 15.7201 33.7737 15.7201H30.6937C30.1203 15.7201 29.667 15.2534 29.667 14.6934C29.667 14.1334 30.1203 13.6667 30.6937 13.6667H33.7737C37.387 13.6667 40.3337 16.6134 40.3337 20.2267V23.3067C40.3337 23.8801 39.8803 24.3334 39.307 24.3334Z" fill="#E11B22"/>
<path d="M33.7736 40.3334H31.9202C31.3602 40.3334 30.8936 39.8801 30.8936 39.3067C30.8936 38.7467 31.3469 38.2801 31.9202 38.2801H33.7736C36.2669 38.2801 38.2802 36.2534 38.2802 33.7734V31.9334C38.2802 31.3734 38.7336 30.9067 39.3069 30.9067C39.8669 30.9067 40.3336 31.3601 40.3336 31.9334V33.7734C40.3336 37.3867 37.3869 40.3334 33.7736 40.3334Z" fill="#E11B22"/>
<path d="M23.307 40.3334H20.227C16.6137 40.3334 13.667 37.3867 13.667 33.7734V30.6934C13.667 30.1201 14.1203 29.6667 14.6937 29.6667C15.267 29.6667 15.7203 30.1201 15.7203 30.6934V33.7734C15.7203 36.2667 17.747 38.2801 20.227 38.2801H23.307C23.867 38.2801 24.3337 38.7334 24.3337 39.3067C24.3337 39.8801 23.8803 40.3334 23.307 40.3334Z" fill="#E11B22"/>
<path d="M35.6137 25.9734H33.8004H20.2004H18.387C17.8137 25.9734 17.3604 26.4401 17.3604 27.0001C17.3604 27.5601 17.8137 28.0267 18.387 28.0267H20.2004H33.8004H35.6137C36.187 28.0267 36.6404 27.5601 36.6404 27.0001C36.6404 26.4401 36.187 25.9734 35.6137 25.9734Z" fill="#E11B22"/>
<path d="M20.2002 29.5866V30.0266C20.2002 32.24 21.9869 34.0266 24.2002 34.0266H29.8002C32.0135 34.0266 33.8002 32.24 33.8002 30.0266V29.5866C33.8002 29.4266 33.6802 29.3066 33.5202 29.3066H20.4802C20.3202 29.3066 20.2002 29.4266 20.2002 29.5866Z" fill="#E11B22"/>
<path opacity="0.4" d="M20.2002 24.4134V23.9734C20.2002 21.7601 21.9869 19.9734 24.2002 19.9734H29.8002C32.0135 19.9734 33.8002 21.7601 33.8002 23.9734V24.4134C33.8002 24.5734 33.6802 24.6934 33.5202 24.6934H20.4802C20.3202 24.6934 20.2002 24.5734 20.2002 24.4134Z" fill="#E11B22"/>
<defs>
<linearGradient id="paint0_linear_11918_12338" x1="27" y1="0" x2="27" y2="54" gradientUnits="userSpaceOnUse">
<stop stop-color="#FFF4F4"/>
<stop offset="1" stop-color="#FDEDEE"/>
</linearGradient>
</defs>
</svg>
