<svg width="32" height="32" viewBox="0 0 32 32" fill="none" xmlns="http://www.w3.org/2000/svg">
<path opacity="0.4" d="M25.4667 27.0667C25.2 27.0667 24.9333 26.9334 24.8 26.8001C24.4 26.4001 24.4 25.7334 24.8 25.3334C27.0667 23.0667 28.2667 20.0001 28.2667 16.6667C28.2667 9.86672 22.8 4.40006 16 4.40006C9.2 4.40006 3.73333 9.86672 3.73333 16.6667C3.73333 19.8667 4.93333 22.9334 7.2 25.3334C7.6 25.7334 7.6 26.4001 7.2 26.8001C6.8 27.2001 6.13333 27.2001 5.73333 26.8001C3.06667 24.1334 1.6 20.5334 1.6 16.8001C1.6 8.80006 8.13333 2.26672 16 2.26672C23.8667 2.26672 30.4 8.66672 30.4 16.6667C30.4 20.4001 28.9333 24.0001 26.2667 26.6667C26 26.9334 25.7333 27.0667 25.4667 27.0667Z" fill="url(#paint0_linear_11540_15319)"/>
<path d="M16 29.3334C18.8719 29.3334 21.2 27.0052 21.2 24.1334C21.2 21.2615 18.8719 18.9333 16 18.9333C13.1281 18.9333 10.8 21.2615 10.8 24.1334C10.8 27.0052 13.1281 29.3334 16 29.3334Z" fill="url(#paint1_linear_11540_15319)"/>
<path d="M21.3333 11.3334C19.8667 11.3334 18.6667 12.5334 18.6667 14V15.0667C18.6667 16 19.4667 16.6667 20.2667 16.6667H21.3333C22.8 16.6667 24 15.4667 24 14C24 12.5334 22.8 11.3334 21.3333 11.3334Z" fill="url(#paint2_linear_11540_15319)"/>
<defs>
<linearGradient id="paint0_linear_11540_15319" x1="2.95" y1="4.94017" x2="29.3499" y2="5.03485" gradientUnits="userSpaceOnUse">
<stop stop-color="#E11B22"/>
<stop offset="1" stop-color="#FF343C"/>
</linearGradient>
<linearGradient id="paint1_linear_11540_15319" x1="11.2875" y1="20.053" x2="20.8208" y2="20.0824" gradientUnits="userSpaceOnUse">
<stop stop-color="#E11B22"/>
<stop offset="1" stop-color="#FF343C"/>
</linearGradient>
<linearGradient id="paint2_linear_11540_15319" x1="18.9167" y1="11.9075" x2="23.8056" y2="11.9227" gradientUnits="userSpaceOnUse">
<stop stop-color="#E11B22"/>
<stop offset="1" stop-color="#FF343C"/>
</linearGradient>
</defs>
</svg>
