<svg width="36" height="36" viewBox="0 0 36 36" fill="none" xmlns="http://www.w3.org/2000/svg">
<rect width="36" height="36" rx="18" fill="#E1251B" fill-opacity="0.1"/>
<path opacity="0.4" d="M16.07 8.82009L9.14004 14.3701C8.36004 14.9901 7.86002 16.3001 8.03002 17.2801L9.36001 25.2401C9.60001 26.6601 10.96 27.8101 12.4 27.8101H23.6C25.03 27.8101 26.4 26.6501 26.64 25.2401L27.97 17.2801C28.13 16.3001 27.63 14.9901 26.86 14.3701L19.93 8.8301C18.86 7.9701 17.13 7.97009 16.07 8.82009Z" fill="#E11B22"/>
<path d="M15.6967 20.2002C17.0524 18.8972 18.9174 18.8955 20.2846 20.2012C20.386 20.301 20.3862 20.4537 20.2905 20.5527L20.2807 20.5625L20.2719 20.5723C20.2494 20.5983 20.1948 20.6299 20.1196 20.6299C20.06 20.6298 20.0008 20.6107 19.9409 20.5547H19.9399C19.376 20.0164 18.7011 19.7227 17.9985 19.7227C17.294 19.7227 16.6145 20.0175 16.0453 20.5576L16.0424 20.5605C15.9428 20.6568 15.7897 20.6557 15.6899 20.5527C15.5938 20.4533 15.5941 20.3 15.6967 20.2002Z" fill="#E11B22" stroke="#E11B22"/>
<path d="M22.24 19.01C22.05 19.01 21.86 18.94 21.72 18.8C21.25 18.34 20.72 17.97 20.16 17.7C18.76 17.03 17.23 17.03 15.84 17.7C15.28 17.97 14.76 18.34 14.28 18.8C13.99 19.09 13.51 19.09 13.22 18.79C12.93 18.49 12.94 18.02 13.23 17.73C13.82 17.15 14.48 16.69 15.19 16.35C17 15.48 19 15.48 20.8 16.35C21.51 16.69 22.17 17.15 22.76 17.73C23.06 18.02 23.06 18.49 22.77 18.79C22.63 18.93 22.44 19.01 22.24 19.01Z" fill="#E11B22"/>
<path d="M18 23.5001C17.74 23.5001 17.49 23.4001 17.29 23.2101C16.9 22.8201 16.9 22.1901 17.29 21.8001C17.68 21.4101 18.32 21.4101 18.71 21.8001C19.1 22.1901 19.1 22.8201 18.71 23.2101C18.51 23.4001 18.26 23.5001 18 23.5001Z" fill="#E11B22"/>
</svg>
