<svg width="32" height="32" viewBox="0 0 32 32" fill="none" xmlns="http://www.w3.org/2000/svg">
<path opacity="0.4" d="M21.6673 29.9997C22.956 29.9997 24.0007 28.955 24.0007 27.6663C24.0007 26.3777 22.956 25.333 21.6673 25.333C20.3787 25.333 19.334 26.3777 19.334 27.6663C19.334 28.955 20.3787 29.9997 21.6673 29.9997Z" fill="url(#paint0_linear_13012_20252)"/>
<path d="M10.9993 29.9997C12.288 29.9997 13.3327 28.955 13.3327 27.6663C13.3327 26.3777 12.288 25.333 10.9993 25.333C9.71068 25.333 8.66602 26.3777 8.66602 27.6663C8.66602 28.955 9.71068 29.9997 10.9993 29.9997Z" fill="url(#paint1_linear_13012_20252)"/>
<path opacity="0.4" d="M6.45268 5.25366L6.18601 8.52032C6.13268 9.14699 6.62602 9.66699 7.25269 9.66699H27.666C28.226 9.66699 28.6927 9.24032 28.7327 8.68032C28.906 6.32032 27.106 4.40033 24.746 4.40033H8.38601C8.25267 3.81366 7.98601 3.25365 7.57267 2.78699C6.91934 2.08032 5.98602 1.66699 5.02602 1.66699H2.66602C2.11935 1.66699 1.66602 2.12033 1.66602 2.66699C1.66602 3.21366 2.11935 3.66699 2.66602 3.66699H4.98602C5.39936 3.66699 5.78602 3.84033 6.06602 4.13367C6.34602 4.44033 6.47934 4.84033 6.45268 5.25366Z" fill="url(#paint2_linear_13012_20252)"/>
<path d="M27.3474 11.667H6.89406C6.33406 11.667 5.88072 12.0937 5.82739 12.6403L5.34739 18.4403C5.16072 20.707 6.94739 22.667 9.22739 22.667H24.0541C26.0541 22.667 27.8141 21.027 27.9607 19.027L28.4007 12.8003C28.4541 12.187 27.9741 11.667 27.3474 11.667Z" fill="url(#paint3_linear_13012_20252)"/>
<defs>
<linearGradient id="paint0_linear_13012_20252" x1="19.5527" y1="25.8354" x2="23.8305" y2="25.8486" gradientUnits="userSpaceOnUse">
<stop stop-color="#E11B22"/>
<stop offset="1" stop-color="#FF343C"/>
</linearGradient>
<linearGradient id="paint1_linear_13012_20252" x1="8.88477" y1="25.8354" x2="13.1625" y2="25.8486" gradientUnits="userSpaceOnUse">
<stop stop-color="#E11B22"/>
<stop offset="1" stop-color="#FF343C"/>
</linearGradient>
<linearGradient id="paint2_linear_13012_20252" x1="2.93531" y1="2.52824" x2="27.7545" y2="2.78802" gradientUnits="userSpaceOnUse">
<stop stop-color="#E11B22"/>
<stop offset="1" stop-color="#FF343C"/>
</linearGradient>
<linearGradient id="paint3_linear_13012_20252" x1="6.41543" y1="12.8512" x2="27.5629" y2="12.9884" gradientUnits="userSpaceOnUse">
<stop stop-color="#E11B22"/>
<stop offset="1" stop-color="#FF343C"/>
</linearGradient>
</defs>
</svg>
