<svg width="54" height="54" viewBox="0 0 54 54" fill="none" xmlns="http://www.w3.org/2000/svg">
<rect width="54" height="54" rx="16" fill="url(#paint0_linear_11736_19703)"/>
<path opacity="0.4" d="M40.3327 21.4134V32.5867C40.3327 32.6667 40.3327 32.7467 40.3193 32.8134C40.3193 33.5334 40.2393 34.2001 40.0927 34.8134C39.466 37.6934 37.546 39.5601 34.626 40.1334C33.9993 40.2667 33.3327 40.3334 32.626 40.3334H21.2927C20.586 40.3201 19.9193 40.2534 19.2927 40.1201C16.426 39.5334 14.5327 37.6667 13.906 34.8134C13.7593 34.2001 13.6793 33.5334 13.6793 32.8134C13.666 32.7467 13.666 32.6667 13.666 32.5867V21.4134C13.666 20.7334 13.7193 20.0801 13.8393 19.4801C14.3993 16.4667 16.3327 14.4934 19.2927 13.8801C19.9193 13.7334 20.586 13.6667 21.2927 13.6667H32.6393C33.346 13.6667 34.0127 13.7334 34.626 13.8667C37.6393 14.4534 39.5993 16.4401 40.1593 19.4801C40.2793 20.0801 40.3327 20.7334 40.3327 21.4134Z" fill="url(#paint1_linear_11736_19703)"/>
<path d="M27.9993 21.4801V32.8134H40.3193C40.3193 33.5334 40.2393 34.2001 40.0927 34.8134H34.626V40.1334C33.9993 40.2667 33.3327 40.3334 32.626 40.3334V34.8134H27.9993V40.3334H25.9993V34.8134H21.2927V40.3334C20.586 40.3201 19.9193 40.2534 19.2927 40.1201V34.8134H13.906C13.7593 34.2001 13.6793 33.5334 13.6793 32.8134H25.9993V21.4801H13.666V21.4134C13.666 20.7334 13.7193 20.0801 13.8393 19.4801H19.3193C19.306 19.4267 19.2927 19.3734 19.2927 19.3201V13.8801C19.9193 13.7334 20.586 13.6667 21.2927 13.6667V19.3201C21.2927 19.3734 21.266 19.4267 21.2527 19.4801H25.9993V13.6667H27.9993V19.4801H32.626V13.6667H32.6393C33.346 13.6667 34.0127 13.7334 34.626 13.8667V19.4401C34.626 19.4534 34.6127 19.4667 34.6127 19.4801H40.1593C40.2793 20.0801 40.3327 20.7334 40.3327 21.4134V21.4801H27.9993V21.4801Z" fill="url(#paint2_linear_11736_19703)"/>
<defs>
<linearGradient id="paint0_linear_11736_19703" x1="27" y1="0" x2="27" y2="54" gradientUnits="userSpaceOnUse">
<stop stop-color="#FFF4F4"/>
<stop offset="1" stop-color="#FDEDEE"/>
</linearGradient>
<linearGradient id="paint1_linear_11736_19703" x1="14.916" y1="16.5376" x2="39.3604" y2="16.6132" gradientUnits="userSpaceOnUse">
<stop stop-color="#E11B22"/>
<stop offset="1" stop-color="#FF343C"/>
</linearGradient>
<linearGradient id="paint2_linear_11736_19703" x1="14.916" y1="16.5376" x2="39.3604" y2="16.6132" gradientUnits="userSpaceOnUse">
<stop stop-color="#E11B22"/>
<stop offset="1" stop-color="#FF343C"/>
</linearGradient>
</defs>
</svg>
