<svg width="32" height="32" viewBox="0 0 32 32" fill="none" xmlns="http://www.w3.org/2000/svg">
<path opacity="0.4" d="M16.0004 29.3334C22.3848 29.3334 27.5604 24.1578 27.5604 17.7734C27.5604 11.389 22.3848 6.21338 16.0004 6.21338C9.61602 6.21338 4.44043 11.389 4.44043 17.7734C4.44043 24.1578 9.61602 29.3334 16.0004 29.3334Z" fill="url(#paint0_linear_11366_21364)"/>
<path d="M16 18.3333C15.4533 18.3333 15 17.88 15 17.3333V10.6666C15 10.12 15.4533 9.66663 16 9.66663C16.5467 9.66663 17 10.12 17 10.6666V17.3333C17 17.88 16.5467 18.3333 16 18.3333Z" fill="url(#paint1_linear_11366_21364)"/>
<path d="M19.8532 4.59996H12.1465C11.6132 4.59996 11.1865 4.17329 11.1865 3.63996C11.1865 3.10663 11.6132 2.66663 12.1465 2.66663H19.8532C20.3865 2.66663 20.8132 3.09329 20.8132 3.62663C20.8132 4.15996 20.3865 4.59996 19.8532 4.59996Z" fill="url(#paint2_linear_11366_21364)"/>
<defs>
<linearGradient id="paint0_linear_11366_21364" x1="5.52418" y1="8.70237" x2="26.7175" y2="8.76791" gradientUnits="userSpaceOnUse">
<stop stop-color="#E11B22"/>
<stop offset="1" stop-color="#FF343C"/>
</linearGradient>
<linearGradient id="paint1_linear_11366_21364" x1="15.0937" y1="10.5996" x2="16.9271" y2="10.6009" gradientUnits="userSpaceOnUse">
<stop stop-color="#E11B22"/>
<stop offset="1" stop-color="#FF343C"/>
</linearGradient>
<linearGradient id="paint2_linear_11366_21364" x1="11.6378" y1="2.87476" x2="20.4602" y2="3.01061" gradientUnits="userSpaceOnUse">
<stop stop-color="#E11B22"/>
<stop offset="1" stop-color="#FF343C"/>
</linearGradient>
</defs>
</svg>
