<svg width="32" height="32" viewBox="0 0 32 32" fill="none" xmlns="http://www.w3.org/2000/svg">
<path opacity="0.4" d="M29.3337 12V20C29.3337 24.6667 26.667 26.6667 22.667 26.6667H11.267C11.7337 25.88 12.0003 24.9734 12.0003 24C12.0003 21.0534 9.61366 18.6667 6.66699 18.6667C5.06699 18.6667 3.64033 19.3734 2.66699 20.48V12C2.66699 7.33337 5.33366 5.33337 9.33366 5.33337H22.667C26.667 5.33337 29.3337 7.33337 29.3337 12Z" fill="url(#paint0_linear_11832_9607)"/>
<path d="M16.0003 19.3333C17.8413 19.3333 19.3337 17.8409 19.3337 16C19.3337 14.159 17.8413 12.6666 16.0003 12.6666C14.1594 12.6666 12.667 14.159 12.667 16C12.667 17.8409 14.1594 19.3333 16.0003 19.3333Z" fill="url(#paint1_linear_11832_9607)"/>
<path d="M24.667 19.6667C24.1203 19.6667 23.667 19.2134 23.667 18.6667V13.3334C23.667 12.7867 24.1203 12.3334 24.667 12.3334C25.2137 12.3334 25.667 12.7867 25.667 13.3334V18.6667C25.667 19.2134 25.2137 19.6667 24.667 19.6667Z" fill="url(#paint2_linear_11832_9607)"/>
<path d="M6.66634 18.6666C3.71967 18.6666 1.33301 21.0533 1.33301 24C1.33301 25 1.61299 25.9466 2.10632 26.7466C3.02632 28.2933 4.71967 29.3333 6.66634 29.3333C8.61301 29.3333 10.3064 28.2933 11.2264 26.7466C11.7197 25.9466 11.9997 25 11.9997 24C11.9997 21.0533 9.61301 18.6666 6.66634 18.6666ZM8.653 24.9733H7.66634V26.0133C7.66634 26.56 7.21301 27.0133 6.66634 27.0133C6.11967 27.0133 5.66634 26.56 5.66634 26.0133V24.9733H4.67969C4.13302 24.9733 3.67969 24.5199 3.67969 23.9733C3.67969 23.4266 4.13302 22.9733 4.67969 22.9733H5.66634V22.0267C5.66634 21.48 6.11967 21.0267 6.66634 21.0267C7.21301 21.0267 7.66634 21.48 7.66634 22.0267V22.9733H8.653C9.19966 22.9733 9.653 23.4266 9.653 23.9733C9.653 24.5199 9.213 24.9733 8.653 24.9733Z" fill="url(#paint3_linear_11832_9607)"/>
<defs>
<linearGradient id="paint0_linear_11832_9607" x1="3.91699" y1="7.63002" x2="28.3613" y2="7.72452" gradientUnits="userSpaceOnUse">
<stop stop-color="#E11B22"/>
<stop offset="1" stop-color="#FF343C"/>
</linearGradient>
<linearGradient id="paint1_linear_11832_9607" x1="12.9795" y1="13.3843" x2="19.0906" y2="13.4032" gradientUnits="userSpaceOnUse">
<stop stop-color="#E11B22"/>
<stop offset="1" stop-color="#FF343C"/>
</linearGradient>
<linearGradient id="paint2_linear_11832_9607" x1="23.7607" y1="13.1228" x2="25.5941" y2="13.1244" gradientUnits="userSpaceOnUse">
<stop stop-color="#E11B22"/>
<stop offset="1" stop-color="#FF343C"/>
</linearGradient>
<linearGradient id="paint3_linear_11832_9607" x1="1.83301" y1="19.815" x2="11.6108" y2="19.8452" gradientUnits="userSpaceOnUse">
<stop stop-color="#E11B22"/>
<stop offset="1" stop-color="#FF343C"/>
</linearGradient>
</defs>
</svg>
