<svg width="44" height="44" viewBox="0 0 44 44" fill="none" xmlns="http://www.w3.org/2000/svg">
<rect width="44" height="44" rx="22" fill="white" fill-opacity="0.32"/>
<g opacity="0.9">
<path d="M11.6971 23.8657H12.8009C13.0039 23.8652 13.1683 23.7007 13.1688 23.4978V20.1862H14.5009L16.3774 23.6708C16.4403 23.7914 16.5653 23.8666 16.7013 23.8657H18.0737C18.2028 23.8653 18.3222 23.7974 18.3884 23.6867C18.4547 23.576 18.4581 23.4387 18.3976 23.3248L16.5982 19.9838C16.9396 19.8438 17.2497 19.6373 17.5108 19.3766C18.0776 18.8124 18.3704 18.0291 18.3129 17.2314C18.1768 15.7621 16.933 14.645 15.4576 14.6668H11.6971C11.494 14.6675 11.3298 14.8318 11.3291 15.0348V23.4978C11.3298 23.7007 11.494 23.8652 11.6971 23.8657ZM13.1688 16.1386H15.1927C15.9036 16.1394 16.4797 16.7156 16.4805 17.4265C16.4771 18.1364 15.9025 18.711 15.1927 18.7143H13.1688V16.1386Z" fill="white"/>
<path d="M17.9526 26.0735V29.385H20.5283V26.0735C20.5283 25.8703 20.3636 25.7056 20.1604 25.7056H18.3205C18.1173 25.7056 17.9526 25.8703 17.9526 26.0735Z" fill="white"/>
<path d="M22.368 22.0261C22.1648 22.0261 22 22.1909 22 22.3941V29.3852H24.5757V22.3941C24.5757 22.1909 24.4109 22.0261 24.2077 22.0261H22.368Z" fill="white"/>
<path d="M28.6232 18.7143C28.6232 18.511 28.4584 18.3464 28.2552 18.3464H26.4153C26.2121 18.3464 26.0474 18.511 26.0474 18.7143V29.385H28.6232V18.7143Z" fill="white"/>
<path d="M32.6709 15.035C32.6709 14.8318 32.5061 14.667 32.3029 14.667H30.4632C30.26 14.667 30.0952 14.8318 30.0952 15.035V29.3852H32.6709V15.035Z" fill="white"/>
</g>
</svg>
