<svg width="44" height="44" viewBox="0 0 44 44" fill="none" xmlns="http://www.w3.org/2000/svg">
<rect width="44" height="44" rx="22" fill="#F1F2F3"/>
<path d="M31.9999 22.86C31.9999 25.15 30.8199 27.18 28.9999 28.46L27.6599 31.41C27.3499 32.08 26.4499 32.21 25.9799 31.64L24.4999 29.86C22.6399 29.86 20.9299 29.23 19.6299 28.18L20.2299 27.47C24.8499 27.12 28.4999 23.46 28.4999 19C28.4999 18.24 28.3899 17.49 28.1899 16.77C30.4599 17.97 31.9999 20.25 31.9999 22.86Z" fill="#464B52"/>
<path d="M26.3 16.07C25.13 13.67 22.52 12 19.5 12C15.36 12 12 15.13 12 19C12 21.29 13.18 23.32 15 24.6L16.34 27.55C16.65 28.22 17.55 28.34 18.02 27.78L18.57 27.12L19.5 26C23.64 26 27 22.87 27 19C27 17.95 26.75 16.96 26.3 16.07ZM22 19.75H17C16.59 19.75 16.25 19.41 16.25 19C16.25 18.59 16.59 18.25 17 18.25H22C22.41 18.25 22.75 18.59 22.75 19C22.75 19.41 22.41 19.75 22 19.75Z" fill="#464B52"/>
</svg>
