<svg width="44" height="44" viewBox="0 0 44 44" fill="none" xmlns="http://www.w3.org/2000/svg">
<rect width="44" height="44" rx="22" fill="white" fill-opacity="0.32"/>
<path d="M22 12C17.5817 12 14 14.4873 14 17.5556C14 18.3457 14.2375 19.0973 14.6657 19.7778C15.2223 20.6625 16.1012 21.4271 17.1992 22C18.5364 22.6977 20.1987 23.1111 22 23.1111C23.8013 23.1111 25.4636 22.6977 26.8008 22C27.8988 21.4271 28.7777 20.6625 29.3343 19.7778C29.7625 19.0973 30 18.3457 30 17.5556C30 14.4873 26.4183 12 22 12Z" fill="white"/>
<path d="M14 25.4167V26.4455C14 27.2356 14.2375 27.9872 14.6657 28.6677C15.2223 29.5525 16.1012 30.317 17.1992 30.8899C18.5364 31.5876 20.1987 32.0011 22 32.0011C23.8013 32.0011 25.4636 31.5876 26.8008 30.8899C27.8988 30.317 28.7777 29.5525 29.3343 28.6677C29.7625 27.9872 30 27.2356 30 26.4455V25.4169C29.3239 26.2904 28.4076 27.0151 27.3559 27.5638C25.8347 28.3575 23.9799 28.811 22 28.811C20.0202 28.811 18.1654 28.3575 16.6442 27.5638C15.5924 27.0151 14.6762 26.2904 14 25.4167Z" fill="white"/>
<path d="M14 20.9167V22.0555C14 22.8456 14.2375 23.5972 14.6657 24.2777C15.2223 25.1624 16.1012 25.927 17.1992 26.4999C18.5364 27.1976 20.1987 27.611 22 27.611C23.8013 27.611 25.4636 27.1976 26.8008 26.4999C27.8988 25.927 28.7777 25.1624 29.3343 24.2777C29.7625 23.5972 30 22.8456 30 22.0555V20.9169C29.3239 21.7904 28.4076 22.5151 27.3559 23.0638C25.8347 23.8575 23.9799 24.311 22 24.311C20.0202 24.311 18.1654 23.8575 16.6442 23.0638C15.5924 22.5151 14.6762 21.7904 14 20.9167Z" fill="white"/>
</svg>
