<svg width="54" height="54" viewBox="0 0 54 54" fill="none" xmlns="http://www.w3.org/2000/svg">
<rect width="54" height="54" rx="16" fill="url(#paint0_linear_11736_5654)"/>
<path opacity="0.4" d="M40.3327 22.9999V30.9999C40.3327 35.6666 37.666 37.6666 33.666 37.6666H22.266C22.7327 36.8799 22.9993 35.9733 22.9993 34.9999C22.9993 32.0533 20.6127 29.6666 17.666 29.6666C16.066 29.6666 14.6393 30.3732 13.666 31.4799V22.9999C13.666 18.3333 16.3327 16.3333 20.3327 16.3333H33.666C37.666 16.3333 40.3327 18.3333 40.3327 22.9999Z" fill="url(#paint1_linear_11736_5654)"/>
<path d="M26.9993 30.3334C28.8403 30.3334 30.3327 28.841 30.3327 27.0001C30.3327 25.1591 28.8403 23.6667 26.9993 23.6667C25.1584 23.6667 23.666 25.1591 23.666 27.0001C23.666 28.841 25.1584 30.3334 26.9993 30.3334Z" fill="url(#paint2_linear_11736_5654)"/>
<path d="M35.666 30.6666C35.1193 30.6666 34.666 30.2133 34.666 29.6666V24.3333C34.666 23.7866 35.1193 23.3333 35.666 23.3333C36.2127 23.3333 36.666 23.7866 36.666 24.3333V29.6666C36.666 30.2133 36.2127 30.6666 35.666 30.6666Z" fill="url(#paint3_linear_11736_5654)"/>
<path d="M17.6673 29.6667C14.7207 29.6667 12.334 32.0534 12.334 35.0001C12.334 36.0001 12.614 36.9467 13.1073 37.7467C14.0273 39.2934 15.7207 40.3334 17.6673 40.3334C19.614 40.3334 21.3073 39.2934 22.2273 37.7467C22.7207 36.9467 23.0007 36.0001 23.0007 35.0001C23.0007 32.0534 20.614 29.6667 17.6673 29.6667ZM19.654 35.9734H18.6673V37.0134C18.6673 37.5601 18.214 38.0134 17.6673 38.0134C17.1207 38.0134 16.6673 37.5601 16.6673 37.0134V35.9734H15.6807C15.134 35.9734 14.6807 35.5201 14.6807 34.9734C14.6807 34.4267 15.134 33.9734 15.6807 33.9734H16.6673V33.0268C16.6673 32.4801 17.1207 32.0268 17.6673 32.0268C18.214 32.0268 18.6673 32.4801 18.6673 33.0268V33.9734H19.654C20.2006 33.9734 20.654 34.4267 20.654 34.9734C20.654 35.5201 20.214 35.9734 19.654 35.9734Z" fill="url(#paint4_linear_11736_5654)"/>
<defs>
<linearGradient id="paint0_linear_11736_5654" x1="27" y1="0" x2="27" y2="54" gradientUnits="userSpaceOnUse">
<stop stop-color="#FFF4F4"/>
<stop offset="1" stop-color="#FDEDEE"/>
</linearGradient>
<linearGradient id="paint1_linear_11736_5654" x1="14.916" y1="18.6299" x2="39.3603" y2="18.7244" gradientUnits="userSpaceOnUse">
<stop stop-color="#E11B22"/>
<stop offset="1" stop-color="#FF343C"/>
</linearGradient>
<linearGradient id="paint2_linear_11736_5654" x1="23.9785" y1="24.3845" x2="30.0896" y2="24.4033" gradientUnits="userSpaceOnUse">
<stop stop-color="#E11B22"/>
<stop offset="1" stop-color="#FF343C"/>
</linearGradient>
<linearGradient id="paint3_linear_11736_5654" x1="34.7598" y1="24.1227" x2="36.5931" y2="24.1243" gradientUnits="userSpaceOnUse">
<stop stop-color="#E11B22"/>
<stop offset="1" stop-color="#FF343C"/>
</linearGradient>
<linearGradient id="paint4_linear_11736_5654" x1="12.834" y1="30.8151" x2="22.6117" y2="30.8453" gradientUnits="userSpaceOnUse">
<stop stop-color="#E11B22"/>
<stop offset="1" stop-color="#FF343C"/>
</linearGradient>
</defs>
</svg>
