<svg width="20" height="20" viewBox="0 0 20 20" fill="none" xmlns="http://www.w3.org/2000/svg">
<path d="M18.4 19.8L12.85 14.25C11.3667 15.45 9.75417 16.3917 8.0125 17.075C6.27083 17.7583 4.48333 18.1 2.65 18.1C2.25 18.1 1.975 18 1.825 17.8C1.675 17.6 1.6 17.35 1.6 17.05V13C1.6 12.7667 1.675 12.5625 1.825 12.3875C1.975 12.2125 2.16667 12.1 2.4 12.05L5.85 11.35C6.03333 11.3167 6.2625 11.3417 6.5375 11.425C6.8125 11.5083 7.01667 11.6167 7.15 11.75L9.5 14.1C9.8 13.9167 10.125 13.7083 10.475 13.475C10.825 13.2417 11.1333 13.0167 11.4 12.8L0 1.4L1.4 0L19.8 18.4L18.4 19.8ZM7.6 15L5.95 13.35L3.6 13.85V16.05C4.28333 16 4.95833 15.8833 5.625 15.7C6.29167 15.5167 6.95 15.2833 7.6 15ZM15.65 11.4L14.25 10C14.5 9.71667 14.7542 9.39167 15.0125 9.025C15.2708 8.65833 15.475 8.31667 15.625 8L13.2 5.55C13.0667 5.41667 12.975 5.22917 12.925 4.9875C12.875 4.74583 12.8667 4.55 12.9 4.4L13.55 0.9C13.6 0.666667 13.7125 0.475 13.8875 0.325C14.0625 0.175 14.2667 0.1 14.5 0.1H18.55C18.85 0.1 19.1 0.2 19.3 0.4C19.5 0.6 19.6 0.85 19.6 1.15C19.6 2.98333 19.25 4.77083 18.55 6.5125C17.85 8.25417 16.8833 9.88333 15.65 11.4ZM16.55 6.1C16.8333 5.45 17.05 4.79167 17.2 4.125C17.35 3.45833 17.4667 2.78333 17.55 2.1H15.35L14.9 4.45L16.55 6.1Z" fill="#00357F"/>
</svg>
