<svg width="32" height="32" viewBox="0 0 32 32" fill="none" xmlns="http://www.w3.org/2000/svg">
<path opacity="0.4" d="M17.3333 4.33337H9.33333C4.77333 4.33337 3 6.10671 3 10.6667V21.3334C3 24.4 4.66667 27.6667 9.33333 27.6667H17.3333C21.8933 27.6667 23.6667 25.8934 23.6667 21.3334V10.6667C23.6667 6.10671 21.8933 4.33337 17.3333 4.33337Z" fill="url(#paint0_linear_13012_16650)"/>
<path d="M15.3338 15.1734C16.7182 15.1734 17.8405 14.0511 17.8405 12.6667C17.8405 11.2823 16.7182 10.16 15.3338 10.16C13.9494 10.16 12.8271 11.2823 12.8271 12.6667C12.8271 14.0511 13.9494 15.1734 15.3338 15.1734Z" fill="url(#paint1_linear_13012_16650)"/>
<path d="M28.8663 8.22661C28.3196 7.94661 27.173 7.62661 25.613 8.71994L23.6396 10.1066C23.653 10.2933 23.6663 10.4666 23.6663 10.6666V21.3333C23.6663 21.5333 23.6396 21.7066 23.6396 21.8933L25.613 23.2799C26.4396 23.8666 27.1596 24.0533 27.733 24.0533C28.2263 24.0533 28.613 23.9199 28.8663 23.7866C29.413 23.5066 30.333 22.7466 30.333 20.8399V11.1733C30.333 9.26661 29.413 8.50661 28.8663 8.22661Z" fill="url(#paint2_linear_13012_16650)"/>
<defs>
<linearGradient id="paint0_linear_13012_16650" x1="3.96875" y1="6.84534" x2="22.9132" y2="6.89723" gradientUnits="userSpaceOnUse">
<stop stop-color="#E11B22"/>
<stop offset="1" stop-color="#FF343C"/>
</linearGradient>
<linearGradient id="paint1_linear_13012_16650" x1="13.0621" y1="10.6997" x2="17.6577" y2="10.714" gradientUnits="userSpaceOnUse">
<stop stop-color="#E11B22"/>
<stop offset="1" stop-color="#FF343C"/>
</linearGradient>
<linearGradient id="paint2_linear_13012_16650" x1="23.9534" y1="9.68912" x2="30.089" y2="9.69701" gradientUnits="userSpaceOnUse">
<stop stop-color="#E11B22"/>
<stop offset="1" stop-color="#FF343C"/>
</linearGradient>
</defs>
</svg>
