<svg width="32" height="32" viewBox="0 0 32 32" fill="none" xmlns="http://www.w3.org/2000/svg">
<path opacity="0.4" d="M29.3333 10.4133V21.5866C29.3333 21.6666 29.3333 21.7466 29.32 21.8133C29.32 22.5333 29.24 23.2 29.0933 23.8133C28.4667 26.6933 26.5467 28.56 23.6267 29.1333C23 29.2666 22.3333 29.3333 21.6267 29.3333H10.2933C9.58667 29.32 8.92 29.2533 8.29333 29.12C5.42667 28.5333 3.53333 26.6666 2.90667 23.8133C2.76 23.2 2.68 22.5333 2.68 21.8133C2.66667 21.7466 2.66667 21.6666 2.66667 21.5866V10.4133C2.66667 9.73329 2.72 9.07996 2.84 8.47996C3.4 5.46663 5.33333 3.49329 8.29333 2.87996C8.92 2.73329 9.58667 2.66663 10.2933 2.66663H21.64C22.3467 2.66663 23.0133 2.73329 23.6267 2.86663C26.64 3.45329 28.6 5.43996 29.16 8.47996C29.28 9.07996 29.3333 9.73329 29.3333 10.4133Z" fill="url(#paint0_linear_11540_943)"/>
<path opacity="0.4" d="M17 10.48V21.8133H29.32C29.32 22.5333 29.24 23.2 29.0933 23.8133H23.6267V29.1333C23 29.2666 22.3333 29.3333 21.6267 29.3333V23.8133H17V29.3333H15V23.8133H10.2933V29.3333C9.58667 29.32 8.92 29.2533 8.29333 29.12V23.8133H2.90667C2.76 23.2 2.68 22.5333 2.68 21.8133H15V10.48H2.66667V10.4133C2.66667 9.73329 2.72 9.07996 2.84 8.47996H8.32C8.30667 8.42663 8.29333 8.37329 8.29333 8.31996V2.87996C8.92 2.73329 9.58667 2.66663 10.2933 2.66663V8.31996C10.2933 8.37329 10.2667 8.42663 10.2533 8.47996H15V2.66663H17V8.47996H21.6267V2.66663H21.64C22.3467 2.66663 23.0133 2.73329 23.6267 2.86663V8.43996C23.6267 8.45329 23.6133 8.46663 23.6133 8.47996H29.16C29.28 9.07996 29.3333 9.73329 29.3333 10.4133V10.48H17V10.48Z" fill="url(#paint1_linear_11540_943)"/>
<defs>
<linearGradient id="paint0_linear_11540_943" x1="3.91667" y1="5.53744" x2="28.3611" y2="5.61303" gradientUnits="userSpaceOnUse">
<stop stop-color="#E11B22"/>
<stop offset="1" stop-color="#FF343C"/>
</linearGradient>
<linearGradient id="paint1_linear_11540_943" x1="3.91667" y1="5.53744" x2="28.3611" y2="5.61303" gradientUnits="userSpaceOnUse">
<stop stop-color="#E11B22"/>
<stop offset="1" stop-color="#FF343C"/>
</linearGradient>
</defs>
</svg>
