<svg width="14" height="14" viewBox="0 0 14 14" fill="none" xmlns="http://www.w3.org/2000/svg">
<path d="M12.577 6.26495L11.7837 5.34329C11.632 5.16829 11.5095 4.84162 11.5095 4.60829V3.61662C11.5095 2.99829 11.002 2.49079 10.3837 2.49079H9.39201C9.16451 2.49079 8.832 2.36829 8.657 2.21662L7.73534 1.42329C7.33284 1.07912 6.67367 1.07912 6.26534 1.42329L5.34951 2.22245C5.17451 2.36829 4.842 2.49079 4.6145 2.49079H3.60534C2.98701 2.49079 2.47951 2.99829 2.47951 3.61662V4.61412C2.47951 4.84162 2.35701 5.16829 2.21117 5.34329L1.42367 6.27079C1.08534 6.67329 1.08534 7.32662 1.42367 7.72912L2.21117 8.65662C2.35701 8.83162 2.47951 9.15829 2.47951 9.38579V10.3833C2.47951 11.0016 2.98701 11.5091 3.60534 11.5091H4.6145C4.842 11.5091 5.17451 11.6316 5.34951 11.7833L6.27117 12.5766C6.67367 12.9208 7.33284 12.9208 7.74117 12.5766L8.66284 11.7833C8.83784 11.6316 9.16451 11.5091 9.39784 11.5091H10.3895C11.0078 11.5091 11.5153 11.0016 11.5153 10.3833V9.39162C11.5153 9.16412 11.6378 8.83162 11.7895 8.65662L12.5828 7.73495C12.9212 7.33245 12.9212 6.66745 12.577 6.26495ZM9.427 5.89745L6.6095 8.71495C6.52784 8.79662 6.41701 8.84329 6.30034 8.84329C6.18367 8.84329 6.07284 8.79662 5.99117 8.71495L4.5795 7.30329C4.41034 7.13412 4.41034 6.85412 4.5795 6.68495C4.74867 6.51579 5.02867 6.51579 5.19784 6.68495L6.30034 7.78745L8.80867 5.27912C8.97784 5.10995 9.25784 5.10995 9.427 5.27912C9.59617 5.44829 9.59617 5.72829 9.427 5.89745Z" fill="#43B679"/>
</svg>
