<svg width="32" height="32" viewBox="0 0 32 32" fill="none" xmlns="http://www.w3.org/2000/svg">
<path opacity="0.4" d="M21.587 2.66663H10.427C5.56032 2.66663 2.66699 5.55996 2.66699 10.4133V21.5733C2.66699 26.4266 5.56032 29.32 10.4137 29.32H21.5737C26.427 29.32 29.3203 26.4266 29.3203 21.5733V10.4133C29.3337 5.55996 26.4403 2.66663 21.587 2.66663Z" fill="url(#paint0_linear_13012_4767)"/>
<path d="M23.9997 14.28C23.7864 14.28 23.573 14.2134 23.3864 14.0667C18.893 10.6 13.093 10.6 8.61304 14.0667C8.17304 14.4 7.54638 14.32 7.21305 13.8934C6.87972 13.4534 6.95971 12.8267 7.38638 12.4934C12.613 8.45338 19.373 8.45338 24.613 12.4934C25.053 12.8267 25.133 13.4534 24.7864 13.8934C24.5997 14.1467 24.293 14.28 23.9997 14.28Z" fill="url(#paint1_linear_13012_4767)"/>
<path d="M21.8665 18.4C21.6532 18.4 21.4398 18.3334 21.2532 18.1867C18.0532 15.72 13.9332 15.72 10.7332 18.1867C10.2932 18.52 9.6665 18.44 9.33317 18.0134C8.99983 17.5867 9.07983 16.9467 9.5065 16.6134C13.4398 13.5734 18.5332 13.5734 22.4665 16.6134C22.9065 16.9467 22.9865 17.5734 22.6398 18.0134C22.4665 18.2667 22.1732 18.4 21.8665 18.4Z" fill="url(#paint2_linear_13012_4767)"/>
<path d="M18.9334 22.5201C18.7201 22.5201 18.5068 22.4534 18.3201 22.3068C16.9068 21.2134 15.0801 21.2134 13.6668 22.3068C13.2268 22.6401 12.6001 22.5601 12.2668 22.1334C11.9334 21.6934 12.0134 21.0668 12.4401 20.7334C14.5601 19.0934 17.4134 19.0934 19.5334 20.7334C19.9734 21.0668 20.0534 21.6934 19.7068 22.1334C19.5334 22.3868 19.2401 22.5201 18.9334 22.5201Z" fill="url(#paint3_linear_13012_4767)"/>
<defs>
<linearGradient id="paint0_linear_13012_4767" x1="3.91637" y1="5.536" x2="28.3486" y2="5.61156" gradientUnits="userSpaceOnUse">
<stop stop-color="#E11B22"/>
<stop offset="1" stop-color="#FF343C"/>
</linearGradient>
<linearGradient id="paint1_linear_13012_4767" x1="7.85037" y1="9.98192" x2="24.3442" y2="10.1725" gradientUnits="userSpaceOnUse">
<stop stop-color="#E11B22"/>
<stop offset="1" stop-color="#FF343C"/>
</linearGradient>
<linearGradient id="paint2_linear_13012_4767" x1="9.77049" y1="14.7712" x2="22.354" y2="14.9025" gradientUnits="userSpaceOnUse">
<stop stop-color="#E11B22"/>
<stop offset="1" stop-color="#FF343C"/>
</linearGradient>
<linearGradient id="paint3_linear_13012_4767" x1="12.4291" y1="19.8282" x2="19.6357" y2="19.8863" gradientUnits="userSpaceOnUse">
<stop stop-color="#E11B22"/>
<stop offset="1" stop-color="#FF343C"/>
</linearGradient>
</defs>
</svg>
