<svg width="24" height="24" viewBox="0 0 24 24" fill="none" xmlns="http://www.w3.org/2000/svg">
<g clip-path="url(#clip0_11221_17731)">
<path d="M21.8906 13.3828H20.0976L23.8963 4.51913C24.0493 4.16223 23.8839 3.74884 23.527 3.59588C23.1701 3.44293 22.7567 3.60826 22.6037 3.96516L18.5676 13.3828H5.43239L1.39627 3.96516C1.24331 3.60826 0.830016 3.44284 0.473016 3.59588C0.116109 3.74884 -0.0492187 4.16218 0.103734 4.51913L3.90244 13.3828H2.10938C0.946266 13.3828 0 14.329 0 15.4921V19.7109C0 20.874 0.946266 21.8203 2.10938 21.8203H2.85938V22.5703C2.85938 22.9586 3.17419 23.2734 3.5625 23.2734C3.95081 23.2734 4.26562 22.9586 4.26562 22.5703V21.8203H19.7344V22.5703C19.7344 22.9586 20.0492 23.2734 20.4375 23.2734C20.8258 23.2734 21.1406 22.9586 21.1406 22.5703V21.8203H21.8906C23.0537 21.8203 24 20.874 24 19.7109V15.4921C24 14.329 23.0537 13.3828 21.8906 13.3828ZM22.5938 19.7109C22.5938 20.0986 22.2783 20.414 21.8906 20.414H2.10938C1.72167 20.414 1.40625 20.0986 1.40625 19.7109V15.4921C1.40625 15.1044 1.72167 14.789 2.10938 14.789H21.8906C22.2783 14.789 22.5938 15.1044 22.5938 15.4921V19.7109Z" fill="#E11B22"/>
<path d="M10.5113 9.78267C10.2367 10.0573 10.2367 10.5024 10.5113 10.777C10.7859 11.0516 11.2311 11.0516 11.5057 10.777C11.5829 10.6998 11.7498 10.5703 12 10.5703C12.2502 10.5703 12.4171 10.6998 12.4944 10.777C12.7689 11.0516 13.2141 11.0517 13.4887 10.777C13.7633 10.5024 13.7633 10.0573 13.4887 9.78267C13.2577 9.55167 12.757 9.16406 12 9.16406C11.243 9.16406 10.7424 9.55167 10.5113 9.78267Z" fill="#E11B22"/>
<path d="M5.53613 4.81336C7.26347 3.0848 9.55903 2.13281 12 2.13281C14.441 2.13281 16.7365 3.0848 18.4639 4.81336C18.7382 5.08795 19.1834 5.08833 19.4582 4.81373C19.7329 4.53928 19.7331 4.09406 19.4586 3.81937C17.4657 1.82494 14.8168 0.726562 12 0.726562C9.18319 0.726562 6.53438 1.82494 4.54144 3.81933C4.26694 4.09402 4.26708 4.53919 4.54181 4.81369C4.81645 5.08819 5.26172 5.088 5.53613 4.81336Z" fill="#E11B22"/>
<path d="M17.4682 6.80161C17.7429 6.5272 17.7432 6.08198 17.4688 5.80725C16.0076 4.34461 14.0655 3.53906 12 3.53906C9.93454 3.53906 7.99237 4.34461 6.53123 5.80725C6.25683 6.08198 6.25701 6.52716 6.53175 6.80161C6.80648 7.07606 7.2517 7.07583 7.52611 6.80109C8.72156 5.60437 10.3104 4.94531 12 4.94531C13.6895 4.94531 15.2783 5.60437 16.4738 6.80109C16.7482 7.07569 17.1933 7.07625 17.4682 6.80161Z" fill="#E11B22"/>
<path d="M15.4789 8.78888C15.7535 8.51428 15.7535 8.06911 15.4789 7.79452C14.5484 6.864 13.3129 6.35156 12 6.35156C10.687 6.35156 9.45151 6.864 8.52104 7.79452C8.24645 8.06911 8.24645 8.51428 8.52104 8.78888C8.79559 9.06347 9.2408 9.06352 9.5154 8.78888C10.1803 8.124 11.0626 7.75781 12 7.75781C12.9373 7.75781 13.8196 8.124 14.4846 8.78888C14.7591 9.06347 15.2043 9.06347 15.4789 8.78888Z" fill="#E11B22"/>
<path d="M14.8125 16.1953C14.4242 16.1953 14.1094 16.5101 14.1094 16.8984V18.3047C14.1094 18.693 14.4242 19.0078 14.8125 19.0078C15.2008 19.0078 15.5156 18.693 15.5156 18.3047V16.8984C15.5156 16.5101 15.2008 16.1953 14.8125 16.1953Z" fill="#E11B22"/>
<path d="M17.625 16.1953C17.2367 16.1953 16.9219 16.5101 16.9219 16.8984V18.3047C16.9219 18.693 17.2367 19.0078 17.625 19.0078C18.0133 19.0078 18.3281 18.693 18.3281 18.3047V16.8984C18.3281 16.5101 18.0133 16.1953 17.625 16.1953Z" fill="#E11B22"/>
<path d="M20.4375 16.1953C20.0492 16.1953 19.7344 16.5101 19.7344 16.8984V18.3047C19.7344 18.693 20.0492 19.0078 20.4375 19.0078C20.8258 19.0078 21.1406 18.693 21.1406 18.3047V16.8984C21.1406 16.5101 20.8258 16.1953 20.4375 16.1953Z" fill="#E11B22"/>
</g>
<defs>
<clipPath id="clip0_11221_17731">
<rect width="24" height="24" fill="white"/>
</clipPath>
</defs>
</svg>
