<svg width="99" height="44" viewBox="0 0 99 44" fill="none" xmlns="http://www.w3.org/2000/svg">
<rect x="0.75" y="0.75" width="96.8333" height="42.5" rx="9.25" fill="#E11B22" fill-opacity="0.08"/>
<rect x="0.75" y="0.75" width="96.8333" height="42.5" rx="9.25" stroke="#E11B22" stroke-width="1.5"/>
<path d="M98 32C98 38.6274 92.6274 44 86 44H78V36C78 31.5817 81.5817 28 86 28H98V32ZM93.6709 31.2217C93.3386 30.9131 92.8146 30.9288 92.501 31.2559L87.5947 36.3711L85.4375 34.0537C85.1288 33.7222 84.6055 33.7002 84.2686 34.0039C83.9321 34.3078 83.9087 34.8226 84.2168 35.1543L86.8984 38.0361C87.2644 38.4291 87.8947 38.4323 88.2656 38.0459L93.7051 32.374C94.0183 32.0468 94.0029 31.5305 93.6709 31.2217Z" fill="#E11B22"/>
</svg>
